{
DisplayStrings = (
/vcard,
/brush,
/browser,
/newspaper,
/pencil
);
copyright = "Creative Commons CC BY-SA 2012";
date = "2013-04-13 23:04:49 +0000";
designer = "Daniel Bruce";
designerURL = www.danielbruce.se;
familyName = "Entypo";
fontMaster = (
{
ascender = 750;
capHeight = 0;
customParameters = (
{
name = TypoAscender;
value = 750;
},
{
name = TypoDescender;
value = "-250";
}
);
descender = "-250";
id = "772A128A-47C6-487B-8519-986DC341ECA7";
weightValue = 400;
widthValue = 5;
xHeight = 0;
}
);
glyphs = (
{
glyphname = informationsource;
layers = (
{
layerId = "772A128A-47C6-487B-8519-986DC341ECA7";
name = Regular;
paths = (
{
closed = 1;
nodes = (
"258 500 OFFCURVE",
"276 480 OFFCURVE",
"276 452 CURVE SMOOTH",
"276 419 OFFCURVE",
"246 389 OFFCURVE",
"209 389 CURVE SMOOTH",
"177 389 OFFCURVE",
"159 407 OFFCURVE",
"160 438 CURVE SMOOTH",
"160 469 OFFCURVE",
"185 500 OFFCURVE",
"226 500 CURVE SMOOTH"
);
},
{
closed = 1;
nodes = (
"90 0 OFFCURVE",
"81 30 OFFCURVE",
"96 89 CURVE SMOOTH",
"126 216 LINE SMOOTH",
"131 235 OFFCURVE",
"131 244 OFFCURVE",
"126 244 CURVE SMOOTH",
"118 244 OFFCURVE",
"83 229 OFFCURVE",
"63 216 CURVE",
"50 238 LINE",
"110 290 OFFCURVE",
"185 325 OFFCURVE",
"220 325 CURVE SMOOTH",
"246 325 OFFCURVE",
"252 298 OFFCURVE",
"238 244 CURVE SMOOTH",
"203 111 LINE SMOOTH",
"198 90 OFFCURVE",
"199 79 OFFCURVE",
"206 79 CURVE SMOOTH",
"221 79 OFFCURVE",
"240 89 OFFCURVE",
"265 109 CURVE",
"280 89 LINE",
"224 32 OFFCURVE",
"155 0 OFFCURVE",
"123 0 CURVE SMOOTH"
);
}
);
width = 330;
}
);
unicode = 2139;
},
{
glyphname = dblverticalbar;
layers = (
{
layerId = "772A128A-47C6-487B-8519-986DC341ECA7";
name = Regular;
paths = (
{
closed = 1;
nodes = (
"225 393 LINE SMOOTH",
"225 414 OFFCURVE",
"240 425 OFFCURVE",
"270 425 CURVE SMOOTH",
"300 425 OFFCURVE",
"315 414 OFFCURVE",
"315 393 CURVE SMOOTH",
"315 108 LINE SMOOTH",
"315 86 OFFCURVE",
"300 75 OFFCURVE",
"270 75 CURVE SMOOTH",
"240 75 OFFCURVE",
"225 86 OFFCURVE",
"225 108 CURVE SMOOTH"
);
},
{
closed = 1;
nodes = (
"50 393 LINE SMOOTH",
"50 414 OFFCURVE",
"65 425 OFFCURVE",
"95 425 CURVE SMOOTH",
"125 425 OFFCURVE",
"140 414 OFFCURVE",
"140 393 CURVE SMOOTH",
"140 108 LINE SMOOTH",
"140 86 OFFCURVE",
"125 75 OFFCURVE",
"95 75 CURVE SMOOTH",
"65 75 OFFCURVE",
"50 86 OFFCURVE",
"50 108 CURVE SMOOTH"
);
}
);
width = 365;
}
);
unicode = 2016;
},
{
glyphname = anticlockwiseGappedCircleArrow;
layers = (
{
layerId = "772A128A-47C6-487B-8519-986DC341ECA7";
name = Regular;
paths = (
{
closed = 1;
nodes = (
"429 443 OFFCURVE",
"520 351 OFFCURVE",
"520 238 CURVE SMOOTH",
"520 125 OFFCURVE",
"429 33 OFFCURVE",
"316 33 CURVE SMOOTH",
"269 33 OFFCURVE",
"227 48 OFFCURVE",
"190 77 CURVE",
"225 114 LINE",
"253 94 OFFCURVE",
"283 84 OFFCURVE",
"316 84 CURVE SMOOTH",
"400 84 OFFCURVE",
"469 153 OFFCURVE",
"469 238 CURVE SMOOTH",
"469 323 OFFCURVE",
"400 392 OFFCURVE",
"316 392 CURVE SMOOTH",
"233 392 OFFCURVE",
"164 326 OFFCURVE",
"163 243 CURVE",
"234 243 LINE",
"142 141 LINE",
"50 243 LINE",
"112 243 LINE",
"113 354 OFFCURVE",
"205 443 OFFCURVE",
"316 443 CURVE SMOOTH"
);
}
);
width = 570;
}
);
unicode = 27F2;
},
{
glyphname = circleplus;
layers = (
{
layerId = "772A128A-47C6-487B-8519-986DC341ECA7";
name = Regular;
paths = (
{
closed = 1;
nodes = (
"153 440 OFFCURVE",
"202 460 OFFCURVE",
"260 460 CURVE SMOOTH",
"376 460 OFFCURVE",
"470 366 OFFCURVE",
"470 250 CURVE SMOOTH",
"470 134 OFFCURVE",
"376 40 OFFCURVE",
"260 40 CURVE SMOOTH",
"144 40 OFFCURVE",
"50 134 OFFCURVE",
"50 250 CURVE SMOOTH",
"50 308 OFFCURVE",
"71 358 OFFCURVE",
"112 399 CURVE SMOOTH"
);
},
{
closed = 1;
nodes = (
"286 225 LINE",
"386 225 LINE",
"386 276 LINE",
"286 276 LINE",
"286 377 LINE",
"235 377 LINE",
"235 276 LINE",
"134 276 LINE",
"134 225 LINE",
"235 225 LINE",
"235 124 LINE",
"286 124 LINE"
);
}
);
width = 520;
}
);
unicode = 2295;
},
{
glyphname = clockwiseGappedCircleArrow;
layers = (
{
layerId = "772A128A-47C6-487B-8519-986DC341ECA7";
name = Regular;
paths = (
{
closed = 1;
nodes = (
"150 435 OFFCURVE",
"198 455 OFFCURVE",
"254 455 CURVE SMOOTH",
"366 455 OFFCURVE",
"456 367 OFFCURVE",
"459 256 CURVE",
"520 256 LINE",
"428 153 LINE",
"336 256 LINE",
"408 256 LINE",
"405 339 OFFCURVE",
"337 404 OFFCURVE",
"254 404 CURVE SMOOTH",
"170 404 OFFCURVE",
"101 335 OFFCURVE",
"101 250 CURVE SMOOTH",
"101 166 OFFCURVE",
"170 97 OFFCURVE",
"254 97 CURVE SMOOTH",
"289 97 OFFCURVE",
"319 107 OFFCURVE",
"345 127 CURVE",
"380 89 LINE",
"343 60 OFFCURVE",
"301 45 OFFCURVE",
"254 45 CURVE SMOOTH",
"142 45 OFFCURVE",
"50 137 OFFCURVE",
"50 250 CURVE SMOOTH",
"50 307 OFFCURVE",
"70 355 OFFCURVE",
"110 395 CURVE SMOOTH"
);
}
);
width = 570;
}
);
unicode = 27F3;
},
{
glyphname = infinity;
layers = (
{
layerId = "772A128A-47C6-487B-8519-986DC341ECA7";
name = Regular;
paths = (
{
closed = 1;
nodes = (
"504 360 OFFCURVE",
"550 326 OFFCURVE",
"550 250 CURVE SMOOTH",
"550 175 OFFCURVE",
"504 140 OFFCURVE",
"448 140 CURVE SMOOTH",
"396 140 OFFCURVE",
"340 169 OFFCURVE",
"300 213 CURVE",
"261 169 OFFCURVE",
"205 140 OFFCURVE",
"153 140 CURVE SMOOTH",
"96 140 OFFCURVE",
"50 175 OFFCURVE",
"50 250 CURVE SMOOTH",
"50 326 OFFCURVE",
"96 360 OFFCURVE",
"153 360 CURVE SMOOTH",
"205 360 OFFCURVE",
"261 332 OFFCURVE",
"300 288 CURVE",
"339 332 OFFCURVE",
"396 360 OFFCURVE",
"448 360 CURVE SMOOTH"
);
},
{
closed = 1;
nodes = (
"193 184 OFFCURVE",
"242 211 OFFCURVE",
"273 250 CURVE",
"242 289 OFFCURVE",
"194 316 OFFCURVE",
"153 316 CURVE SMOOTH",
"115 316 OFFCURVE",
"96 294 OFFCURVE",
"96 250 CURVE SMOOTH",
"96 206 OFFCURVE",
"115 184 OFFCURVE",
"153 184 CURVE SMOOTH"
);
},
{
closed = 1;
nodes = (
"486 184 OFFCURVE",
"505 206 OFFCURVE",
"505 250 CURVE SMOOTH",
"505 294 OFFCURVE",
"486 316 OFFCURVE",
"448 316 CURVE SMOOTH",
"407 316 OFFCURVE",
"357 289 OFFCURVE",
"328 250 CURVE",
"357 211 OFFCURVE",
"407 184 OFFCURVE",
"448 184 CURVE SMOOTH"
);
}
);
width = 600;
}
);
unicode = 221E;
},
{
glyphname = minus;
layers = (
{
layerId = "772A128A-47C6-487B-8519-986DC341ECA7";
name = Regular;
paths = (
{
closed = 1;
nodes = (
"325 275 LINE SMOOTH",
"335 275 OFFCURVE",
"340 267 OFFCURVE",
"340 250 CURVE SMOOTH",
"340 233 OFFCURVE",
"335 225 OFFCURVE",
"325 225 CURVE SMOOTH",
"65 225 LINE SMOOTH",
"55 225 OFFCURVE",
"50 233 OFFCURVE",
"50 250 CURVE SMOOTH",
"50 267 OFFCURVE",
"55 275 OFFCURVE",
"65 275 CURVE SMOOTH"
);
}
);
width = 390;
}
);
unicode = 2212;
},
{
glyphname = minuscircle;
layers = (
{
layerId = "772A128A-47C6-487B-8519-986DC341ECA7";
name = Regular;
paths = (
{
closed = 1;
nodes = (
"153 440 OFFCURVE",
"202 460 OFFCURVE",
"260 460 CURVE SMOOTH",
"376 460 OFFCURVE",
"470 366 OFFCURVE",
"470 250 CURVE SMOOTH",
"470 134 OFFCURVE",
"376 40 OFFCURVE",
"260 40 CURVE SMOOTH",
"144 40 OFFCURVE",
"50 134 OFFCURVE",
"50 250 CURVE SMOOTH",
"50 308 OFFCURVE",
"71 358 OFFCURVE",
"112 399 CURVE SMOOTH"
);
},
{
closed = 1;
nodes = (
"386 276 LINE",
"134 276 LINE",
"134 225 LINE",
"386 225 LINE"
);
}
);
width = 520;
}
);
unicode = 2296;
},
{
glyphname = plus;
layers = (
{
layerId = "772A128A-47C6-487B-8519-986DC341ECA7";
name = Regular;
paths = (
{
closed = 1;
nodes = (
"325 275 LINE SMOOTH",
"335 275 OFFCURVE",
"340 267 OFFCURVE",
"340 250 CURVE SMOOTH",
"340 233 OFFCURVE",
"335 225 OFFCURVE",
"325 225 CURVE SMOOTH",
"220 225 LINE",
"220 120 LINE SMOOTH",
"220 110 OFFCURVE",
"212 105 OFFCURVE",
"195 105 CURVE SMOOTH",
"178 105 OFFCURVE",
"170 110 OFFCURVE",
"170 120 CURVE SMOOTH",
"170 225 LINE",
"65 225 LINE SMOOTH",
"55 225 OFFCURVE",
"50 233 OFFCURVE",
"50 250 CURVE SMOOTH",
"50 267 OFFCURVE",
"55 275 OFFCURVE",
"65 275 CURVE SMOOTH",
"170 275 LINE",
"170 380 LINE SMOOTH",
"170 390 OFFCURVE",
"178 395 OFFCURVE",
"195 395 CURVE SMOOTH",
"212 395 OFFCURVE",
"220 390 OFFCURVE",
"220 380 CURVE SMOOTH",
"220 275 LINE"
);
}
);
width = 390;
}
);
unicode = 002B;
},
{
glyphname = squaredminus;
layers = (
{
layerId = "772A128A-47C6-487B-8519-986DC341ECA7";
name = Regular;
paths = (
{
closed = 1;
nodes = (
"400 450 LINE SMOOTH",
"428 450 OFFCURVE",
"450 428 OFFCURVE",
"450 400 CURVE SMOOTH",
"450 100 LINE SMOOTH",
"450 73 OFFCURVE",
"428 50 OFFCURVE",
"400 50 CURVE SMOOTH",
"100 50 LINE SMOOTH",
"73 50 OFFCURVE",
"50 73 OFFCURVE",
"50 100 CURVE SMOOTH",
"50 400 LINE SMOOTH",
"50 428 OFFCURVE",
"73 450 OFFCURVE",
"100 450 CURVE SMOOTH"
);
},
{
closed = 1;
nodes = (
"375 225 LINE",
"375 275 LINE",
"125 275 LINE",
"125 225 LINE"
);
}
);
width = 500;
}
);
unicode = 229F;
},
{
glyphname = squaredplus;
layers = (
{
layerId = "772A128A-47C6-487B-8519-986DC341ECA7";
name = Regular;
paths = (
{
closed = 1;
nodes = (
"400 450 LINE SMOOTH",
"428 450 OFFCURVE",
"450 428 OFFCURVE",
"450 400 CURVE SMOOTH",
"450 100 LINE SMOOTH",
"450 73 OFFCURVE",
"428 50 OFFCURVE",
"400 50 CURVE SMOOTH",
"100 50 LINE SMOOTH",
"73 50 OFFCURVE",
"50 73 OFFCURVE",
"50 100 CURVE SMOOTH",
"50 400 LINE SMOOTH",
"50 428 OFFCURVE",
"73 450 OFFCURVE",
"100 450 CURVE SMOOTH"
);
},
{
closed = 1;
nodes = (
"375 225 LINE",
"375 275 LINE",
"275 275 LINE",
"275 375 LINE",
"225 375 LINE",
"225 275 LINE",
"125 275 LINE",
"125 225 LINE",
"225 225 LINE",
"225 125 LINE",
"275 125 LINE",
"275 225 LINE"
);
}
);
width = 500;
}
);
unicode = 229E;
},
{
glyphname = arrowdown;
layers = (
{
layerId = "772A128A-47C6-487B-8519-986DC341ECA7";
name = Regular;
paths = (
{
closed = 1;
nodes = (
"300 125 LINE",
"175 5 LINE",
"50 125 LINE",
"131 125 LINE",
"131 495 LINE",
"219 495 LINE",
"219 125 LINE"
);
}
);
width = 350;
}
);
unicode = 2193;
},
{
glyphname = arrowdowntipright;
layers = (
{
layerId = "772A128A-47C6-487B-8519-986DC341ECA7";
name = Regular;
paths = (
{
closed = 1;
nodes = (
"100 175 LINE SMOOTH",
"72 175 OFFCURVE",
"50 198 OFFCURVE",
"50 225 CURVE SMOOTH",
"50 400 LINE",
"120 400 LINE",
"120 245 LINE",
"302 245 LINE",
"302 320 LINE",
"422 210 LINE",
"302 100 LINE",
"302 175 LINE"
);
}
);
width = 472;
}
);
unicode = 21B3;
},
{
glyphname = arrowleft;
layers = (
{
layerId = "772A128A-47C6-487B-8519-986DC341ECA7";
name = Regular;
paths = (
{
closed = 1;
nodes = (
"170 125 LINE",
"50 250 LINE",
"170 375 LINE",
"170 295 LINE",
"540 295 LINE",
"540 206 LINE",
"170 206 LINE"
);
}
);
width = 590;
}
);
unicode = 2190;
},
{
glyphname = arrowleftoverright;
layers = (
{
layerId = "772A128A-47C6-487B-8519-986DC341ECA7";
name = Regular;
paths = (
{
closed = 1;
nodes = (
"400 371 LINE",
"400 301 LINE",
"150 301 LINE",
"150 256 LINE",
"50 336 LINE",
"150 421 LINE",
"150 371 LINE"
);
},
{
closed = 1;
nodes = (
"550 161 LINE",
"450 81 LINE",
"450 126 LINE",
"200 126 LINE",
"200 196 LINE",
"450 196 LINE",
"450 246 LINE"
);
}
);
width = 600;
}
);
unicode = 21C6;
},
{
glyphname = arrowright;
layers = (
{
layerId = "772A128A-47C6-487B-8519-986DC341ECA7";
name = Regular;
paths = (
{
closed = 1;
nodes = (
"421 125 LINE",
"421 206 LINE",
"50 206 LINE",
"50 295 LINE",
"421 295 LINE",
"421 375 LINE",
"540 250 LINE"
);
}
);
width = 590;
}
);
unicode = 2192;
},
{
glyphname = arrowup;
layers = (
{
layerId = "772A128A-47C6-487B-8519-986DC341ECA7";
name = Regular;
paths = (
{
closed = 1;
nodes = (
"300 376 LINE",
"219 376 LINE",
"219 5 LINE",
"131 5 LINE",
"131 376 LINE",
"50 376 LINE",
"175 495 LINE"
);
}
);
width = 350;
}
);
unicode = 2191;
},
{
glyphname = arrowuptipleft;
layers = (
{
layerId = "772A128A-47C6-487B-8519-986DC341ECA7";
name = Regular;
paths = (
{
closed = 1;
nodes = (
"150 250 LINE",
"150 205 LINE",
"50 285 LINE",
"150 370 LINE",
"150 320 LINE",
"425 320 LINE SMOOTH",
"452 320 OFFCURVE",
"475 298 OFFCURVE",
"475 270 CURVE SMOOTH",
"475 130 LINE",
"405 130 LINE",
"405 250 LINE"
);
}
);
width = 525;
}
);
unicode = 21B0;
},
{
glyphname = blackCircle;
layers = (
{
layerId = "772A128A-47C6-487B-8519-986DC341ECA7";
name = Regular;
paths = (
{
closed = 1;
nodes = (
"135 408 OFFCURVE",
"176 425 OFFCURVE",
"225 425 CURVE SMOOTH",
"322 425 OFFCURVE",
"400 347 OFFCURVE",
"400 250 CURVE SMOOTH",
"400 154 OFFCURVE",
"322 75 OFFCURVE",
"225 75 CURVE SMOOTH",
"128 75 OFFCURVE",
"50 154 OFFCURVE",
"50 250 CURVE SMOOTH",
"50 299 OFFCURVE",
"67 340 OFFCURVE",
"101 374 CURVE SMOOTH"
);
}
);
width = 450;
}
);
unicode = 25CF;
},
{
glyphname = blackdownTriangle;
layers = (
{
layerId = "772A128A-47C6-487B-8519-986DC341ECA7";
name = Regular;
paths = (
{
closed = 1;
nodes = (
"280 350 LINE",
"165 150 LINE",
"50 350 LINE"
);
}
);
width = 330;
}
);
unicode = 25BE;
},
{
glyphname = blackleftTriangleSmall;
layers = (
{
layerId = "772A128A-47C6-487B-8519-986DC341ECA7";
name = Regular;
paths = (
{
closed = 1;
nodes = (
"250 365 LINE",
"250 135 LINE",
"50 250 LINE"
);
}
);
width = 300;
}
);
unicode = 25C2;
},
{
glyphname = blackrightTriangle;
layers = (
{
layerId = "772A128A-47C6-487B-8519-986DC341ECA7";
name = Regular;
paths = (
{
closed = 1;
nodes = (
"293 263 LINE SMOOTH",
"298 260 OFFCURVE",
"300 255 OFFCURVE",
"300 250 CURVE SMOOTH",
"300 245 OFFCURVE",
"298 241 OFFCURVE",
"293 238 CURVE SMOOTH",
"79 105 LINE",
"63 94 OFFCURVE",
"50 102 OFFCURVE",
"50 122 CURVE SMOOTH",
"50 379 LINE SMOOTH",
"50 399 OFFCURVE",
"63 407 OFFCURVE",
"79 396 CURVE"
);
}
);
width = 350;
}
);
unicode = 25B6;
},
{
glyphname = blackrightTriangleSmall;
layers = (
{
layerId = "772A128A-47C6-487B-8519-986DC341ECA7";
name = Regular;
paths = (
{
closed = 1;
nodes = (
"50 365 LINE",
"250 250 LINE",
"50 135 LINE"
);
}
);
width = 300;
}
);
unicode = 25B8;
},
{
glyphname = blackupsmallTriangle;
layers = (
{
layerId = "772A128A-47C6-487B-8519-986DC341ECA7";
name = Regular;
paths = (
{
closed = 1;
nodes = (
"50 150 LINE",
"165 350 LINE",
"280 150 LINE"
);
}
);
width = 330;
}
);
unicode = 25B4;
},
{
glyphname = filledbox;
layers = (
{
layerId = "772A128A-47C6-487B-8519-986DC341ECA7";
name = Regular;
paths = (
{
closed = 1;
nodes = (
"313 400 LINE SMOOTH",
"338 400 OFFCURVE",
"350 389 OFFCURVE",
"350 368 CURVE SMOOTH",
"350 133 LINE SMOOTH",
"350 111 OFFCURVE",
"338 100 OFFCURVE",
"313 100 CURVE SMOOTH",
"88 100 LINE SMOOTH",
"63 100 OFFCURVE",
"50 111 OFFCURVE",
"50 133 CURVE SMOOTH",
"50 368 LINE SMOOTH",
"50 392 OFFCURVE",
"61 400 OFFCURVE",
"88 400 CURVE SMOOTH"
);
}
);
width = 400;
}
);
unicode = 25A0;
},
{
glyphname = fullBlock;
layers = (
{
layerId = "772A128A-47C6-487B-8519-986DC341ECA7";
name = Regular;
paths = (
{
closed = 1;
nodes = (
"423 490 OFFCURVE",
"530 383 OFFCURVE",
"530 250 CURVE SMOOTH",
"530 118 OFFCURVE",
"423 10 OFFCURVE",
"290 10 CURVE SMOOTH",
"158 10 OFFCURVE",
"50 118 OFFCURVE",
"50 250 CURVE SMOOTH",
"50 383 OFFCURVE",
"158 490 OFFCURVE",
"290 490 CURVE SMOOTH"
);
},
{
closed = 1;
nodes = (
"108 206 OFFCURVE",
"122 168 OFFCURVE",
"149 135 CURVE",
"406 392 LINE",
"373 419 OFFCURVE",
"334 433 OFFCURVE",
"290 433 CURVE SMOOTH",
"189 433 OFFCURVE",
"108 351 OFFCURVE",
"108 250 CURVE SMOOTH"
);
},
{
closed = 1;
nodes = (
"391 68 OFFCURVE",
"473 150 OFFCURVE",
"473 250 CURVE SMOOTH",
"473 293 OFFCURVE",
"459 332 OFFCURVE",
"432 366 CURVE",
"175 109 LINE",
"208 82 OFFCURVE",
"246 68 OFFCURVE",
"290 68 CURVE SMOOTH"
);
}
);
width = 580;
}
);
unicode = 2588;
},
{
glyphname = rightHalfBlackCircle;
layers = (
{
layerId = "772A128A-47C6-487B-8519-986DC341ECA7";
name = Regular;
paths = (
{
closed = 1;
nodes = (
"525 270 LINE SMOOTH",
"538 270 OFFCURVE",
"550 261 OFFCURVE",
"550 250 CURVE SMOOTH",
"550 237 OFFCURVE",
"542 230 OFFCURVE",
"525 230 CURVE SMOOTH",
"501 230 LINE SMOOTH",
"484 230 OFFCURVE",
"476 237 OFFCURVE",
"476 250 CURVE SMOOTH",
"476 261 OFFCURVE",
"488 270 OFFCURVE",
"501 270 CURVE SMOOTH"
);
},
{
closed = 1;
nodes = (
"230 374 OFFCURVE",
"262 387 OFFCURVE",
"300 387 CURVE SMOOTH",
"376 387 OFFCURVE",
"438 326 OFFCURVE",
"438 250 CURVE SMOOTH",
"438 173 OFFCURVE",
"376 112 OFFCURVE",
"300 112 CURVE SMOOTH",
"224 112 OFFCURVE",
"163 173 OFFCURVE",
"163 250 CURVE SMOOTH",
"163 288 OFFCURVE",
"176 320 OFFCURVE",
"203 347 CURVE SMOOTH"
);
},
{
closed = 1;
nodes = (
"303 350 LINE",
"246 350 OFFCURVE",
"200 305 OFFCURVE",
"200 250 CURVE SMOOTH",
"200 194 OFFCURVE",
"246 150 OFFCURVE",
"303 150 CURVE"
);
},
{
closed = 1;
nodes = (
"125 237 OFFCURVE",
"117 230 OFFCURVE",
"100 230 CURVE SMOOTH",
"75 230 LINE SMOOTH",
"58 230 OFFCURVE",
"50 237 OFFCURVE",
"50 250 CURVE SMOOTH",
"50 261 OFFCURVE",
"62 270 OFFCURVE",
"75 270 CURVE SMOOTH",
"100 270 LINE SMOOTH",
"113 270 OFFCURVE",
"125 261 OFFCURVE",
"125 250 CURVE SMOOTH"
);
},
{
closed = 1;
nodes = (
"310 428 OFFCURVE",
"305 425 OFFCURVE",
"300 425 CURVE SMOOTH",
"289 425 OFFCURVE",
"280 437 OFFCURVE",
"280 450 CURVE SMOOTH",
"280 475 LINE SMOOTH",
"280 488 OFFCURVE",
"289 500 OFFCURVE",
"300 500 CURVE SMOOTH",
"311 500 OFFCURVE",
"320 488 OFFCURVE",
"320 475 CURVE SMOOTH",
"320 450 LINE SMOOTH",
"320 443 OFFCURVE",
"318 438 OFFCURVE",
"314 433 CURVE SMOOTH"
);
},
{
closed = 1;
nodes = (
"290 73 OFFCURVE",
"295 75 OFFCURVE",
"300 75 CURVE SMOOTH",
"311 75 OFFCURVE",
"320 63 OFFCURVE",
"320 50 CURVE SMOOTH",
"320 25 LINE SMOOTH",
"320 12 OFFCURVE",
"311 0 OFFCURVE",
"300 0 CURVE SMOOTH",
"289 0 OFFCURVE",
"280 12 OFFCURVE",
"280 25 CURVE SMOOTH",
"280 50 LINE SMOOTH",
"280 57 OFFCURVE",
"282 63 OFFCURVE",
"286 68 CURVE SMOOTH"
);
},
{
closed = 1;
nodes = (
"467 388 LINE SMOOTH",
"444 365 OFFCURVE",
"415 392 OFFCURVE",
"439 416 CURVE",
"442 420 OFFCURVE",
"469 456 OFFCURVE",
"488 437 CURVE SMOOTH",
"497 428 OFFCURVE",
"496 417 OFFCURVE",
"484 405 CURVE SMOOTH"
);
},
{
closed = 1;
nodes = (
"143 122 OFFCURVE",
"158 123 OFFCURVE",
"165 115 CURVE",
"173 107 OFFCURVE",
"171 92 OFFCURVE",
"162 83 CURVE SMOOTH",
"144 65 LINE SMOOTH",
"135 56 OFFCURVE",
"120 54 OFFCURVE",
"113 62 CURVE",
"103 71 OFFCURVE",
"104 82 OFFCURVE",
"116 94 CURVE",
"118 95 OFFCURVE",
"124 101 OFFCURVE",
"134 111 CURVE"
);
},
{
closed = 1;
nodes = (
"162 416 LINE SMOOTH",
"174 404 OFFCURVE",
"175 393 OFFCURVE",
"165 384 CURVE",
"158 377 OFFCURVE",
"143 379 OFFCURVE",
"134 388 CURVE SMOOTH",
"124 398 OFFCURVE",
"118 404 OFFCURVE",
"116 405 CURVE",
"107 414 OFFCURVE",
"105 429 OFFCURVE",
"113 437 CURVE",
"120 445 OFFCURVE",
"135 443 OFFCURVE",
"144 434 CURVE SMOOTH"
);
},
{
closed = 1;
nodes = (
"415 107 OFFCURVE",
"443 135 OFFCURVE",
"467 111 CURVE SMOOTH",
"484 94 LINE SMOOTH",
"508 70 OFFCURVE",
"480 42 OFFCURVE",
"456 65 CURVE SMOOTH",
"446 75 OFFCURVE",
"440 81 OFFCURVE",
"439 83 CURVE"
);
}
);
width = 600;
}
);
unicode = 25D1;
},
{
glyphname = whiteCircleWithUpperLeftQuadrant;
layers = (
{
layerId = "772A128A-47C6-487B-8519-986DC341ECA7";
name = Regular;
paths = (
{
closed = 1;
nodes = (
"234 276 LINE",
"50 276 LINE",
"62 373 OFFCURVE",
"138 449 OFFCURVE",
"234 460 CURVE"
);
},
{
closed = 1;
nodes = (
"287 460 LINE",
"391 447 OFFCURVE",
"470 358 OFFCURVE",
"470 251 CURVE SMOOTH",
"470 135 OFFCURVE",
"376 40 OFFCURVE",
"259 40 CURVE SMOOTH",
"152 40 OFFCURVE",
"65 119 OFFCURVE",
"50 224 CURVE",
"262 224 LINE SMOOTH",
"275 224 OFFCURVE",
"287 234 OFFCURVE",
"287 249 CURVE SMOOTH"
);
}
);
width = 520;
}
);
unicode = 25F4;
},
{
glyphname = airplane;
layers = (
{
layerId = "772A128A-47C6-487B-8519-986DC341ECA7";
name = Regular;
paths = (
{
closed = 1;
nodes = (
"184 15 LINE",
"246 215 LINE",
"156 215 LINE",
"100 165 LINE",
"50 165 LINE",
"90 250 LINE",
"50 335 LINE",
"100 335 LINE",
"156 285 LINE",
"246 285 LINE",
"184 485 LINE",
"234 485 LINE",
"346 285 LINE",
"475 285 LINE SMOOTH",
"477 285 OFFCURVE",
"480 285 OFFCURVE",
"483 285 CURVE SMOOTH",
"490 285 OFFCURVE",
"511 282 OFFCURVE",
"524 278 CURVE",
"537 273 OFFCURVE",
"550 263 OFFCURVE",
"550 250 CURVE SMOOTH",
"550 229 OFFCURVE",
"518 217 OFFCURVE",
"494 216 CURVE SMOOTH",
"475 215 LINE",
"346 215 LINE",
"234 15 LINE"
);
}
);
width = 600;
}
);
unicode = 2708;
},
{
glyphname = antennaWithBars;
layers = (
{
layerId = "772A128A-47C6-487B-8519-986DC341ECA7";
name = Regular;
paths = (
{
closed = 1;
nodes = (
"323 150 OFFCURVE",
"345 127 OFFCURVE",
"345 100 CURVE SMOOTH",
"345 72 OFFCURVE",
"323 50 OFFCURVE",
"295 50 CURVE SMOOTH",
"268 50 OFFCURVE",
"246 72 OFFCURVE",
"246 100 CURVE SMOOTH",
"246 127 OFFCURVE",
"268 150 OFFCURVE",
"295 150 CURVE SMOOTH"
);
},
{
closed = 1;
nodes = (
"190 206 LINE",
"219 235 OFFCURVE",
"254 250 OFFCURVE",
"295 250 CURVE SMOOTH",
"336 250 OFFCURVE",
"371 235 OFFCURVE",
"400 206 CURVE",
"365 170 LINE",
"346 189 OFFCURVE",
"322 199 OFFCURVE",
"295 199 CURVE SMOOTH",
"268 199 OFFCURVE",
"244 189 OFFCURVE",
"225 170 CURVE"
);
},
{
closed = 1;
nodes = (
"120 276 LINE",
"169 325 OFFCURVE",
"227 350 OFFCURVE",
"296 350 CURVE SMOOTH",
"364 350 OFFCURVE",
"422 325 OFFCURVE",
"470 276 CURVE",
"435 241 LINE",
"396 280 OFFCURVE",
"350 300 OFFCURVE",
"296 300 CURVE SMOOTH",
"241 300 OFFCURVE",
"194 280 OFFCURVE",
"155 241 CURVE"
);
},
{
closed = 1;
nodes = (
"50 347 LINE",
"118 416 OFFCURVE",
"200 450 OFFCURVE",
"296 450 CURVE SMOOTH",
"391 450 OFFCURVE",
"473 416 OFFCURVE",
"540 347 CURVE",
"505 312 LINE",
"447 371 OFFCURVE",
"377 400 OFFCURVE",
"295 400 CURVE SMOOTH",
"213 400 OFFCURVE",
"143 371 OFFCURVE",
"85 312 CURVE"
);
}
);
width = 590;
}
);
unicode = 1F4F6;
},
{
glyphname = anticlockwiseDownwardsAndUpwardsOpenCircleArrows;
layers = (
{
layerId = "772A128A-47C6-487B-8519-986DC341ECA7";
name = Regular;
paths = (
{
closed = 1;
nodes = (
"202 203 LINE",
"202 57 LINE",
"64 65 LINE",
"108 108 LINE",
"31 189 OFFCURVE",
"32 317 OFFCURVE",
"111 397 CURVE SMOOTH",
"144 430 OFFCURVE",
"184 450 OFFCURVE",
"231 455 CURVE",
"233 404 LINE",
"166 393 OFFCURVE",
"103 337 OFFCURVE",
"102 254 CURVE SMOOTH",
"101 212 OFFCURVE",
"115 176 OFFCURVE",
"144 145 CURVE"
);
},
{
closed = 1;
nodes = (
"310 444 LINE",
"448 436 LINE",
"404 393 LINE",
"481 312 OFFCURVE",
"480 184 OFFCURVE",
"401 104 CURVE SMOOTH",
"369 71 OFFCURVE",
"329 52 OFFCURVE",
"281 45 CURVE",
"280 97 LINE",
"345 108 OFFCURVE",
"409 164 OFFCURVE",
"410 248 CURVE SMOOTH",
"411 289 OFFCURVE",
"397 325 OFFCURVE",
"368 356 CURVE",
"311 298 LINE"
);
}
);
width = 512;
}
);
unicode = 1F504;
},
{
glyphname = artistPalette;
layers = (
{
layerId = "772A128A-47C6-487B-8519-986DC341ECA7";
name = Regular;
paths = (
{
closed = 1;
nodes = (
"527 354 OFFCURVE",
"546 307 OFFCURVE",
"540 279 CURVE SMOOTH",
"534 251 OFFCURVE",
"520 251 OFFCURVE",
"495 260 CURVE SMOOTH",
"470 269 OFFCURVE",
"440 270 OFFCURVE",
"415 242 CURVE",
"395 211 OFFCURVE",
"405 196 OFFCURVE",
"422 172 CURVE SMOOTH",
"438 148 OFFCURVE",
"438 140 OFFCURVE",
"415 116 CURVE SMOOTH",
"392 91 OFFCURVE",
"327 60 OFFCURVE",
"244 60 CURVE SMOOTH",
"120 60 OFFCURVE",
"44 137 OFFCURVE",
"51 233 CURVE SMOOTH",
"56 312 OFFCURVE",
"131 403 OFFCURVE",
"211 426 CURVE SMOOTH",
"308 454 OFFCURVE",
"397 441 OFFCURVE",
"479 386 CURVE SMOOTH"
);
},
{
closed = 1;
nodes = (
"340 153 OFFCURVE",
"357 170 OFFCURVE",
"357 191 CURVE SMOOTH",
"357 212 OFFCURVE",
"340 228 OFFCURVE",
"320 228 CURVE SMOOTH",
"299 228 OFFCURVE",
"282 212 OFFCURVE",
"282 191 CURVE SMOOTH",
"282 170 OFFCURVE",
"299 153 OFFCURVE",
"320 153 CURVE SMOOTH"
);
}
);
width = 591;
}
);
unicode = 1F3A8;
},
{
glyphname = backWithLeftwardsArrowAbove;
layers = (
{
layerId = "772A128A-47C6-487B-8519-986DC341ECA7";
name = Regular;
paths = (
{
closed = 1;
nodes = (
"425 345 LINE SMOOTH",
"452 345 OFFCURVE",
"475 323 OFFCURVE",
"475 295 CURVE SMOOTH",
"475 150 LINE SMOOTH",
"475 123 OFFCURVE",
"452 100 OFFCURVE",
"425 100 CURVE SMOOTH",
"80 100 LINE",
"80 170 LINE",
"405 170 LINE",
"405 275 LINE",
"155 275 LINE",
"155 220 LINE",
"50 310 LINE",
"155 400 LINE",
"155 345 LINE"
);
}
);
width = 525;
}
);
unicode = 1F519;
},
{
glyphname = barChart;
layers = (
{
layerId = "772A128A-47C6-487B-8519-986DC341ECA7";
name = Regular;
paths = (
{
closed = 1;
nodes = (
"425 475 LINE SMOOTH",
"440 475 OFFCURVE",
"450 463 OFFCURVE",
"450 450 CURVE SMOOTH",
"450 25 LINE",
"350 25 LINE",
"350 450 LINE SMOOTH",
"350 467 OFFCURVE",
"357 475 OFFCURVE",
"370 475 CURVE SMOOTH"
);
},
{
closed = 1;
nodes = (
"275 325 LINE SMOOTH",
"290 325 OFFCURVE",
"300 313 OFFCURVE",
"300 300 CURVE SMOOTH",
"300 25 LINE",
"200 25 LINE",
"200 300 LINE SMOOTH",
"200 317 OFFCURVE",
"207 325 OFFCURVE",
"220 325 CURVE SMOOTH"
);
},
{
closed = 1;
nodes = (
"125 175 LINE SMOOTH",
"140 175 OFFCURVE",
"150 163 OFFCURVE",
"150 150 CURVE SMOOTH",
"150 25 LINE",
"50 25 LINE",
"50 150 LINE SMOOTH",
"50 167 OFFCURVE",
"57 175 OFFCURVE",
"70 175 CURVE SMOOTH"
);
}
);
width = 500;
}
);
unicode = 1F4CA;
},
{
glyphname = battery;
layers = (
{
layerId = "772A128A-47C6-487B-8519-986DC341ECA7";
name = Regular;
paths = (
{
closed = 1;
nodes = (
"435 185 OFFCURVE",
"464 142 OFFCURVE",
"492 142 CURVE SMOOTH",
"525 142 LINE",
"505 111 OFFCURVE",
"490 100 OFFCURVE",
"434 100 CURVE SMOOTH",
"184 100 LINE SMOOTH",
"97 100 OFFCURVE",
"50 175 OFFCURVE",
"50 250 CURVE SMOOTH",
"50 323 OFFCURVE",
"97 400 OFFCURVE",
"184 400 CURVE SMOOTH",
"434 400 LINE SMOOTH",
"490 400 OFFCURVE",
"505 389 OFFCURVE",
"525 358 CURVE",
"492 358 LINE SMOOTH",
"464 358 OFFCURVE",
"435 314 OFFCURVE",
"435 250 CURVE SMOOTH"
);
},
{
closed = 1;
nodes = (
"370 209 OFFCURVE",
"369 213 OFFCURVE",
"363 218 CURVE",
"318 263 OFFCURVE",
"288 290 OFFCURVE",
"274 300 CURVE",
"263 307 OFFCURVE",
"257 309 OFFCURVE",
"252 304 CURVE SMOOTH",
"247 299 OFFCURVE",
"247 298 OFFCURVE",
"243 289 CURVE",
"232 261 LINE",
"158 294 LINE SMOOTH",
"141 302 OFFCURVE",
"134 289 OFFCURVE",
"145 280 CURVE",
"190 236 OFFCURVE",
"220 209 OFFCURVE",
"235 199 CURVE",
"258 188 OFFCURVE",
"258 192 OFFCURVE",
"265 209 CURVE SMOOTH",
"277 238 LINE",
"350 204 LINE SMOOTH",
"359 200 OFFCURVE",
"364 200 OFFCURVE",
"367 205 CURVE"
);
},
{
closed = 1;
nodes = (
"522 301 LINE SMOOTH",
"537 301 OFFCURVE",
"550 281 OFFCURVE",
"550 252 CURVE SMOOTH",
"550 223 OFFCURVE",
"537 202 OFFCURVE",
"522 202 CURVE SMOOTH",
"503 202 LINE SMOOTH",
"488 202 OFFCURVE",
"476 223 OFFCURVE",
"476 252 CURVE SMOOTH",
"476 281 OFFCURVE",
"488 301 OFFCURVE",
"503 301 CURVE SMOOTH"
);
}
);
width = 600;
}
);
unicode = 1F50B;
},
{
glyphname = bell;
layers = (
{
layerId = "772A128A-47C6-487B-8519-986DC341ECA7";
name = Regular;
paths = (
{
closed = 1;
nodes = (
"377 265 OFFCURVE",
"395 254 OFFCURVE",
"409 251 CURVE SMOOTH",
"423 248 OFFCURVE",
"440 236 OFFCURVE",
"448 212 CURVE SMOOTH",
"463 171 OFFCURVE",
"389 92 OFFCURVE",
"285 53 CURVE SMOOTH",
"230 34 OFFCURVE",
"181 26 OFFCURVE",
"137 31 CURVE SMOOTH",
"48 39 OFFCURVE",
"44 86 OFFCURVE",
"65 124 CURVE SMOOTH",
"76 143 OFFCURVE",
"79 161 OFFCURVE",
"74 179 CURVE SMOOTH",
"37 307 OFFCURVE",
"38 369 OFFCURVE",
"107 425 CURVE SMOOTH",
"116 432 OFFCURVE",
"121 441 OFFCURVE",
"122 451 CURVE SMOOTH",
"124 470 OFFCURVE",
"144 477 OFFCURVE",
"159 464 CURVE",
"166 457 OFFCURVE",
"176 454 OFFCURVE",
"187 455 CURVE",
"275 456 OFFCURVE",
"303 421 OFFCURVE",
"366 288 CURVE SMOOTH"
);
},
{
closed = 1;
nodes = (
"244 71 OFFCURVE",
"305 93 OFFCURVE",
"353 129 CURVE SMOOTH",
"376 146 OFFCURVE",
"393 161 OFFCURVE",
"403 174 CURVE SMOOTH",
"422 199 OFFCURVE",
"418 208 OFFCURVE",
"391 216 CURVE",
"363 223 OFFCURVE",
"304 217 OFFCURVE",
"235 192 CURVE SMOOTH",
"167 167 OFFCURVE",
"117 130 OFFCURVE",
"102 107 CURVE SMOOTH",
"86 83 OFFCURVE",
"87 76 OFFCURVE",
"118 69 CURVE SMOOTH",
"133 66 OFFCURVE",
"156 65 OFFCURVE",
"185 67 CURVE SMOOTH"
);
},
{
closed = 1;
nodes = (
"247 174 OFFCURVE",
"258 179 OFFCURVE",
"261 180 CURVE",
"262 179 LINE",
"271 152 OFFCURVE",
"248 119 OFFCURVE",
"209 106 CURVE",
"177 94 OFFCURVE",
"152 96 OFFCURVE",
"133 113 CURVE",
"159 136 OFFCURVE",
"195 156 OFFCURVE",
"242 173 CURVE"
);
}
);
width = 500;
}
);
unicode = 1F514;
},
{
glyphname = blackFlag;
layers = (
{
layerId = "772A128A-47C6-487B-8519-986DC341ECA7";
name = Regular;
paths = (
{
closed = 1;
nodes = (
"496 387 OFFCURVE",
"503 381 OFFCURVE",
"498 373 CURVE",
"466 327 OFFCURVE",
"439 292 OFFCURVE",
"416 267 CURVE SMOOTH",
"393 242 OFFCURVE",
"375 227 OFFCURVE",
"361 222 CURVE SMOOTH",
"333 212 OFFCURVE",
"314 223 OFFCURVE",
"295 239 CURVE SMOOTH",
"275 255 OFFCURVE",
"256 270 OFFCURVE",
"217 257 CURVE SMOOTH",
"197 250 OFFCURVE",
"174 236 OFFCURVE",
"147 214 CURVE",
"192 38 LINE",
"142 38 LINE",
"50 398 LINE",
"96 415 LINE",
"126 437 OFFCURVE",
"151 451 OFFCURVE",
"172 458 CURVE SMOOTH",
"213 471 OFFCURVE",
"234 457 OFFCURVE",
"253 434 CURVE SMOOTH",
"272 411 OFFCURVE",
"294 384 OFFCURVE",
"324 368 CURVE SMOOTH",
"354 351 OFFCURVE",
"411 352 OFFCURVE",
"487 383 CURVE SMOOTH"
);
}
);
width = 551;
}
);
unicode = 2691;
},
{
glyphname = blackNib;
layers = (
{
layerId = "772A128A-47C6-487B-8519-986DC341ECA7";
name = Regular;
paths = (
{
closed = 1;
nodes = (
"77 -7 OFFCURVE",
"59 2 OFFCURVE",
"60 19 CURVE SMOOTH",
"61 52 OFFCURVE",
"70 90 OFFCURVE",
"85 132 CURVE",
"52 183 OFFCURVE",
"43 236 OFFCURVE",
"59 290 CURVE",
"66 269 OFFCURVE",
"82 234 OFFCURVE",
"97 211 CURVE SMOOTH",
"104 200 OFFCURVE",
"110 195 OFFCURVE",
"113 196 CURVE SMOOTH",
"116 197 OFFCURVE",
"116 211 OFFCURVE",
"113 238 CURVE SMOOTH",
"108 290 OFFCURVE",
"101 352 OFFCURVE",
"120 399 CURVE",
"135 428 OFFCURVE",
"181 468 OFFCURVE",
"212 481 CURVE",
"196 450 OFFCURVE",
"190 415 OFFCURVE",
"194 395 CURVE",
"195 385 OFFCURVE",
"199 380 OFFCURVE",
"204 379 CURVE",
"208 379 OFFCURVE",
"222 399 OFFCURVE",
"246 439 CURVE SMOOTH",
"294 519 OFFCURVE",
"311 508 OFFCURVE",
"356 486 CURVE SMOOTH",
"401 464 OFFCURVE",
"405 450 OFFCURVE",
"397 414 CURVE SMOOTH",
"389 377 OFFCURVE",
"372 353 OFFCURVE",
"304 341 CURVE SMOOTH",
"270 335 OFFCURVE",
"251 331 OFFCURVE",
"247 329 CURVE",
"242 326 OFFCURVE",
"244 320 OFFCURVE",
"253 312 CURVE SMOOTH",
"271 296 OFFCURVE",
"300 293 OFFCURVE",
"341 302 CURVE",
"304 249 OFFCURVE",
"242 229 OFFCURVE",
"207 226 CURVE SMOOTH",
"172 223 OFFCURVE",
"169 214 OFFCURVE",
"205 194 CURVE SMOOTH",
"222 184 OFFCURVE",
"239 182 OFFCURVE",
"255 187 CURVE",
"235 150 OFFCURVE",
"211 132 OFFCURVE",
"197 128 CURVE",
"190 125 OFFCURVE",
"177 123 OFFCURVE",
"159 122 CURVE SMOOTH",
"140 121 OFFCURVE",
"126 119 OFFCURVE",
"116 118 CURVE",
"109 97 OFFCURVE",
"98 59 OFFCURVE",
"81 6 CURVE SMOOTH"
);
}
);
width = 450;
}
);
unicode = 2712;
},
{
glyphname = blackQuestionOrnament;
layers = (
{
layerId = "772A128A-47C6-487B-8519-986DC341ECA7";
name = Regular;
paths = (
{
closed = 1;
nodes = (
"326 424 OFFCURVE",
"340 394 OFFCURVE",
"340 353 CURVE SMOOTH",
"340 310 OFFCURVE",
"326 291 OFFCURVE",
"275 251 CURVE",
"252 236 LINE",
"225 213 OFFCURVE",
"225 203 OFFCURVE",
"224 184 CURVE",
"224 179 OFFCURVE",
"221 177 OFFCURVE",
"216 177 CURVE SMOOTH",
"152 177 LINE SMOOTH",
"147 177 OFFCURVE",
"144 179 OFFCURVE",
"144 183 CURVE SMOOTH",
"145 216 OFFCURVE",
"150 236 OFFCURVE",
"158 245 CURVE",
"169 260 OFFCURVE",
"194 279 OFFCURVE",
"210 290 CURVE",
"222 297 LINE",
"237 308 OFFCURVE",
"253 332 OFFCURVE",
"253 349 CURVE SMOOTH",
"253 376 OFFCURVE",
"237 406 OFFCURVE",
"194 406 CURVE SMOOTH",
"149 406 OFFCURVE",
"133 371 OFFCURVE",
"133 338 CURVE",
"50 338 LINE",
"54 446 OFFCURVE",
"126 475 OFFCURVE",
"190 475 CURVE SMOOTH",
"233 475 OFFCURVE",
"269 465 OFFCURVE",
"297 445 CURVE SMOOTH"
);
},
{
closed = 1;
nodes = (
"218 127 OFFCURVE",
"240 104 OFFCURVE",
"239 75 CURVE SMOOTH",
"238 44 OFFCURVE",
"215 25 OFFCURVE",
"186 26 CURVE SMOOTH",
"157 26 OFFCURVE",
"135 47 OFFCURVE",
"136 78 CURVE SMOOTH",
"137 109 OFFCURVE",
"160 128 OFFCURVE",
"189 127 CURVE SMOOTH"
);
}
);
width = 390;
}
);
unicode = 2753;
},
{
glyphname = blackRightwardsArrow;
layers = (
{
layerId = "772A128A-47C6-487B-8519-986DC341ECA7";
name = Regular;
paths = (
{
closed = 1;
nodes = (
"225 415 LINE",
"415 250 LINE",
"225 85 LINE",
"225 181 LINE",
"50 181 LINE",
"50 320 LINE",
"225 320 LINE"
);
}
);
width = 465;
}
);
unicode = 27A1;
},
{
glyphname = blackstar;
layers = (
{
layerId = "772A128A-47C6-487B-8519-986DC341ECA7";
name = Regular;
paths = (
{
closed = 1;
nodes = (
"270 470 LINE",
"330 302 LINE",
"490 302 LINE",
"359 204 LINE",
"406 30 LINE",
"270 134 LINE",
"134 30 LINE",
"181 204 LINE",
"50 302 LINE",
"210 302 LINE"
);
}
);
width = 540;
}
);
unicode = 2B51;
},
{
glyphname = bookmark;
layers = (
{
layerId = "772A128A-47C6-487B-8519-986DC341ECA7";
name = Regular;
paths = (
{
closed = 1;
nodes = (
"205 475 LINE SMOOTH",
"220 475 OFFCURVE",
"230 463 OFFCURVE",
"230 450 CURVE SMOOTH",
"230 25 LINE",
"140 115 LINE",
"50 25 LINE",
"50 450 LINE SMOOTH",
"50 467 OFFCURVE",
"57 475 OFFCURVE",
"70 475 CURVE SMOOTH"
);
}
);
width = 280;
}
);
unicode = 1F516;
},
{
glyphname = bookmarkTabs;
layers = (
{
layerId = "772A128A-47C6-487B-8519-986DC341ECA7";
name = Regular;
paths = (
{
closed = 1;
nodes = (
"300 500 LINE SMOOTH",
"313 500 OFFCURVE",
"325 488 OFFCURVE",
"325 475 CURVE SMOOTH",
"325 50 LINE",
"250 140 LINE",
"250 450 LINE SMOOTH",
"250 463 OFFCURVE",
"238 475 OFFCURVE",
"225 475 CURVE SMOOTH",
"175 475 LINE",
"175 492 OFFCURVE",
"182 500 OFFCURVE",
"195 500 CURVE SMOOTH"
);
},
{
closed = 1;
nodes = (
"175 425 LINE SMOOTH",
"188 425 OFFCURVE",
"200 413 OFFCURVE",
"200 400 CURVE SMOOTH",
"200 0 LINE",
"125 90 LINE",
"50 0 LINE",
"50 400 LINE SMOOTH",
"50 417 OFFCURVE",
"57 425 OFFCURVE",
"70 425 CURVE SMOOTH"
);
}
);
width = 375;
}
);
unicode = 1F4D1;
},
{
glyphname = briefcase;
layers = (
{
layerId = "772A128A-47C6-487B-8519-986DC341ECA7";
name = Regular;
paths = (
{
closed = 1;
nodes = (
"278 238 LINE",
"278 188 LINE",
"50 188 LINE",
"53 263 OFFCURVE",
"54 312 OFFCURVE",
"55 334 CURVE SMOOTH",
"56 370 OFFCURVE",
"73 388 OFFCURVE",
"105 388 CURVE SMOOTH",
"185 388 LINE",
"196 405 OFFCURVE",
"214 441 OFFCURVE",
"215 444 CURVE",
"224 461 OFFCURVE",
"226 463 OFFCURVE",
"245 463 CURVE SMOOTH",
"356 463 LINE SMOOTH",
"373 463 OFFCURVE",
"377 460 OFFCURVE",
"385 444 CURVE",
"391 433 OFFCURVE",
"401 415 OFFCURVE",
"415 388 CURVE",
"495 388 LINE SMOOTH",
"527 388 OFFCURVE",
"544 370 OFFCURVE",
"545 334 CURVE SMOOTH",
"550 188 LINE",
"323 188 LINE",
"323 238 LINE"
);
},
{
closed = 1;
nodes = (
"227 388 LINE",
"373 388 LINE",
"359 415 LINE SMOOTH",
"354 424 OFFCURVE",
"347 428 OFFCURVE",
"338 428 CURVE SMOOTH",
"262 428 LINE SMOOTH",
"253 428 OFFCURVE",
"246 424 OFFCURVE",
"241 415 CURVE SMOOTH"
);
},
{
closed = 1;
nodes = (
"323 113 LINE",
"323 163 LINE",
"538 163 LINE",
"536 134 OFFCURVE",
"534 106 OFFCURVE",
"533 80 CURVE SMOOTH",
"531 52 OFFCURVE",
"516 38 OFFCURVE",
"488 38 CURVE SMOOTH",
"113 38 LINE SMOOTH",
"83 38 OFFCURVE",
"68 52 OFFCURVE",
"68 80 CURVE",
"63 163 LINE",
"278 163 LINE",
"278 113 LINE"
);
}
);
width = 600;
}
);
unicode = 1F4BC;
},
{
glyphname = bustInSilhouette;
layers = (
{
layerId = "772A128A-47C6-487B-8519-986DC341ECA7";
name = Regular;
paths = (
{
closed = 1;
nodes = (
"486 115 OFFCURVE",
"520 95 OFFCURVE",
"520 78 CURVE SMOOTH",
"520 25 LINE",
"285 25 LINE",
"50 25 LINE",
"50 78 LINE SMOOTH",
"50 95 OFFCURVE",
"84 115 OFFCURVE",
"152 139 CURVE SMOOTH",
"215 162 OFFCURVE",
"233 181 OFFCURVE",
"233 221 CURVE SMOOTH",
"233 228 OFFCURVE",
"229 237 OFFCURVE",
"222 246 CURVE SMOOTH",
"215 255 OFFCURVE",
"209 267 OFFCURVE",
"206 282 CURVE",
"205 290 OFFCURVE",
"199 294 OFFCURVE",
"195 295 CURVE",
"192 296 OFFCURVE",
"190 299 OFFCURVE",
"188 304 CURVE",
"183 314 OFFCURVE",
"182 331 OFFCURVE",
"186 338 CURVE",
"187 341 OFFCURVE",
"189 343 OFFCURVE",
"190 344 CURVE SMOOTH",
"192 346 LINE",
"187 379 OFFCURVE",
"177 407 OFFCURVE",
"207 446 CURVE SMOOTH",
"222 465 OFFCURVE",
"248 475 OFFCURVE",
"285 475 CURVE SMOOTH",
"360 475 OFFCURVE",
"388 426 OFFCURVE",
"384 390 CURVE SMOOTH",
"378 346 LINE",
"390 341 OFFCURVE",
"387 314 OFFCURVE",
"383 304 CURVE",
"380 299 OFFCURVE",
"378 296 OFFCURVE",
"376 295 CURVE",
"371 294 OFFCURVE",
"365 290 OFFCURVE",
"364 282 CURVE",
"361 266 OFFCURVE",
"356 254 OFFCURVE",
"349 245 CURVE",
"341 236 OFFCURVE",
"337 228 OFFCURVE",
"337 221 CURVE SMOOTH",
"337 181 OFFCURVE",
"357 162 OFFCURVE",
"418 139 CURVE SMOOTH"
);
}
);
width = 570;
}
);
unicode = 1F464;
},
{
glyphname = bustsInSilhouette;
layers = (
{
layerId = "772A128A-47C6-487B-8519-986DC341ECA7";
name = Regular;
paths = (
{
closed = 1;
nodes = (
"550 30 LINE",
"438 30 LINE",
"438 105 LINE SMOOTH",
"438 123 OFFCURVE",
"433 137 OFFCURVE",
"423 146 CURVE SMOOTH",
"413 155 OFFCURVE",
"387 169 OFFCURVE",
"346 190 CURVE",
"359 200 OFFCURVE",
"366 214 OFFCURVE",
"366 232 CURVE SMOOTH",
"366 237 OFFCURVE",
"364 243 OFFCURVE",
"360 249 CURVE",
"355 254 OFFCURVE",
"352 263 OFFCURVE",
"350 274 CURVE",
"349 277 OFFCURVE",
"347 279 OFFCURVE",
"343 282 CURVE",
"335 287 OFFCURVE",
"334 314 OFFCURVE",
"342 318 CURVE",
"338 341 OFFCURVE",
"332 360 OFFCURVE",
"350 387 CURVE SMOOTH",
"359 400 OFFCURVE",
"374 407 OFFCURVE",
"397 407 CURVE SMOOTH",
"442 407 OFFCURVE",
"460 373 OFFCURVE",
"457 348 CURVE SMOOTH",
"453 318 LINE",
"461 314 OFFCURVE",
"460 287 OFFCURVE",
"452 282 CURVE",
"448 279 OFFCURVE",
"446 277 OFFCURVE",
"445 274 CURVE",
"443 263 OFFCURVE",
"440 254 OFFCURVE",
"436 249 CURVE SMOOTH",
"431 243 OFFCURVE",
"429 237 OFFCURVE",
"429 232 CURVE SMOOTH",
"429 204 OFFCURVE",
"441 191 OFFCURVE",
"478 175 CURVE SMOOTH",
"515 160 OFFCURVE",
"537 146 OFFCURVE",
"543 135 CURVE",
"547 130 OFFCURVE",
"549 86 OFFCURVE",
"550 54 CURVE SMOOTH"
);
},
{
closed = 1;
nodes = (
"367 135 OFFCURVE",
"397 114 OFFCURVE",
"397 99 CURVE SMOOTH",
"397 30 LINE",
"50 30 LINE",
"50 122 LINE SMOOTH",
"50 137 OFFCURVE",
"64 150 OFFCURVE",
"92 161 CURVE SMOOTH",
"143 182 OFFCURVE",
"158 200 OFFCURVE",
"158 237 CURVE SMOOTH",
"158 244 OFFCURVE",
"155 251 OFFCURVE",
"149 259 CURVE",
"142 267 OFFCURVE",
"138 278 OFFCURVE",
"136 293 CURVE",
"135 296 OFFCURVE",
"132 300 OFFCURVE",
"127 304 CURVE SMOOTH",
"122 308 OFFCURVE",
"118 317 OFFCURVE",
"117 332 CURVE",
"117 341 OFFCURVE",
"119 347 OFFCURVE",
"122 350 CURVE",
"124 351 LINE",
"120 382 OFFCURVE",
"111 408 OFFCURVE",
"136 444 CURVE SMOOTH",
"148 461 OFFCURVE",
"169 470 OFFCURVE",
"199 470 CURVE SMOOTH",
"259 470 OFFCURVE",
"282 425 OFFCURVE",
"279 392 CURVE SMOOTH",
"274 351 LINE",
"283 346 OFFCURVE",
"282 312 OFFCURVE",
"271 304 CURVE",
"266 300 OFFCURVE",
"263 296 OFFCURVE",
"262 293 CURVE",
"260 278 OFFCURVE",
"256 267 OFFCURVE",
"250 259 CURVE",
"243 251 OFFCURVE",
"240 244 OFFCURVE",
"240 237 CURVE SMOOTH",
"240 200 OFFCURVE",
"255 182 OFFCURVE",
"306 161 CURVE SMOOTH"
);
}
);
width = 600;
}
);
unicode = 1F465;
},
{
glyphname = calendar;
layers = (
{
layerId = "772A128A-47C6-487B-8519-986DC341ECA7";
name = Regular;
paths = (
{
closed = 1;
nodes = (
"450 425 LINE SMOOTH",
"478 425 OFFCURVE",
"500 403 OFFCURVE",
"500 375 CURVE SMOOTH",
"500 75 LINE SMOOTH",
"500 48 OFFCURVE",
"478 25 OFFCURVE",
"450 25 CURVE SMOOTH",
"100 25 LINE SMOOTH",
"73 25 OFFCURVE",
"50 48 OFFCURVE",
"50 75 CURVE SMOOTH",
"50 375 LINE SMOOTH",
"50 403 OFFCURVE",
"73 425 OFFCURVE",
"100 425 CURVE SMOOTH",
"123 425 LINE",
"123 375 LINE",
"203 375 LINE",
"203 425 LINE",
"348 425 LINE",
"348 375 LINE",
"428 375 LINE",
"428 425 LINE"
);
},
{
closed = 1;
nodes = (
"450 75 LINE",
"450 275 LINE",
"100 275 LINE",
"100 75 LINE"
);
},
{
closed = 1;
nodes = (
"180 475 LINE",
"180 390 LINE",
"145 390 LINE",
"145 475 LINE"
);
},
{
closed = 1;
nodes = (
"405 475 LINE",
"405 390 LINE",
"370 390 LINE",
"370 475 LINE"
);
}
);
width = 550;
}
);
unicode = 1F4C5;
},
{
glyphname = camera;
layers = (
{
layerId = "772A128A-47C6-487B-8519-986DC341ECA7";
name = Regular;
paths = (
{
closed = 1;
nodes = (
"343 300 OFFCURVE",
"375 266 OFFCURVE",
"375 225 CURVE SMOOTH",
"375 184 OFFCURVE",
"341 150 OFFCURVE",
"300 150 CURVE SMOOTH",
"259 150 OFFCURVE",
"225 184 OFFCURVE",
"225 225 CURVE SMOOTH",
"225 266 OFFCURVE",
"259 300 OFFCURVE",
"300 300 CURVE SMOOTH"
);
},
{
closed = 1;
nodes = (
"500 375 LINE SMOOTH",
"528 375 OFFCURVE",
"550 353 OFFCURVE",
"550 325 CURVE SMOOTH",
"550 100 LINE SMOOTH",
"550 73 OFFCURVE",
"528 50 OFFCURVE",
"500 50 CURVE SMOOTH",
"100 50 LINE SMOOTH",
"73 50 OFFCURVE",
"50 73 OFFCURVE",
"50 100 CURVE SMOOTH",
"50 325 LINE SMOOTH",
"50 353 OFFCURVE",
"73 375 OFFCURVE",
"100 375 CURVE SMOOTH",
"160 375 LINE SMOOTH",
"169 375 OFFCURVE",
"176 380 OFFCURVE",
"180 390 CURVE",
"195 436 LINE SMOOTH",
"198 445 OFFCURVE",
"205 450 OFFCURVE",
"215 450 CURVE SMOOTH",
"385 450 LINE SMOOTH",
"395 450 OFFCURVE",
"402 445 OFFCURVE",
"405 436 CURVE SMOOTH",
"420 390 LINE",
"424 380 OFFCURVE",
"431 375 OFFCURVE",
"440 375 CURVE SMOOTH"
);
},
{
closed = 1;
nodes = (
"236 112 OFFCURVE",
"265 100 OFFCURVE",
"300 100 CURVE SMOOTH",
"369 100 OFFCURVE",
"425 156 OFFCURVE",
"425 225 CURVE SMOOTH",
"425 294 OFFCURVE",
"369 350 OFFCURVE",
"300 350 CURVE SMOOTH",
"231 350 OFFCURVE",
"175 294 OFFCURVE",
"175 225 CURVE SMOOTH",
"175 190 OFFCURVE",
"187 161 OFFCURVE",
"212 137 CURVE"
);
},
{
closed = 1;
nodes = (
"474 292 OFFCURVE",
"478 290 OFFCURVE",
"483 290 CURVE SMOOTH",
"492 290 OFFCURVE",
"500 299 OFFCURVE",
"500 308 CURVE SMOOTH",
"500 317 OFFCURVE",
"492 325 OFFCURVE",
"483 325 CURVE SMOOTH",
"471 325 OFFCURVE",
"465 319 OFFCURVE",
"465 308 CURVE SMOOTH",
"465 303 OFFCURVE",
"467 298 OFFCURVE",
"471 295 CURVE"
);
}
);
width = 600;
}
);
unicode = 1F4F7;
},
{
glyphname = chartWithUpwardsTrend;
layers = (
{
layerId = "772A128A-47C6-487B-8519-986DC341ECA7";
name = Regular;
paths = (
{
closed = 1;
nodes = (
"67 217 LINE SMOOTH",
"39 224 OFFCURVE",
"49 268 OFFCURVE",
"78 261 CURVE SMOOTH",
"127 249 LINE",
"101 209 LINE"
);
},
{
closed = 1;
nodes = (
"512 211 LINE SMOOTH",
"521 219 OFFCURVE",
"536 218 OFFCURVE",
"544 209 CURVE",
"555 198 OFFCURVE",
"554 188 OFFCURVE",
"543 177 CURVE",
"417 64 LINE",
"413 60 OFFCURVE",
"408 58 OFFCURVE",
"402 58 CURVE SMOOTH",
"397 58 OFFCURVE",
"393 60 OFFCURVE",
"388 63 CURVE",
"245 173 LINE",
"218 180 LINE",
"243 220 LINE",
"261 216 LINE SMOOTH",
"265 215 OFFCURVE",
"268 213 OFFCURVE",
"269 212 CURVE",
"401 110 LINE"
);
},
{
closed = 1;
nodes = (
"267 321 LINE",
"92 46 LINE",
"88 39 OFFCURVE",
"82 35 OFFCURVE",
"73 35 CURVE SMOOTH",
"65 35 OFFCURVE",
"54 41 OFFCURVE",
"51 54 CURVE",
"50 60 OFFCURVE",
"51 65 OFFCURVE",
"54 70 CURVE SMOOTH",
"241 364 LINE",
"246 375 OFFCURVE",
"261 379 OFFCURVE",
"273 371 CURVE SMOOTH",
"396 293 LINE",
"509 456 LINE",
"516 467 OFFCURVE",
"529 469 OFFCURVE",
"540 461 CURVE",
"553 453 OFFCURVE",
"555 443 OFFCURVE",
"546 430 CURVE SMOOTH",
"420 249 LINE SMOOTH",
"412 237 OFFCURVE",
"402 235 OFFCURVE",
"389 243 CURVE SMOOTH"
);
}
);
width = 601;
}
);
unicode = 1F4C8;
},
{
glyphname = checkmark;
layers = (
{
layerId = "772A128A-47C6-487B-8519-986DC341ECA7";
name = Regular;
paths = (
{
closed = 1;
nodes = (
"175 75 LINE",
"164 75 OFFCURVE",
"154 80 OFFCURVE",
"147 89 CURVE SMOOTH",
"57 207 LINE",
"46 223 OFFCURVE",
"49 244 OFFCURVE",
"64 256 CURVE SMOOTH",
"79 268 OFFCURVE",
"101 265 OFFCURVE",
"113 249 CURVE SMOOTH",
"172 172 LINE",
"320 409 LINE",
"331 425 OFFCURVE",
"351 429 OFFCURVE",
"368 420 CURVE",
"384 409 OFFCURVE",
"388 389 OFFCURVE",
"379 372 CURVE",
"204 92 LINE SMOOTH",
"197 81 OFFCURVE",
"188 76 OFFCURVE",
"176 76 CURVE"
);
}
);
width = 435;
}
);
unicode = 2713;
},
{
glyphname = cheeringMegaphone;
layers = (
{
layerId = "772A128A-47C6-487B-8519-986DC341ECA7";
name = Regular;
paths = (
{
closed = 1;
nodes = (
"465 279 OFFCURVE",
"477 236 OFFCURVE",
"480 196 CURVE SMOOTH",
"483 156 OFFCURVE",
"476 133 OFFCURVE",
"460 126 CURVE SMOOTH",
"441 118 OFFCURVE",
"418 131 OFFCURVE",
"397 148 CURVE SMOOTH",
"376 164 OFFCURVE",
"328 177 OFFCURVE",
"273 172 CURVE",
"254 169 OFFCURVE",
"244 159 OFFCURVE",
"249 144 CURVE SMOOTH",
"256 125 OFFCURVE",
"264 107 OFFCURVE",
"272 90 CURVE",
"273 87 OFFCURVE",
"277 83 OFFCURVE",
"284 79 CURVE SMOOTH",
"297 71 OFFCURVE",
"309 54 OFFCURVE",
"285 46 CURVE",
"252 31 OFFCURVE",
"223 12 OFFCURVE",
"207 47 CURVE SMOOTH",
"196 72 OFFCURVE",
"187 94 OFFCURVE",
"178 113 CURVE SMOOTH",
"176 117 OFFCURVE",
"170 120 OFFCURVE",
"161 122 CURVE",
"152 123 OFFCURVE",
"144 128 OFFCURVE",
"138 137 CURVE",
"128 134 OFFCURVE",
"122 131 OFFCURVE",
"119 130 CURVE SMOOTH",
"96 122 OFFCURVE",
"64 142 OFFCURVE",
"55 166 CURVE",
"44 187 OFFCURVE",
"53 227 OFFCURVE",
"74 236 CURVE SMOOTH",
"158 271 OFFCURVE",
"218 310 OFFCURVE",
"243 342 CURVE SMOOTH",
"267 373 OFFCURVE",
"283 405 OFFCURVE",
"285 427 CURVE SMOOTH",
"287 449 OFFCURVE",
"294 467 OFFCURVE",
"310 474 CURVE SMOOTH",
"326 481 OFFCURVE",
"348 469 OFFCURVE",
"375 439 CURVE SMOOTH",
"402 409 OFFCURVE",
"426 371 OFFCURVE",
"446 325 CURVE SMOOTH"
);
},
{
closed = 1;
nodes = (
"433 169 OFFCURVE",
"436 171 OFFCURVE",
"437 194 CURVE SMOOTH",
"438 217 OFFCURVE",
"430 264 OFFCURVE",
"411 307 CURVE SMOOTH",
"392 351 OFFCURVE",
"363 393 OFFCURVE",
"344 411 CURVE SMOOTH",
"325 429 OFFCURVE",
"322 426 OFFCURVE",
"321 401 CURVE SMOOTH",
"320 376 OFFCURVE",
"327 326 OFFCURVE",
"346 282 CURVE SMOOTH",
"365 238 OFFCURVE",
"395 200 OFFCURVE",
"414 185 CURVE SMOOTH"
);
}
);
width = 531;
}
);
unicode = 1F4E3;
},
{
glyphname = clapperBoard;
layers = (
{
layerId = "772A128A-47C6-487B-8519-986DC341ECA7";
name = Regular;
paths = (
{
closed = 1;
nodes = (
"540 375 LINE",
"490 375 LINE",
"490 325 LINE",
"540 325 LINE",
"540 275 LINE",
"490 275 LINE",
"490 225 LINE",
"540 225 LINE",
"540 175 LINE",
"490 175 LINE",
"490 125 LINE",
"540 125 LINE",
"540 95 LINE SMOOTH",
"540 84 OFFCURVE",
"531 75 OFFCURVE",
"520 75 CURVE SMOOTH",
"70 75 LINE SMOOTH",
"59 75 OFFCURVE",
"50 84 OFFCURVE",
"50 95 CURVE SMOOTH",
"50 125 LINE",
"100 125 LINE",
"100 175 LINE",
"50 175 LINE",
"50 225 LINE",
"100 225 LINE",
"100 275 LINE",
"50 275 LINE",
"50 325 LINE",
"100 325 LINE",
"100 375 LINE",
"50 375 LINE",
"50 405 LINE SMOOTH",
"50 417 OFFCURVE",
"59 425 OFFCURVE",
"70 425 CURVE SMOOTH",
"520 425 LINE SMOOTH",
"531 425 OFFCURVE",
"540 417 OFFCURVE",
"540 405 CURVE SMOOTH"
);
},
{
closed = 1;
nodes = (
"240 175 LINE",
"365 250 LINE",
"240 325 LINE"
);
}
);
width = 590;
}
);
unicode = 1F3AC;
},
{
glyphname = clipboard;
layers = (
{
layerId = "772A128A-47C6-487B-8519-986DC341ECA7";
name = Regular;
paths = (
{
closed = 1;
nodes = (
"365 450 LINE",
"384 450 OFFCURVE",
"400 434 OFFCURVE",
"400 415 CURVE SMOOTH",
"400 35 LINE SMOOTH",
"400 15 OFFCURVE",
"384 0 OFFCURVE",
"365 0 CURVE SMOOTH",
"85 0 LINE SMOOTH",
"66 0 OFFCURVE",
"50 15 OFFCURVE",
"50 35 CURVE SMOOTH",
"50 415 LINE SMOOTH",
"50 434 OFFCURVE",
"66 450 OFFCURVE",
"85 450 CURVE",
"115 375 LINE",
"335 375 LINE"
);
},
{
closed = 1;
nodes = (
"315 400 LINE",
"135 400 LINE",
"113 450 LINE",
"167 450 LINE",
"185 500 LINE",
"265 500 LINE",
"283 450 LINE",
"338 450 LINE"
);
}
);
width = 450;
}
);
unicode = 1F4CB;
},
{
glyphname = clockFaceFiveOclock;
layers = (
{
layerId = "772A128A-47C6-487B-8519-986DC341ECA7";
name = Regular;
paths = (
{
closed = 1;
nodes = (
"163 458 OFFCURVE",
"217 480 OFFCURVE",
"280 480 CURVE SMOOTH",
"407 480 OFFCURVE",
"510 377 OFFCURVE",
"510 250 CURVE SMOOTH",
"510 123 OFFCURVE",
"407 20 OFFCURVE",
"280 20 CURVE SMOOTH",
"153 20 OFFCURVE",
"50 123 OFFCURVE",
"50 250 CURVE SMOOTH",
"50 313 OFFCURVE",
"73 368 OFFCURVE",
"118 413 CURVE SMOOTH"
);
},
{
closed = 1;
nodes = (
"380 70 OFFCURVE",
"460 151 OFFCURVE",
"460 250 CURVE SMOOTH",
"460 350 OFFCURVE",
"380 430 OFFCURVE",
"280 430 CURVE SMOOTH",
"181 430 OFFCURVE",
"100 350 OFFCURVE",
"100 250 CURVE SMOOTH",
"100 151 OFFCURVE",
"181 70 OFFCURVE",
"280 70 CURVE SMOOTH"
);
},
{
closed = 1;
nodes = (
"298 380 LINE",
"298 258 LINE",
"373 183 LINE",
"348 158 LINE",
"263 243 LINE",
"263 380 LINE"
);
}
);
width = 560;
}
);
unicode = 1F554;
},
{
glyphname = clockwiseRightwardsAndLeftwardsOpenCircleArrows;
layers = (
{
layerId = "772A128A-47C6-487B-8519-986DC341ECA7";
name = Regular;
paths = (
{
closed = 1;
nodes = (
"450 345 LINE SMOOTH",
"478 345 OFFCURVE",
"500 323 OFFCURVE",
"500 295 CURVE SMOOTH",
"500 150 LINE SMOOTH",
"500 123 OFFCURVE",
"478 100 OFFCURVE",
"450 100 CURVE SMOOTH",
"100 100 LINE SMOOTH",
"73 100 OFFCURVE",
"50 123 OFFCURVE",
"50 150 CURVE SMOOTH",
"50 295 LINE SMOOTH",
"50 323 OFFCURVE",
"73 345 OFFCURVE",
"100 345 CURVE SMOOTH",
"225 345 LINE",
"225 400 LINE",
"325 310 LINE",
"225 220 LINE",
"225 275 LINE",
"120 275 LINE",
"120 170 LINE",
"430 170 LINE",
"430 275 LINE",
"355 275 LINE",
"355 345 LINE"
);
}
);
width = 550;
}
);
unicode = 1F501;
},
{
glyphname = closedBook;
layers = (
{
layerId = "772A128A-47C6-487B-8519-986DC341ECA7";
name = Regular;
paths = (
{
closed = 1;
nodes = (
"391 372 LINE SMOOTH",
"397 369 OFFCURVE",
"400 365 OFFCURVE",
"400 358 CURVE SMOOTH",
"400 77 LINE SMOOTH",
"400 68 OFFCURVE",
"391 59 OFFCURVE",
"380 59 CURVE SMOOTH",
"365 59 OFFCURVE",
"357 65 OFFCURVE",
"357 77 CURVE SMOOTH",
"357 338 LINE SMOOTH",
"357 342 OFFCURVE",
"355 345 OFFCURVE",
"351 347 CURVE SMOOTH",
"149 455 LINE",
"128 462 OFFCURVE",
"95 444 OFFCURVE",
"87 428 CURVE",
"291 314 LINE",
"297 311 OFFCURVE",
"300 307 OFFCURVE",
"300 300 CURVE SMOOTH",
"300 25 LINE SMOOTH",
"300 18 OFFCURVE",
"297 13 OFFCURVE",
"291 11 CURVE",
"289 10 OFFCURVE",
"286 9 OFFCURVE",
"283 9 CURVE SMOOTH",
"278 9 OFFCURVE",
"275 10 OFFCURVE",
"273 11 CURVE",
"268 15 OFFCURVE",
"78 133 OFFCURVE",
"66 140 CURVE",
"57 146 OFFCURVE",
"53 152 OFFCURVE",
"53 157 CURVE",
"50 419 LINE",
"50 428 OFFCURVE",
"52 437 OFFCURVE",
"57 445 CURVE SMOOTH",
"76 476 OFFCURVE",
"138 503 OFFCURVE",
"166 488 CURVE SMOOTH"
);
}
);
width = 450;
}
);
unicode = 1F4D5;
},
{
glyphname = cloud;
layers = (
{
layerId = "772A128A-47C6-487B-8519-986DC341ECA7";
name = Regular;
paths = (
{
closed = 1;
nodes = (
"497 322 OFFCURVE",
"550 270 OFFCURVE",
"550 205 CURVE SMOOTH",
"550 140 OFFCURVE",
"497 88 OFFCURVE",
"430 88 CURVE SMOOTH",
"141 88 LINE SMOOTH",
"92 88 OFFCURVE",
"50 128 OFFCURVE",
"50 176 CURVE SMOOTH",
"50 225 OFFCURVE",
"90 265 OFFCURVE",
"141 265 CURVE SMOOTH",
"142 265 OFFCURVE",
"143 265 OFFCURVE",
"146 265 CURVE",
"149 264 OFFCURVE",
"150 264 OFFCURVE",
"151 264 CURVE",
"150 268 OFFCURVE",
"150 274 OFFCURVE",
"150 283 CURVE SMOOTH",
"150 355 OFFCURVE",
"210 413 OFFCURVE",
"283 413 CURVE SMOOTH",
"343 413 OFFCURVE",
"394 375 OFFCURVE",
"410 320 CURVE",
"419 321 OFFCURVE",
"426 322 OFFCURVE",
"430 322 CURVE SMOOTH"
);
}
);
width = 600;
}
);
unicode = 2601;
},
{
glyphname = collisionSymbol;
layers = (
{
layerId = "772A128A-47C6-487B-8519-986DC341ECA7";
name = Regular;
paths = (
{
closed = 1;
nodes = (
"493 192 LINE SMOOTH",
"506 181 OFFCURVE",
"503 168 OFFCURVE",
"487 164 CURVE SMOOTH",
"448 153 LINE SMOOTH",
"432 149 OFFCURVE",
"420 132 OFFCURVE",
"421 115 CURVE SMOOTH",
"423 74 LINE SMOOTH",
"424 58 OFFCURVE",
"412 50 OFFCURVE",
"397 57 CURVE",
"354 79 LINE SMOOTH",
"339 87 OFFCURVE",
"320 81 OFFCURVE",
"313 66 CURVE",
"290 22 LINE SMOOTH",
"282 7 OFFCURVE",
"270 7 OFFCURVE",
"259 20 CURVE",
"234 59 LINE SMOOTH",
"223 75 OFFCURVE",
"208 78 OFFCURVE",
"190 69 CURVE",
"129 34 LINE SMOOTH",
"114 25 OFFCURVE",
"107 31 OFFCURVE",
"112 47 CURVE SMOOTH",
"139 129 LINE SMOOTH",
"144 145 OFFCURVE",
"135 161 OFFCURVE",
"119 162 CURVE",
"66 168 LINE",
"50 171 OFFCURVE",
"46 181 OFFCURVE",
"59 192 CURVE SMOOTH",
"102 230 LINE",
"109 235 OFFCURVE",
"112 242 OFFCURVE",
"112 251 CURVE SMOOTH",
"112 259 OFFCURVE",
"109 266 OFFCURVE",
"102 271 CURVE",
"59 309 LINE SMOOTH",
"46 320 OFFCURVE",
"49 333 OFFCURVE",
"65 337 CURVE SMOOTH",
"104 348 LINE SMOOTH",
"120 352 OFFCURVE",
"133 369 OFFCURVE",
"132 386 CURVE SMOOTH",
"129 427 LINE",
"129 444 OFFCURVE",
"140 452 OFFCURVE",
"155 445 CURVE SMOOTH",
"195 426 LINE SMOOTH",
"211 419 OFFCURVE",
"230 425 OFFCURVE",
"238 440 CURVE SMOOTH",
"261 480 LINE SMOOTH",
"269 495 OFFCURVE",
"283 494 OFFCURVE",
"291 479 CURVE",
"316 436 LINE",
"324 421 OFFCURVE",
"341 416 OFFCURVE",
"356 425 CURVE SMOOTH",
"424 467 LINE SMOOTH",
"439 476 OFFCURVE",
"444 470 OFFCURVE",
"439 454 CURVE",
"409 369 LINE",
"402 354 OFFCURVE",
"412 339 OFFCURVE",
"429 338 CURVE",
"486 332 LINE",
"503 331 OFFCURVE",
"506 320 OFFCURVE",
"493 309 CURVE SMOOTH",
"450 271 LINE SMOOTH",
"444 266 OFFCURVE",
"441 259 OFFCURVE",
"441 251 CURVE SMOOTH",
"441 242 OFFCURVE",
"444 235 OFFCURVE",
"450 230 CURVE SMOOTH"
);
},
{
closed = 1;
nodes = (
"301 146 LINE",
"301 198 LINE",
"251 198 LINE",
"251 146 LINE"
);
},
{
closed = 1;
nodes = (
"301 226 LINE",
"301 356 LINE",
"251 356 LINE",
"251 226 LINE"
);
}
);
width = 552;
}
);
unicode = 1F4A5;
},
{
glyphname = creditCard;
layers = (
{
layerId = "772A128A-47C6-487B-8519-986DC341ECA7";
name = Regular;
paths = (
{
closed = 1;
nodes = (
"500 425 LINE SMOOTH",
"528 425 OFFCURVE",
"550 402 OFFCURVE",
"550 375 CURVE SMOOTH",
"550 125 LINE SMOOTH",
"550 97 OFFCURVE",
"528 75 OFFCURVE",
"500 75 CURVE SMOOTH",
"100 75 LINE SMOOTH",
"73 75 OFFCURVE",
"50 97 OFFCURVE",
"50 125 CURVE SMOOTH",
"50 375 LINE SMOOTH",
"50 402 OFFCURVE",
"73 425 OFFCURVE",
"100 425 CURVE SMOOTH"
);
},
{
closed = 1;
nodes = (
"500 125 LINE",
"500 275 LINE",
"100 275 LINE",
"100 125 LINE"
);
},
{
closed = 1;
nodes = (
"500 350 LINE",
"500 375 LINE",
"100 375 LINE",
"100 350 LINE"
);
},
{
closed = 1;
nodes = (
"150 222 LINE",
"165 222 LINE",
"165 207 LINE",
"150 207 LINE"
);
},
{
closed = 1;
nodes = (
"240 192 LINE",
"255 192 LINE",
"255 207 LINE",
"270 207 LINE",
"270 222 LINE",
"300 222 LINE",
"300 207 LINE",
"285 207 LINE",
"285 192 LINE",
"270 192 LINE",
"270 177 LINE",
"240 177 LINE"
);
},
{
closed = 1;
nodes = (
"300 177 LINE",
"285 177 LINE",
"285 192 LINE",
"300 192 LINE"
);
},
{
closed = 1;
nodes = (
"225 177 LINE",
"195 177 LINE",
"195 192 LINE",
"225 192 LINE"
);
},
{
closed = 1;
nodes = (
"240 207 LINE",
"240 192 LINE",
"225 192 LINE",
"225 222 LINE",
"255 222 LINE",
"255 207 LINE"
);
},
{
closed = 1;
nodes = (
"180 192 LINE",
"180 177 LINE",
"150 177 LINE",
"150 192 LINE",
"165 192 LINE",
"165 207 LINE",
"180 207 LINE",
"180 222 LINE",
"210 222 LINE",
"210 207 LINE",
"195 207 LINE",
"195 192 LINE"
);
}
);
width = 600;
}
);
unicode = 1F4B3;
},
{
glyphname = cross;
layers = (
{
layerId = "772A128A-47C6-487B-8519-986DC341ECA7";
name = Regular;
paths = (
{
closed = 1;
nodes = (
"277 172 LINE",
"283 166 OFFCURVE",
"286 159 OFFCURVE",
"286 151 CURVE SMOOTH",
"286 134 OFFCURVE",
"272 121 OFFCURVE",
"256 121 CURVE SMOOTH",
"247 121 OFFCURVE",
"240 124 OFFCURVE",
"234 129 CURVE",
"168 205 LINE",
"102 129 LINE",
"96 124 OFFCURVE",
"89 121 OFFCURVE",
"81 121 CURVE SMOOTH",
"64 121 OFFCURVE",
"51 134 OFFCURVE",
"51 151 CURVE SMOOTH",
"51 159 OFFCURVE",
"54 166 OFFCURVE",
"59 172 CURVE SMOOTH",
"128 250 LINE",
"59 329 LINE SMOOTH",
"54 335 OFFCURVE",
"51 342 OFFCURVE",
"51 351 CURVE SMOOTH",
"51 367 OFFCURVE",
"64 380 OFFCURVE",
"81 380 CURVE SMOOTH",
"89 380 OFFCURVE",
"96 377 OFFCURVE",
"102 372 CURVE",
"168 296 LINE",
"234 372 LINE",
"240 377 OFFCURVE",
"247 380 OFFCURVE",
"256 380 CURVE SMOOTH",
"272 380 OFFCURVE",
"286 367 OFFCURVE",
"286 351 CURVE SMOOTH",
"286 342 OFFCURVE",
"283 335 OFFCURVE",
"277 329 CURVE",
"208 250 LINE"
);
}
);
width = 336;
}
);
unicode = 271D;
},
{
glyphname = dashSymbol;
layers = (
{
layerId = "772A128A-47C6-487B-8519-986DC341ECA7";
name = Regular;
paths = (
{
closed = 1;
nodes = (
"81 333 OFFCURVE",
"66 334 OFFCURVE",
"57 345 CURVE",
"48 354 OFFCURVE",
"49 372 OFFCURVE",
"60 381 CURVE SMOOTH",
"92 408 OFFCURVE",
"105 418 OFFCURVE",
"144 431 CURVE SMOOTH",
"183 444 OFFCURVE",
"229 433 OFFCURVE",
"288 400 CURVE SMOOTH",
"347 367 OFFCURVE",
"394 369 OFFCURVE",
"416 382 CURVE SMOOTH",
"427 388 OFFCURVE",
"441 399 OFFCURVE",
"460 415 CURVE SMOOTH",
"485 435 OFFCURVE",
"517 397 OFFCURVE",
"492 376 CURVE",
"451 339 OFFCURVE",
"412 321 OFFCURVE",
"375 321 CURVE SMOOTH",
"342 321 OFFCURVE",
"305 333 OFFCURVE",
"264 356 CURVE SMOOTH",
"219 381 OFFCURVE",
"186 391 OFFCURVE",
"158 382 CURVE SMOOTH",
"130 373 OFFCURVE",
"121 366 OFFCURVE",
"92 342 CURVE SMOOTH"
);
},
{
closed = 1;
nodes = (
"485 308 OFFCURVE",
"517 269 OFFCURVE",
"492 248 CURVE SMOOTH",
"465 225 OFFCURVE",
"455 215 OFFCURVE",
"424 203 CURVE",
"408 196 OFFCURVE",
"392 193 OFFCURVE",
"375 193 CURVE SMOOTH",
"343 193 OFFCURVE",
"306 205 OFFCURVE",
"264 228 CURVE SMOOTH",
"219 253 OFFCURVE",
"186 263 OFFCURVE",
"158 254 CURVE SMOOTH",
"130 245 OFFCURVE",
"121 238 OFFCURVE",
"92 214 CURVE",
"83 205 OFFCURVE",
"66 206 OFFCURVE",
"57 217 CURVE SMOOTH",
"36 244 OFFCURVE",
"75 267 OFFCURVE",
"90 278 CURVE SMOOTH",
"105 289 OFFCURVE",
"141 308 OFFCURVE",
"169 309 CURVE",
"196 309 OFFCURVE",
"241 300 OFFCURVE",
"288 273 CURVE SMOOTH",
"333 248 OFFCURVE",
"366 238 OFFCURVE",
"394 247 CURVE SMOOTH",
"422 256 OFFCURVE",
"431 263 OFFCURVE",
"460 287 CURVE SMOOTH"
);
},
{
closed = 1;
nodes = (
"473 170 OFFCURVE",
"484 169 OFFCURVE",
"495 156 CURVE",
"504 147 OFFCURVE",
"503 129 OFFCURVE",
"492 120 CURVE SMOOTH",
"465 97 OFFCURVE",
"455 87 OFFCURVE",
"424 75 CURVE",
"408 68 OFFCURVE",
"392 65 OFFCURVE",
"375 65 CURVE SMOOTH",
"343 65 OFFCURVE",
"306 77 OFFCURVE",
"264 100 CURVE SMOOTH",
"219 125 OFFCURVE",
"186 135 OFFCURVE",
"158 127 CURVE SMOOTH",
"130 118 OFFCURVE",
"120 110 OFFCURVE",
"92 86 CURVE",
"83 77 OFFCURVE",
"66 78 OFFCURVE",
"57 89 CURVE SMOOTH",
"36 116 OFFCURVE",
"75 139 OFFCURVE",
"90 150 CURVE SMOOTH",
"105 161 OFFCURVE",
"141 180 OFFCURVE",
"169 181 CURVE",
"196 181 OFFCURVE",
"241 172 OFFCURVE",
"288 145 CURVE SMOOTH",
"333 120 OFFCURVE",
"366 110 OFFCURVE",
"394 119 CURVE SMOOTH",
"422 128 OFFCURVE",
"431 135 OFFCURVE",
"460 159 CURVE SMOOTH"
);
}
);
width = 552;
}
);
unicode = 1F4A8;
},
{
glyphname = deleteLeftKey;
layers = (
{
layerId = "772A128A-47C6-487B-8519-986DC341ECA7";
name = Regular;
paths = (
{
closed = 1;
nodes = (
"500 425 LINE SMOOTH",
"528 425 OFFCURVE",
"550 403 OFFCURVE",
"550 375 CURVE SMOOTH",
"550 125 LINE SMOOTH",
"550 98 OFFCURVE",
"528 75 OFFCURVE",
"500 75 CURVE SMOOTH",
"261 75 LINE SMOOTH",
"248 75 OFFCURVE",
"237 80 OFFCURVE",
"226 89 CURVE SMOOTH",
"56 237 LINE",
"47 246 OFFCURVE",
"47 255 OFFCURVE",
"56 264 CURVE",
"226 412 LINE SMOOTH",
"236 421 OFFCURVE",
"248 425 OFFCURVE",
"261 425 CURVE SMOOTH"
);
},
{
closed = 1;
nodes = (
"430 150 LINE",
"466 187 LINE",
"402 250 LINE",
"466 314 LINE",
"430 350 LINE",
"366 287 LINE",
"302 350 LINE",
"266 314 LINE",
"330 250 LINE",
"266 187 LINE",
"302 150 LINE",
"366 214 LINE"
);
}
);
width = 600;
}
);
unicode = 232B;
},
{
glyphname = digramForGreaterYin;
layers = (
{
layerId = "772A128A-47C6-487B-8519-986DC341ECA7";
name = Regular;
paths = (
{
closed = 1;
nodes = (
"135 400 LINE SMOOTH",
"162 400 OFFCURVE",
"175 387 OFFCURVE",
"175 360 CURVE SMOOTH",
"175 315 LINE SMOOTH",
"175 288 OFFCURVE",
"162 275 OFFCURVE",
"135 275 CURVE SMOOTH",
"90 275 LINE SMOOTH",
"63 275 OFFCURVE",
"50 288 OFFCURVE",
"50 315 CURVE SMOOTH",
"50 360 LINE SMOOTH",
"50 387 OFFCURVE",
"63 400 OFFCURVE",
"90 400 CURVE SMOOTH"
);
},
{
closed = 1;
nodes = (
"310 400 LINE SMOOTH",
"337 400 OFFCURVE",
"350 387 OFFCURVE",
"350 360 CURVE SMOOTH",
"350 315 LINE SMOOTH",
"350 288 OFFCURVE",
"337 275 OFFCURVE",
"310 275 CURVE SMOOTH",
"265 275 LINE SMOOTH",
"238 275 OFFCURVE",
"225 288 OFFCURVE",
"225 315 CURVE SMOOTH",
"225 360 LINE SMOOTH",
"225 387 OFFCURVE",
"238 400 OFFCURVE",
"265 400 CURVE SMOOTH"
);
},
{
closed = 1;
nodes = (
"135 225 LINE SMOOTH",
"162 225 OFFCURVE",
"175 212 OFFCURVE",
"175 185 CURVE SMOOTH",
"175 140 LINE SMOOTH",
"175 113 OFFCURVE",
"162 100 OFFCURVE",
"135 100 CURVE SMOOTH",
"90 100 LINE SMOOTH",
"63 100 OFFCURVE",
"50 113 OFFCURVE",
"50 140 CURVE SMOOTH",
"50 185 LINE SMOOTH",
"50 212 OFFCURVE",
"63 225 OFFCURVE",
"90 225 CURVE SMOOTH"
);
},
{
closed = 1;
nodes = (
"310 225 LINE SMOOTH",
"337 225 OFFCURVE",
"350 212 OFFCURVE",
"350 185 CURVE SMOOTH",
"350 140 LINE SMOOTH",
"350 113 OFFCURVE",
"337 100 OFFCURVE",
"310 100 CURVE SMOOTH",
"265 100 LINE SMOOTH",
"238 100 OFFCURVE",
"225 113 OFFCURVE",
"225 140 CURVE SMOOTH",
"225 185 LINE SMOOTH",
"225 212 OFFCURVE",
"238 225 OFFCURVE",
"265 225 CURVE SMOOTH"
);
}
);
width = 400;
}
);
unicode = 268F;
},
{
glyphname = directHit;
layers = (
{
layerId = "772A128A-47C6-487B-8519-986DC341ECA7";
name = Regular;
paths = (
{
closed = 1;
nodes = (
"155 444 OFFCURVE",
"206 465 OFFCURVE",
"265 465 CURVE SMOOTH",
"384 465 OFFCURVE",
"480 369 OFFCURVE",
"480 250 CURVE SMOOTH",
"480 131 OFFCURVE",
"384 35 OFFCURVE",
"265 35 CURVE SMOOTH",
"146 35 OFFCURVE",
"50 131 OFFCURVE",
"50 250 CURVE SMOOTH",
"50 309 OFFCURVE",
"71 360 OFFCURVE",
"113 402 CURVE SMOOTH"
);
},
{
closed = 1;
nodes = (
"283 76 LINE",
"366 85 OFFCURVE",
"431 150 OFFCURVE",
"439 233 CURVE",
"343 233 LINE",
"343 268 LINE",
"439 268 LINE",
"431 351 OFFCURVE",
"366 416 OFFCURVE",
"283 425 CURVE",
"283 328 LINE",
"248 328 LINE",
"248 425 LINE",
"165 416 OFFCURVE",
"99 351 OFFCURVE",
"91 268 CURVE",
"188 268 LINE",
"188 233 LINE",
"91 233 LINE",
"99 150 OFFCURVE",
"165 85 OFFCURVE",
"248 76 CURVE",
"248 173 LINE",
"283 173 LINE"
);
}
);
width = 530;
}
);
unicode = 1F3AF;
},
{
glyphname = downBlackArrow;
layers = (
{
layerId = "772A128A-47C6-487B-8519-986DC341ECA7";
name = Regular;
paths = (
{
closed = 1;
nodes = (
"380 258 LINE",
"215 68 LINE",
"50 258 LINE",
"146 258 LINE",
"146 433 LINE",
"284 433 LINE",
"284 258 LINE"
);
}
);
width = 430;
}
);
unicode = 2B07;
},
{
glyphname = droplet;
layers = (
{
layerId = "772A128A-47C6-487B-8519-986DC341ECA7";
name = Regular;
paths = (
{
closed = 1;
nodes = (
"204 407 OFFCURVE",
"240 336 OFFCURVE",
"271 297 CURVE SMOOTH",
"302 258 OFFCURVE",
"330 204 OFFCURVE",
"330 149 CURVE SMOOTH",
"330 73 OFFCURVE",
"266 10 OFFCURVE",
"190 10 CURVE SMOOTH",
"114 10 OFFCURVE",
"50 73 OFFCURVE",
"50 149 CURVE SMOOTH",
"50 204 OFFCURVE",
"78 258 OFFCURVE",
"109 297 CURVE SMOOTH",
"140 336 OFFCURVE",
"176 407 OFFCURVE",
"185 486 CURVE",
"186 489 OFFCURVE",
"188 490 OFFCURVE",
"191 490 CURVE SMOOTH",
"194 490 OFFCURVE",
"195 489 OFFCURVE",
"195 486 CURVE"
);
},
{
closed = 1;
nodes = (
"175 293 OFFCURVE",
"171 300 OFFCURVE",
"166 300 CURVE SMOOTH",
"163 300 OFFCURVE",
"161 299 OFFCURVE",
"160 297 CURVE",
"140 268 LINE SMOOTH",
"119 237 OFFCURVE",
"111 230 OFFCURVE",
"99 196 CURVE SMOOTH",
"93 179 OFFCURVE",
"90 162 OFFCURVE",
"90 145 CURVE SMOOTH",
"90 129 OFFCURVE",
"103 116 OFFCURVE",
"119 116 CURVE SMOOTH",
"138 116 OFFCURVE",
"148 127 OFFCURVE",
"148 150 CURVE SMOOTH",
"148 181 OFFCURVE",
"155 222 OFFCURVE",
"169 273 CURVE",
"170 275 OFFCURVE",
"171 278 OFFCURVE",
"172 282 CURVE",
"173 285 OFFCURVE",
"173 288 OFFCURVE",
"174 290 CURVE"
);
}
);
width = 380;
}
);
unicode = 1F4A7;
},
{
glyphname = earthGlobeAmericas;
layers = (
{
layerId = "772A128A-47C6-487B-8519-986DC341ECA7";
name = Regular;
paths = (
{
closed = 1;
nodes = (
"423 490 OFFCURVE",
"530 382 OFFCURVE",
"530 250 CURVE SMOOTH",
"530 117 OFFCURVE",
"423 10 OFFCURVE",
"290 10 CURVE SMOOTH",
"158 10 OFFCURVE",
"50 117 OFFCURVE",
"50 250 CURVE SMOOTH",
"50 382 OFFCURVE",
"158 490 OFFCURVE",
"290 490 CURVE SMOOTH"
);
},
{
closed = 1;
nodes = (
"495 338 OFFCURVE",
"438 416 OFFCURVE",
"355 444 CURVE",
"343 428 OFFCURVE",
"347 411 OFFCURVE",
"356 403 CURVE",
"361 398 OFFCURVE",
"366 397 OFFCURVE",
"371 399 CURVE SMOOTH",
"382 403 OFFCURVE",
"394 409 OFFCURVE",
"397 406 CURVE",
"404 398 OFFCURVE",
"404 390 OFFCURVE",
"397 383 CURVE SMOOTH",
"382 367 OFFCURVE",
"359 345 OFFCURVE",
"374 316 CURVE SMOOTH",
"385 295 OFFCURVE",
"401 284 OFFCURVE",
"422 284 CURVE",
"441 283 OFFCURVE",
"451 254 OFFCURVE",
"452 233 CURVE",
"455 206 OFFCURVE",
"453 183 OFFCURVE",
"445 163 CURVE",
"438 148 OFFCURVE",
"440 136 OFFCURVE",
"452 125 CURVE",
"481 162 OFFCURVE",
"495 204 OFFCURVE",
"495 250 CURVE SMOOTH"
);
},
{
closed = 1;
nodes = (
"187 443 OFFCURVE",
"126 392 OFFCURVE",
"99 323 CURVE",
"101 323 OFFCURVE",
"105 323 OFFCURVE",
"110 322 CURVE SMOOTH",
"115 321 OFFCURVE",
"120 321 OFFCURVE",
"124 321 CURVE",
"132 320 OFFCURVE",
"142 318 OFFCURVE",
"149 315 CURVE",
"152 313 OFFCURVE",
"154 311 OFFCURVE",
"155 308 CURVE",
"156 304 OFFCURVE",
"154 297 OFFCURVE",
"148 286 CURVE SMOOTH",
"142 275 OFFCURVE",
"139 264 OFFCURVE",
"139 255 CURVE SMOOTH",
"139 245 OFFCURVE",
"145 236 OFFCURVE",
"158 227 CURVE SMOOTH",
"171 218 OFFCURVE",
"177 211 OFFCURVE",
"177 204 CURVE SMOOTH",
"177 195 OFFCURVE",
"178 183 OFFCURVE",
"181 170 CURVE SMOOTH",
"184 157 OFFCURVE",
"185 149 OFFCURVE",
"185 148 CURVE SMOOTH",
"185 140 OFFCURVE",
"218 100 OFFCURVE",
"229 100 CURVE SMOOTH",
"232 100 OFFCURVE",
"234 104 OFFCURVE",
"235 111 CURVE",
"235 118 OFFCURVE",
"235 127 OFFCURVE",
"234 138 CURVE SMOOTH",
"233 149 OFFCURVE",
"232 155 OFFCURVE",
"232 158 CURVE SMOOTH",
"232 179 OFFCURVE",
"237 211 OFFCURVE",
"269 230 CURVE SMOOTH",
"300 249 OFFCURVE",
"305 266 OFFCURVE",
"301 284 CURVE",
"296 302 OFFCURVE",
"291 311 OFFCURVE",
"275 319 CURVE SMOOTH",
"259 327 OFFCURVE",
"249 329 OFFCURVE",
"236 332 CURVE",
"229 333 OFFCURVE",
"226 334 OFFCURVE",
"225 334 CURVE",
"214 338 OFFCURVE",
"193 339 OFFCURVE",
"186 336 CURVE SMOOTH",
"179 333 OFFCURVE",
"164 347 OFFCURVE",
"164 356 CURVE SMOOTH",
"164 363 OFFCURVE",
"176 375 OFFCURVE",
"189 388 CURVE SMOOTH",
"196 395 OFFCURVE",
"200 400 OFFCURVE",
"203 403 CURVE",
"208 412 OFFCURVE",
"214 416 OFFCURVE",
"223 422 CURVE",
"227 425 OFFCURVE",
"231 428 OFFCURVE",
"236 432 CURVE",
"237 433 OFFCURVE",
"242 436 OFFCURVE",
"249 441 CURVE",
"256 445 OFFCURVE",
"260 449 OFFCURVE",
"262 452 CURVE"
);
},
{
closed = 1;
nodes = (
"248 48 OFFCURVE",
"269 45 OFFCURVE",
"290 45 CURVE SMOOTH",
"333 45 OFFCURVE",
"370 56 OFFCURVE",
"403 79 CURVE",
"394 94 OFFCURVE",
"375 99 OFFCURVE",
"344 96 CURVE SMOOTH",
"336 95 OFFCURVE",
"325 93 OFFCURVE",
"312 88 CURVE SMOOTH",
"284 78 OFFCURVE",
"251 71 OFFCURVE",
"250 71 CURVE",
"246 70 OFFCURVE",
"242 68 OFFCURVE",
"237 64 CURVE SMOOTH",
"232 60 OFFCURVE",
"229 57 OFFCURVE",
"226 55 CURVE"
);
}
);
width = 580;
}
);
unicode = 1F30E;
},
{
glyphname = electricLightBulb;
layers = (
{
layerId = "772A128A-47C6-487B-8519-986DC341ECA7";
name = Regular;
paths = (
{
closed = 1;
nodes = (
"155 72 LINE",
"296 72 LINE",
"296 20 LINE",
"273 6 OFFCURVE",
"249 -1 OFFCURVE",
"225 0 CURVE",
"202 -1 OFFCURVE",
"178 6 OFFCURVE",
"155 20 CURVE"
);
},
{
closed = 1;
nodes = (
"158 102 LINE",
"158 150 OFFCURVE",
"129 199 OFFCURVE",
"101 229 CURVE SMOOTH",
"73 259 OFFCURVE",
"47 306 OFFCURVE",
"51 354 CURVE SMOOTH",
"56 434 OFFCURVE",
"113 500 OFFCURVE",
"225 500 CURVE SMOOTH",
"338 500 OFFCURVE",
"393 434 OFFCURVE",
"400 354 CURVE SMOOTH",
"403 314 OFFCURVE",
"387 278 OFFCURVE",
"366 250 CURVE SMOOTH",
"355 235 OFFCURVE",
"345 221 OFFCURVE",
"334 207 CURVE SMOOTH",
"312 179 OFFCURVE",
"293 142 OFFCURVE",
"293 102 CURVE"
);
},
{
closed = 1;
nodes = (
"103 349 OFFCURVE",
"103 345 OFFCURVE",
"104 340 CURVE SMOOTH",
"105 335 OFFCURVE",
"106 331 OFFCURVE",
"105 330 CURVE SMOOTH",
"104 329 OFFCURVE",
"105 326 OFFCURVE",
"108 321 CURVE",
"110 316 OFFCURVE",
"111 313 OFFCURVE",
"111 312 CURVE",
"110 311 OFFCURVE",
"112 308 OFFCURVE",
"115 303 CURVE SMOOTH",
"118 298 OFFCURVE",
"119 294 OFFCURVE",
"120 293 CURVE",
"121 290 OFFCURVE",
"132 277 OFFCURVE",
"134 274 CURVE SMOOTH",
"136 271 OFFCURVE",
"146 256 OFFCURVE",
"149 252 CURVE SMOOTH",
"178 211 OFFCURVE",
"197 176 OFFCURVE",
"205 146 CURVE",
"246 146 LINE",
"254 177 OFFCURVE",
"273 213 OFFCURVE",
"302 252 CURVE",
"303 254 OFFCURVE",
"308 260 OFFCURVE",
"315 270 CURVE",
"322 279 OFFCURVE",
"326 285 OFFCURVE",
"327 288 CURVE",
"328 290 OFFCURVE",
"331 295 OFFCURVE",
"336 302 CURVE",
"344 317 OFFCURVE",
"345 321 OFFCURVE",
"347 333 CURVE SMOOTH",
"348 338 OFFCURVE",
"348 344 OFFCURVE",
"347 350 CURVE",
"342 415 OFFCURVE",
"301 448 OFFCURVE",
"225 448 CURVE SMOOTH",
"150 448 OFFCURVE",
"109 415 OFFCURVE",
"104 350 CURVE"
);
}
);
width = 451;
}
);
unicode = 1F4A1;
},
{
glyphname = electricTorch;
layers = (
{
layerId = "772A128A-47C6-487B-8519-986DC341ECA7";
name = Regular;
paths = (
{
closed = 1;
nodes = (
"434 455 OFFCURVE",
"481 408 OFFCURVE",
"497 363 CURVE",
"504 340 OFFCURVE",
"503 325 OFFCURVE",
"494 317 CURVE",
"427 250 LINE SMOOTH",
"416 239 OFFCURVE",
"381 231 OFFCURVE",
"348 235 CURVE",
"144 31 LINE SMOOTH",
"132 19 OFFCURVE",
"102 28 OFFCURVE",
"78 53 CURVE SMOOTH",
"54 77 OFFCURVE",
"44 106 OFFCURVE",
"56 118 CURVE SMOOTH",
"260 322 LINE",
"256 355 OFFCURVE",
"264 390 OFFCURVE",
"275 401 CURVE SMOOTH",
"343 469 LINE",
"351 478 OFFCURVE",
"366 479 OFFCURVE",
"389 471 CURVE SMOOTH"
);
},
{
closed = 1;
nodes = (
"251 203 OFFCURVE",
"298 248 OFFCURVE",
"277 272 CURVE",
"268 281 OFFCURVE",
"249 278 OFFCURVE",
"236 265 CURVE SMOOTH",
"223 252 OFFCURVE",
"221 235 OFFCURVE",
"230 224 CURVE"
);
},
{
closed = 1;
nodes = (
"418 353 OFFCURVE",
"447 339 OFFCURVE",
"463 336 CURVE",
"479 332 OFFCURVE",
"479 333 OFFCURVE",
"475 349 CURVE SMOOTH",
"471 364 OFFCURVE",
"457 392 OFFCURVE",
"437 412 CURVE SMOOTH",
"417 432 OFFCURVE",
"390 446 OFFCURVE",
"375 450 CURVE SMOOTH",
"359 454 OFFCURVE",
"358 453 OFFCURVE",
"362 437 CURVE",
"365 421 OFFCURVE",
"379 392 OFFCURVE",
"398 373 CURVE SMOOTH"
);
}
);
width = 551;
}
);
unicode = 1F526;
},
{
glyphname = envelope;
layers = (
{
layerId = "772A128A-47C6-487B-8519-986DC341ECA7";
name = Regular;
paths = (
{
closed = 1;
nodes = (
"44 380 OFFCURVE",
"48 395 OFFCURVE",
"64 395 CURVE SMOOTH",
"487 395 LINE SMOOTH",
"512 395 OFFCURVE",
"496 373 OFFCURVE",
"485 368 CURVE",
"480 366 OFFCURVE",
"448 349 OFFCURVE",
"389 317 CURVE SMOOTH",
"330 285 OFFCURVE",
"299 269 OFFCURVE",
"298 268 CURVE",
"293 265 OFFCURVE",
"285 263 OFFCURVE",
"275 263 CURVE SMOOTH",
"266 263 OFFCURVE",
"258 265 OFFCURVE",
"252 268 CURVE",
"251 269 OFFCURVE",
"220 285 OFFCURVE",
"161 317 CURVE SMOOTH",
"102 349 OFFCURVE",
"70 366 OFFCURVE",
"65 368 CURVE"
);
},
{
closed = 1;
nodes = (
"490 318 LINE",
"497 321 OFFCURVE",
"500 320 OFFCURVE",
"500 313 CURVE SMOOTH",
"500 129 LINE SMOOTH",
"500 118 OFFCURVE",
"486 105 OFFCURVE",
"475 105 CURVE SMOOTH",
"75 105 LINE SMOOTH",
"64 105 OFFCURVE",
"50 118 OFFCURVE",
"50 129 CURVE SMOOTH",
"50 313 LINE SMOOTH",
"50 320 OFFCURVE",
"53 321 OFFCURVE",
"60 318 CURVE",
"252 218 LINE SMOOTH",
"258 215 OFFCURVE",
"266 213 OFFCURVE",
"275 213 CURVE SMOOTH",
"284 213 OFFCURVE",
"292 215 OFFCURVE",
"298 218 CURVE SMOOTH"
);
}
);
width = 550;
}
);
unicode = 2709;
},
{
glyphname = fallenLeaf;
layers = (
{
layerId = "772A128A-47C6-487B-8519-986DC341ECA7";
name = Regular;
paths = (
{
closed = 1;
nodes = (
"229 433 OFFCURVE",
"313 444 OFFCURVE",
"421 431 CURVE SMOOTH",
"477 424 OFFCURVE",
"510 415 OFFCURVE",
"519 406 CURVE",
"520 404 OFFCURVE",
"520 402 OFFCURVE",
"518 401 CURVE SMOOTH",
"467 374 OFFCURVE",
"430 323 OFFCURVE",
"414 281 CURVE SMOOTH",
"398 239 OFFCURVE",
"370 186 OFFCURVE",
"335 162 CURVE SMOOTH",
"289 130 OFFCURVE",
"225 129 OFFCURVE",
"144 160 CURVE",
"122 135 OFFCURVE",
"103 105 OFFCURVE",
"87 72 CURVE SMOOTH",
"79 56 OFFCURVE",
"44 73 OFFCURVE",
"51 88 CURVE SMOOTH",
"80 155 OFFCURVE",
"143 221 OFFCURVE",
"204 261 CURVE SMOOTH",
"264 301 OFFCURVE",
"325 333 OFFCURVE",
"362 348 CURVE SMOOTH",
"389 358 LINE",
"384 358 OFFCURVE",
"378 358 OFFCURVE",
"369 358 CURVE",
"351 357 OFFCURVE",
"290 348 OFFCURVE",
"243 332 CURVE SMOOTH",
"195 315 OFFCURVE",
"128 274 OFFCURVE",
"81 219 CURVE",
"74 300 OFFCURVE",
"103 359 OFFCURVE",
"168 398 CURVE SMOOTH"
);
}
);
width = 570;
}
);
unicode = 1F342;
},
{
glyphname = fileFolder;
layers = (
{
layerId = "772A128A-47C6-487B-8519-986DC341ECA7";
name = Regular;
paths = (
{
closed = 1;
nodes = (
"528 325 LINE SMOOTH",
"549 325 OFFCURVE",
"552 317 OFFCURVE",
"551 301 CURVE SMOOTH",
"530 75 LINE SMOOTH",
"529 59 OFFCURVE",
"524 50 OFFCURVE",
"503 50 CURVE SMOOTH",
"100 50 LINE SMOOTH",
"83 50 OFFCURVE",
"73 58 OFFCURVE",
"72 75 CURVE SMOOTH",
"51 301 LINE SMOOTH",
"50 317 OFFCURVE",
"53 325 OFFCURVE",
"74 325 CURVE SMOOTH"
);
},
{
closed = 1;
nodes = (
"516 360 LINE",
"93 360 LINE",
"100 426 LINE",
"103 439 OFFCURVE",
"115 450 OFFCURVE",
"128 450 CURVE SMOOTH",
"210 450 LINE SMOOTH",
"227 450 OFFCURVE",
"242 444 OFFCURVE",
"253 433 CURVE SMOOTH",
"268 418 LINE",
"279 406 OFFCURVE",
"293 400 OFFCURVE",
"311 400 CURVE SMOOTH",
"481 400 LINE SMOOTH",
"494 400 OFFCURVE",
"508 391 OFFCURVE",
"511 380 CURVE SMOOTH"
);
}
);
width = 602;
}
);
unicode = 1F4C1;
},
{
glyphname = firstQuarterMoon;
layers = (
{
layerId = "772A128A-47C6-487B-8519-986DC341ECA7";
name = Regular;
paths = (
{
closed = 1;
nodes = (
"284 144 OFFCURVE",
"362 223 OFFCURVE",
"375 320 CURVE SMOOTH",
"381 369 OFFCURVE",
"372 414 OFFCURVE",
"348 455 CURVE",
"365 446 OFFCURVE",
"381 434 OFFCURVE",
"396 419 CURVE SMOOTH",
"439 376 OFFCURVE",
"460 325 OFFCURVE",
"460 265 CURVE SMOOTH",
"460 144 OFFCURVE",
"362 46 OFFCURVE",
"241 46 CURVE SMOOTH",
"180 46 OFFCURVE",
"129 67 OFFCURVE",
"86 110 CURVE SMOOTH",
"73 123 OFFCURVE",
"61 139 OFFCURVE",
"50 157 CURVE",
"91 134 OFFCURVE",
"137 125 OFFCURVE",
"186 132 CURVE SMOOTH"
);
}
);
width = 511;
}
);
unicode = 263D;
},
{
glyphname = floppyDisk;
layers = (
{
layerId = "772A128A-47C6-487B-8519-986DC341ECA7";
name = Regular;
paths = (
{
closed = 1;
nodes = (
"379 450 LINE",
"450 372 LINE",
"450 100 LINE SMOOTH",
"450 73 OFFCURVE",
"428 50 OFFCURVE",
"400 50 CURVE SMOOTH",
"100 50 LINE SMOOTH",
"73 50 OFFCURVE",
"50 73 OFFCURVE",
"50 100 CURVE SMOOTH",
"50 400 LINE SMOOTH",
"50 428 OFFCURVE",
"73 450 OFFCURVE",
"100 450 CURVE SMOOTH"
);
},
{
closed = 1;
nodes = (
"350 425 LINE",
"150 425 LINE",
"150 300 LINE SMOOTH",
"150 287 OFFCURVE",
"162 275 OFFCURVE",
"175 275 CURVE SMOOTH",
"325 275 LINE SMOOTH",
"338 275 OFFCURVE",
"350 287 OFFCURVE",
"350 300 CURVE SMOOTH"
);
},
{
closed = 1;
nodes = (
"325 400 LINE",
"325 300 LINE",
"275 300 LINE",
"275 400 LINE"
);
}
);
width = 500;
}
);
unicode = 1F4BE;
},
{
glyphname = gear;
layers = (
{
layerId = "772A128A-47C6-487B-8519-986DC341ECA7";
name = Regular;
paths = (
{
closed = 1;
nodes = (
"430 226 OFFCURVE",
"443 206 OFFCURVE",
"470 189 CURVE",
"466 176 OFFCURVE",
"460 162 OFFCURVE",
"453 148 CURVE",
"430 154 OFFCURVE",
"407 147 OFFCURVE",
"385 126 CURVE",
"367 107 OFFCURVE",
"361 84 OFFCURVE",
"368 58 CURVE",
"355 51 OFFCURVE",
"341 45 OFFCURVE",
"326 40 CURVE",
"311 67 OFFCURVE",
"289 81 OFFCURVE",
"260 81 CURVE SMOOTH",
"231 81 OFFCURVE",
"209 67 OFFCURVE",
"194 40 CURVE",
"179 45 OFFCURVE",
"165 51 OFFCURVE",
"152 58 CURVE",
"165 111 OFFCURVE",
"122 156 OFFCURVE",
"67 143 CURVE",
"62 152 OFFCURVE",
"57 165 OFFCURVE",
"50 184 CURVE",
"77 201 OFFCURVE",
"91 223 OFFCURVE",
"91 250 CURVE SMOOTH",
"91 274 OFFCURVE",
"77 295 OFFCURVE",
"50 312 CURVE",
"57 331 OFFCURVE",
"62 344 OFFCURVE",
"67 353 CURVE",
"116 341 OFFCURVE",
"165 390 OFFCURVE",
"152 443 CURVE",
"166 450 OFFCURVE",
"180 456 OFFCURVE",
"194 460 CURVE",
"209 433 OFFCURVE",
"231 420 OFFCURVE",
"260 420 CURVE SMOOTH",
"289 420 OFFCURVE",
"311 433 OFFCURVE",
"326 460 CURVE",
"340 456 OFFCURVE",
"354 450 OFFCURVE",
"368 443 CURVE",
"361 417 OFFCURVE",
"367 394 OFFCURVE",
"385 375 CURVE",
"407 354 OFFCURVE",
"430 347 OFFCURVE",
"453 353 CURVE",
"460 339 OFFCURVE",
"466 325 OFFCURVE",
"470 312 CURVE",
"443 295 OFFCURVE",
"430 275 OFFCURVE",
"430 250 CURVE SMOOTH"
);
},
{
closed = 1;
nodes = (
"213 168 OFFCURVE",
"235 159 OFFCURVE",
"260 159 CURVE SMOOTH",
"311 159 OFFCURVE",
"351 199 OFFCURVE",
"351 250 CURVE SMOOTH",
"351 301 OFFCURVE",
"311 342 OFFCURVE",
"260 342 CURVE SMOOTH",
"209 342 OFFCURVE",
"169 301 OFFCURVE",
"169 250 CURVE SMOOTH",
"169 225 OFFCURVE",
"178 203 OFFCURVE",
"196 186 CURVE"
);
}
);
width = 520;
}
);
unicode = 2699;
},
{
glyphname = graduationCap;
layers = (
{
layerId = "772A128A-47C6-487B-8519-986DC341ECA7";
name = Regular;
paths = (
{
closed = 1;
nodes = (
"300 110 LINE",
"438 178 LINE",
"437 171 OFFCURVE",
"435 163 OFFCURVE",
"434 155 CURVE",
"431 138 OFFCURVE",
"432 134 OFFCURVE",
"426 126 CURVE",
"420 117 OFFCURVE",
"411 111 OFFCURVE",
"391 103 CURVE",
"378 97 OFFCURVE",
"364 90 OFFCURVE",
"351 83 CURVE",
"338 75 OFFCURVE",
"327 69 OFFCURVE",
"320 66 CURVE",
"312 62 OFFCURVE",
"305 60 OFFCURVE",
"300 60 CURVE SMOOTH",
"295 60 OFFCURVE",
"288 62 OFFCURVE",
"280 67 CURVE",
"272 71 OFFCURVE",
"261 77 OFFCURVE",
"248 85 CURVE SMOOTH",
"235 93 OFFCURVE",
"221 100 OFFCURVE",
"208 105 CURVE",
"160 126 OFFCURVE",
"144 146 OFFCURVE",
"133 194 CURVE"
);
},
{
closed = 1;
nodes = (
"538 317 LINE",
"546 312 OFFCURVE",
"550 307 OFFCURVE",
"550 301 CURVE SMOOTH",
"550 294 OFFCURVE",
"546 289 OFFCURVE",
"538 284 CURVE",
"499 262 LINE",
"345 313 LINE",
"338 325 OFFCURVE",
"323 331 OFFCURVE",
"300 331 CURVE SMOOTH",
"273 331 OFFCURVE",
"253 319 OFFCURVE",
"253 303 CURVE SMOOTH",
"253 287 OFFCURVE",
"273 275 OFFCURVE",
"300 275 CURVE SMOOTH",
"309 275 OFFCURVE",
"315 276 OFFCURVE",
"318 277 CURVE",
"464 243 LINE",
"330 167 LINE SMOOTH",
"310 156 OFFCURVE",
"290 156 OFFCURVE",
"270 167 CURVE SMOOTH",
"62 284 LINE",
"54 289 OFFCURVE",
"50 294 OFFCURVE",
"50 301 CURVE SMOOTH",
"50 307 OFFCURVE",
"54 312 OFFCURVE",
"62 317 CURVE",
"270 434 LINE SMOOTH",
"290 445 OFFCURVE",
"310 445 OFFCURVE",
"330 434 CURVE SMOOTH"
);
},
{
closed = 1;
nodes = (
"480 135 OFFCURVE",
"482 165 OFFCURVE",
"481 187 CURVE",
"479 209 OFFCURVE",
"476 224 OFFCURVE",
"471 232 CURVE SMOOTH",
"464 243 LINE",
"499 262 LINE",
"501 259 OFFCURVE",
"503 255 OFFCURVE",
"505 248 CURVE SMOOTH",
"507 241 OFFCURVE",
"510 225 OFFCURVE",
"514 198 CURVE",
"517 171 OFFCURVE",
"516 138 OFFCURVE",
"510 99 CURVE SMOOTH",
"507 82 OFFCURVE",
"493 81 OFFCURVE",
"482 87 CURVE",
"476 90 OFFCURVE",
"473 93 OFFCURVE",
"474 96 CURVE"
);
}
);
width = 600;
}
);
unicode = 1F393;
},
{
glyphname = hammerAndPick;
layers = (
{
layerId = "772A128A-47C6-487B-8519-986DC341ECA7";
name = Regular;
paths = (
{
closed = 1;
nodes = (
"122 323 OFFCURVE",
"120 312 OFFCURVE",
"120 305 CURVE SMOOTH",
"120 301 OFFCURVE",
"120 299 OFFCURVE",
"119 299 CURVE",
"118 298 OFFCURVE",
"116 296 OFFCURVE",
"111 292 CURVE",
"106 287 OFFCURVE",
"102 284 OFFCURVE",
"101 283 CURVE SMOOTH",
"96 278 OFFCURVE",
"91 279 OFFCURVE",
"87 285 CURVE",
"52 323 LINE SMOOTH",
"45 331 OFFCURVE",
"51 334 OFFCURVE",
"62 342 CURVE",
"67 346 OFFCURVE",
"71 349 OFFCURVE",
"72 350 CURVE SMOOTH",
"74 352 OFFCURVE",
"79 353 OFFCURVE",
"86 353 CURVE SMOOTH",
"100 353 OFFCURVE",
"110 363 OFFCURVE",
"113 379 CURVE",
"114 387 OFFCURVE",
"116 392 OFFCURVE",
"118 394 CURVE",
"119 394 OFFCURVE",
"120 395 OFFCURVE",
"123 398 CURVE SMOOTH",
"127 402 OFFCURVE",
"141 413 OFFCURVE",
"156 424 CURVE",
"201 454 OFFCURVE",
"232 470 OFFCURVE",
"249 472 CURVE",
"290 472 OFFCURVE",
"314 472 OFFCURVE",
"323 471 CURVE",
"327 471 OFFCURVE",
"326 470 OFFCURVE",
"319 467 CURVE SMOOTH",
"239 432 OFFCURVE",
"196 411 OFFCURVE",
"225 372 CURVE SMOOTH",
"236 357 OFFCURVE",
"243 349 OFFCURVE",
"244 348 CURVE SMOOTH",
"247 345 OFFCURVE",
"246 343 OFFCURVE",
"243 341 CURVE",
"242 340 OFFCURVE",
"236 335 OFFCURVE",
"224 324 CURVE SMOOTH",
"212 313 OFFCURVE",
"206 307 OFFCURVE",
"205 306 CURVE",
"200 303 OFFCURVE",
"197 303 OFFCURVE",
"196 304 CURVE",
"168 336 OFFCURVE",
"152 344 OFFCURVE",
"127 328 CURVE"
);
},
{
closed = 1;
nodes = (
"475 77 LINE SMOOTH",
"481 70 OFFCURVE",
"481 63 OFFCURVE",
"474 58 CURVE",
"450 37 LINE",
"443 32 OFFCURVE",
"436 33 OFFCURVE",
"431 39 CURVE SMOOTH",
"224 275 LINE",
"221 278 OFFCURVE",
"221 281 OFFCURVE",
"224 285 CURVE",
"260 316 LINE",
"264 319 OFFCURVE",
"267 318 OFFCURVE",
"270 315 CURVE"
);
},
{
closed = 1;
nodes = (
"558 347 OFFCURVE",
"531 285 OFFCURVE",
"462 302 CURVE SMOOTH",
"443 306 OFFCURVE",
"427 301 OFFCURVE",
"412 286 CURVE SMOOTH",
"371 247 LINE",
"337 286 LINE",
"371 321 LINE SMOOTH",
"387 337 OFFCURVE",
"390 356 OFFCURVE",
"390 380 CURVE",
"389 392 OFFCURVE",
"390 402 OFFCURVE",
"392 409 CURVE",
"396 428 OFFCURVE",
"419 446 OFFCURVE",
"462 465 CURVE",
"470 469 OFFCURVE",
"475 460 OFFCURVE",
"472 456 CURVE",
"468 452 OFFCURVE",
"460 439 OFFCURVE",
"449 416 CURVE",
"444 413 OFFCURVE",
"442 407 OFFCURVE",
"443 399 CURVE",
"444 382 OFFCURVE",
"486 342 OFFCURVE",
"511 383 CURVE",
"513 387 OFFCURVE",
"517 394 OFFCURVE",
"524 404 CURVE",
"531 413 OFFCURVE",
"534 419 OFFCURVE",
"535 420 CURVE",
"538 427 OFFCURVE",
"546 427 OFFCURVE",
"547 416 CURVE"
);
},
{
closed = 1;
nodes = (
"245 198 LINE",
"283 155 LINE",
"160 34 LINE SMOOTH",
"153 27 OFFCURVE",
"147 27 OFFCURVE",
"141 32 CURVE",
"118 55 LINE",
"111 61 OFFCURVE",
"111 67 OFFCURVE",
"118 74 CURVE SMOOTH"
);
}
);
width = 599;
}
);
unicode = 2692;
},
{
glyphname = handbag;
layers = (
{
layerId = "772A128A-47C6-487B-8519-986DC341ECA7";
name = Regular;
paths = (
{
closed = 1;
nodes = (
"477 400 OFFCURVE",
"481 390 OFFCURVE",
"480 379 CURVE",
"431 55 LINE",
"428 45 OFFCURVE",
"422 40 OFFCURVE",
"412 40 CURVE SMOOTH",
"119 40 LINE SMOOTH",
"110 40 OFFCURVE",
"103 45 OFFCURVE",
"99 55 CURVE",
"68 262 OFFCURVE",
"52 370 OFFCURVE",
"51 379 CURVE SMOOTH",
"48 402 OFFCURVE",
"57 406 OFFCURVE",
"89 431 CURVE SMOOTH",
"105 443 OFFCURVE",
"114 450 OFFCURVE",
"117 452 CURVE",
"123 457 OFFCURVE",
"132 460 OFFCURVE",
"145 460 CURVE SMOOTH",
"385 460 LINE SMOOTH",
"398 460 OFFCURVE",
"407 457 OFFCURVE",
"413 452 CURVE",
"439 433 OFFCURVE",
"457 418 OFFCURVE",
"468 409 CURVE"
);
},
{
closed = 1;
nodes = (
"302 191 OFFCURVE",
"332 216 OFFCURVE",
"346 253 CURVE SMOOTH",
"360 289 OFFCURVE",
"364 309 OFFCURVE",
"367 330 CURVE",
"321 330 LINE",
"308 267 OFFCURVE",
"290 236 OFFCURVE",
"265 236 CURVE SMOOTH",
"240 236 OFFCURVE",
"222 267 OFFCURVE",
"209 330 CURVE",
"163 330 LINE",
"178 237 OFFCURVE",
"212 191 OFFCURVE",
"265 191 CURVE SMOOTH"
);
},
{
closed = 1;
nodes = (
"89 375 LINE",
"441 375 LINE",
"386 433 LINE",
"144 433 LINE"
);
}
);
width = 531;
}
);
unicode = 1F45C;
},
{
glyphname = heartsuitblack;
layers = (
{
layerId = "772A128A-47C6-487B-8519-986DC341ECA7";
name = Regular;
paths = (
{
closed = 1;
nodes = (
"469 376 OFFCURVE",
"481 350 OFFCURVE",
"481 319 CURVE SMOOTH",
"481 288 OFFCURVE",
"469 262 OFFCURVE",
"446 240 CURVE SMOOTH",
"266 75 LINE",
"86 240 LINE SMOOTH",
"63 262 OFFCURVE",
"51 288 OFFCURVE",
"51 319 CURVE SMOOTH",
"51 380 OFFCURVE",
"102 426 OFFCURVE",
"162 426 CURVE SMOOTH",
"191 426 OFFCURVE",
"217 416 OFFCURVE",
"238 397 CURVE SMOOTH",
"266 371 LINE",
"295 397 LINE SMOOTH",
"316 416 OFFCURVE",
"341 426 OFFCURVE",
"370 426 CURVE SMOOTH",
"399 426 OFFCURVE",
"425 416 OFFCURVE",
"446 397 CURVE SMOOTH"
);
}
);
width = 532;
}
);
unicode = 2665;
},
{
glyphname = heartsuitwhite;
layers = (
{
layerId = "772A128A-47C6-487B-8519-986DC341ECA7";
name = Regular;
paths = (
{
closed = 1;
nodes = (
"469 375 OFFCURVE",
"481 349 OFFCURVE",
"481 318 CURVE SMOOTH",
"481 287 OFFCURVE",
"469 261 OFFCURVE",
"446 240 CURVE SMOOTH",
"266 75 LINE",
"86 240 LINE SMOOTH",
"63 261 OFFCURVE",
"51 287 OFFCURVE",
"51 318 CURVE SMOOTH",
"51 379 OFFCURVE",
"103 425 OFFCURVE",
"162 425 CURVE SMOOTH",
"191 425 OFFCURVE",
"216 415 OFFCURVE",
"237 396 CURVE SMOOTH",
"266 370 LINE",
"294 396 LINE SMOOTH",
"315 415 OFFCURVE",
"341 425 OFFCURVE",
"370 425 CURVE SMOOTH",
"399 425 OFFCURVE",
"425 415 OFFCURVE",
"446 396 CURVE SMOOTH"
);
},
{
closed = 1;
nodes = (
"419 266 LINE SMOOTH",
"433 279 OFFCURVE",
"440 297 OFFCURVE",
"440 318 CURVE SMOOTH",
"440 362 OFFCURVE",
"413 387 OFFCURVE",
"370 387 CURVE SMOOTH",
"353 387 OFFCURVE",
"335 379 OFFCURVE",
"318 363 CURVE SMOOTH",
"266 317 LINE",
"213 363 LINE",
"197 379 OFFCURVE",
"180 387 OFFCURVE",
"162 387 CURVE SMOOTH",
"119 387 OFFCURVE",
"91 361 OFFCURVE",
"91 318 CURVE SMOOTH",
"91 296 OFFCURVE",
"98 279 OFFCURVE",
"113 266 CURVE",
"266 123 LINE"
);
}
);
width = 532;
}
);
unicode = 2661;
},
{
glyphname = heavyBlackCurvedUpwardsAndRightwardsArrow;
layers = (
{
layerId = "772A128A-47C6-487B-8519-986DC341ECA7";
name = Regular;
paths = (
{
closed = 1;
nodes = (
"320 201 LINE",
"180 201 OFFCURVE",
"107 181 OFFCURVE",
"50 80 CURVE",
"51 87 OFFCURVE",
"54 96 OFFCURVE",
"57 107 CURVE SMOOTH",
"63 129 OFFCURVE",
"93 196 OFFCURVE",
"130 239 CURVE SMOOTH",
"166 282 OFFCURVE",
"237 324 OFFCURVE",
"320 324 CURVE",
"320 420 LINE",
"500 259 LINE",
"320 92 LINE"
);
}
);
width = 550;
}
);
unicode = 27A6;
},
{
glyphname = heavyDoubleCommaQuotationMarkOrnament;
layers = (
{
layerId = "772A128A-47C6-487B-8519-986DC341ECA7";
name = Regular;
paths = (
{
closed = 1;
nodes = (
"220 415 OFFCURVE",
"247 299 OFFCURVE",
"195 191 CURVE SMOOTH",
"168 135 OFFCURVE",
"131 101 OFFCURVE",
"83 89 CURVE SMOOTH",
"72 86 OFFCURVE",
"61 85 OFFCURVE",
"50 85 CURVE",
"50 120 LINE",
"125 120 OFFCURVE",
"173 207 OFFCURVE",
"154 247 CURVE",
"149 259 OFFCURVE",
"138 265 OFFCURVE",
"123 265 CURVE SMOOTH",
"83 265 OFFCURVE",
"50 299 OFFCURVE",
"50 340 CURVE SMOOTH",
"50 381 OFFCURVE",
"83 415 OFFCURVE",
"123 415 CURVE SMOOTH"
);
},
{
closed = 1;
nodes = (
"430 415 OFFCURVE",
"457 299 OFFCURVE",
"405 191 CURVE SMOOTH",
"378 135 OFFCURVE",
"341 101 OFFCURVE",
"293 89 CURVE SMOOTH",
"282 86 OFFCURVE",
"271 85 OFFCURVE",
"260 85 CURVE",
"260 120 LINE",
"335 120 OFFCURVE",
"383 207 OFFCURVE",
"364 247 CURVE",
"359 259 OFFCURVE",
"348 265 OFFCURVE",
"333 265 CURVE SMOOTH",
"293 265 OFFCURVE",
"260 299 OFFCURVE",
"260 340 CURVE SMOOTH",
"260 381 OFFCURVE",
"293 415 OFFCURVE",
"333 415 CURVE SMOOTH"
);
}
);
width = 481;
}
);
unicode = 275E;
},
{
glyphname = heavyMultiplicationX;
layers = (
{
layerId = "772A128A-47C6-487B-8519-986DC341ECA7";
name = Regular;
paths = (
{
closed = 1;
nodes = (
"153 440 OFFCURVE",
"202 460 OFFCURVE",
"260 460 CURVE SMOOTH",
"376 460 OFFCURVE",
"470 366 OFFCURVE",
"470 250 CURVE SMOOTH",
"470 134 OFFCURVE",
"376 40 OFFCURVE",
"260 40 CURVE SMOOTH",
"144 40 OFFCURVE",
"50 134 OFFCURVE",
"50 250 CURVE SMOOTH",
"50 308 OFFCURVE",
"71 358 OFFCURVE",
"112 399 CURVE SMOOTH"
);
},
{
closed = 1;
nodes = (
"303 250 LINE",
"380 327 LINE",
"337 370 LINE",
"260 294 LINE",
"184 370 LINE",
"140 327 LINE",
"217 250 LINE",
"140 174 LINE",
"184 131 LINE",
"260 207 LINE",
"337 131 LINE",
"380 174 LINE"
);
}
);
width = 520;
}
);
unicode = 2716;
},
{
glyphname = highBrightnessSymbol;
layers = (
{
layerId = "772A128A-47C6-487B-8519-986DC341ECA7";
name = Regular;
paths = (
{
closed = 1;
nodes = (
"525 270 LINE SMOOTH",
"538 270 OFFCURVE",
"550 261 OFFCURVE",
"550 250 CURVE SMOOTH",
"550 237 OFFCURVE",
"542 230 OFFCURVE",
"525 230 CURVE SMOOTH",
"501 230 LINE SMOOTH",
"484 230 OFFCURVE",
"476 237 OFFCURVE",
"476 250 CURVE SMOOTH",
"476 261 OFFCURVE",
"488 270 OFFCURVE",
"501 270 CURVE SMOOTH"
);
},
{
closed = 1;
nodes = (
"230 374 OFFCURVE",
"262 387 OFFCURVE",
"300 387 CURVE SMOOTH",
"376 387 OFFCURVE",
"438 326 OFFCURVE",
"438 250 CURVE SMOOTH",
"438 173 OFFCURVE",
"376 112 OFFCURVE",
"300 112 CURVE SMOOTH",
"224 112 OFFCURVE",
"163 173 OFFCURVE",
"163 250 CURVE SMOOTH",
"163 288 OFFCURVE",
"176 320 OFFCURVE",
"203 347 CURVE SMOOTH"
);
},
{
closed = 1;
nodes = (
"249 160 OFFCURVE",
"273 150 OFFCURVE",
"300 150 CURVE SMOOTH",
"355 150 OFFCURVE",
"400 194 OFFCURVE",
"400 250 CURVE SMOOTH",
"400 305 OFFCURVE",
"355 350 OFFCURVE",
"300 350 CURVE SMOOTH",
"245 350 OFFCURVE",
"200 305 OFFCURVE",
"200 250 CURVE SMOOTH",
"200 222 OFFCURVE",
"210 198 OFFCURVE",
"230 179 CURVE SMOOTH"
);
},
{
closed = 1;
nodes = (
"125 237 OFFCURVE",
"117 230 OFFCURVE",
"100 230 CURVE SMOOTH",
"75 230 LINE SMOOTH",
"58 230 OFFCURVE",
"50 237 OFFCURVE",
"50 250 CURVE SMOOTH",
"50 261 OFFCURVE",
"62 270 OFFCURVE",
"75 270 CURVE SMOOTH",
"100 270 LINE SMOOTH",
"113 270 OFFCURVE",
"125 261 OFFCURVE",
"125 250 CURVE SMOOTH"
);
},
{
closed = 1;
nodes = (
"310 428 OFFCURVE",
"305 425 OFFCURVE",
"300 425 CURVE SMOOTH",
"289 425 OFFCURVE",
"280 437 OFFCURVE",
"280 450 CURVE SMOOTH",
"280 475 LINE SMOOTH",
"280 488 OFFCURVE",
"289 500 OFFCURVE",
"300 500 CURVE SMOOTH",
"311 500 OFFCURVE",
"320 488 OFFCURVE",
"320 475 CURVE SMOOTH",
"320 450 LINE SMOOTH",
"320 443 OFFCURVE",
"318 438 OFFCURVE",
"314 433 CURVE SMOOTH"
);
},
{
closed = 1;
nodes = (
"290 73 OFFCURVE",
"295 75 OFFCURVE",
"300 75 CURVE SMOOTH",
"311 75 OFFCURVE",
"320 63 OFFCURVE",
"320 50 CURVE SMOOTH",
"320 25 LINE SMOOTH",
"320 12 OFFCURVE",
"311 0 OFFCURVE",
"300 0 CURVE SMOOTH",
"289 0 OFFCURVE",
"280 12 OFFCURVE",
"280 25 CURVE SMOOTH",
"280 50 LINE SMOOTH",
"280 57 OFFCURVE",
"282 63 OFFCURVE",
"286 68 CURVE SMOOTH"
);
},
{
closed = 1;
nodes = (
"467 388 LINE SMOOTH",
"444 365 OFFCURVE",
"415 392 OFFCURVE",
"439 416 CURVE",
"442 420 OFFCURVE",
"469 456 OFFCURVE",
"488 437 CURVE SMOOTH",
"497 428 OFFCURVE",
"496 417 OFFCURVE",
"484 405 CURVE SMOOTH"
);
},
{
closed = 1;
nodes = (
"143 122 OFFCURVE",
"158 123 OFFCURVE",
"165 115 CURVE",
"173 107 OFFCURVE",
"171 92 OFFCURVE",
"162 83 CURVE SMOOTH",
"144 65 LINE SMOOTH",
"135 56 OFFCURVE",
"120 54 OFFCURVE",
"113 62 CURVE",
"103 71 OFFCURVE",
"104 82 OFFCURVE",
"116 94 CURVE",
"118 95 OFFCURVE",
"124 101 OFFCURVE",
"134 111 CURVE"
);
},
{
closed = 1;
nodes = (
"162 416 LINE SMOOTH",
"174 404 OFFCURVE",
"175 393 OFFCURVE",
"165 384 CURVE",
"158 377 OFFCURVE",
"143 379 OFFCURVE",
"134 388 CURVE SMOOTH",
"124 398 OFFCURVE",
"118 404 OFFCURVE",
"116 405 CURVE",
"107 414 OFFCURVE",
"105 429 OFFCURVE",
"113 437 CURVE",
"120 445 OFFCURVE",
"135 443 OFFCURVE",
"144 434 CURVE SMOOTH"
);
},
{
closed = 1;
nodes = (
"415 107 OFFCURVE",
"443 135 OFFCURVE",
"467 111 CURVE SMOOTH",
"484 94 LINE SMOOTH",
"508 70 OFFCURVE",
"480 42 OFFCURVE",
"456 65 CURVE SMOOTH",
"446 75 OFFCURVE",
"440 81 OFFCURVE",
"439 83 CURVE"
);
}
);
width = 600;
}
);
unicode = 1F506;
},
{
glyphname = highVoltageSign;
layers = (
{
layerId = "772A128A-47C6-487B-8519-986DC341ECA7";
name = Regular;
paths = (
{
closed = 1;
nodes = (
"70 26 OFFCURVE",
"76 42 OFFCURVE",
"89 72 CURVE SMOOTH",
"102 102 OFFCURVE",
"115 132 OFFCURVE",
"128 163 CURVE SMOOTH",
"155 224 OFFCURVE",
"161 209 OFFCURVE",
"100 235 CURVE SMOOTH",
"39 261 OFFCURVE",
"34 250 OFFCURVE",
"93 322 CURVE SMOOTH",
"122 358 OFFCURVE",
"152 393 OFFCURVE",
"183 427 CURVE SMOOTH",
"244 494 OFFCURVE",
"247 503 OFFCURVE",
"194 382 CURVE SMOOTH",
"167 321 OFFCURVE",
"154 290 OFFCURVE",
"155 289 CURVE SMOOTH",
"156 288 OFFCURVE",
"172 281 OFFCURVE",
"203 268 CURVE SMOOTH",
"234 255 OFFCURVE",
"250 245 OFFCURVE",
"251 239 CURVE",
"254 226 OFFCURVE",
"76 21 OFFCURVE",
"71 25 CURVE"
);
}
);
width = 302;
}
);
unicode = 26A1;
},
{
glyphname = hotBeverage;
layers = (
{
layerId = "772A128A-47C6-487B-8519-986DC341ECA7";
name = Regular;
paths = (
{
closed = 1;
nodes = (
"272 455 OFFCURVE",
"313 448 OFFCURVE",
"346 435 CURVE",
"378 421 OFFCURVE",
"393 406 OFFCURVE",
"391 391 CURVE SMOOTH",
"355 94 LINE",
"354 89 OFFCURVE",
"349 83 OFFCURVE",
"338 76 CURVE",
"317 61 OFFCURVE",
"269 45 OFFCURVE",
"221 45 CURVE SMOOTH",
"173 45 OFFCURVE",
"127 61 OFFCURVE",
"105 76 CURVE SMOOTH",
"94 83 OFFCURVE",
"88 89 OFFCURVE",
"87 94 CURVE",
"51 391 LINE SMOOTH",
"50 400 OFFCURVE",
"56 410 OFFCURVE",
"69 420 CURVE",
"96 439 OFFCURVE",
"153 455 OFFCURVE",
"221 455 CURVE SMOOTH"
);
},
{
closed = 1;
nodes = (
"174 350 OFFCURVE",
"197 347 OFFCURVE",
"221 347 CURVE SMOOTH",
"269 347 OFFCURVE",
"317 359 OFFCURVE",
"339 371 CURVE SMOOTH",
"350 377 OFFCURVE",
"355 382 OFFCURVE",
"355 386 CURVE SMOOTH",
"355 390 OFFCURVE",
"350 395 OFFCURVE",
"339 401 CURVE",
"317 412 OFFCURVE",
"269 424 OFFCURVE",
"221 424 CURVE SMOOTH",
"173 424 OFFCURVE",
"126 412 OFFCURVE",
"104 401 CURVE",
"93 395 OFFCURVE",
"87 390 OFFCURVE",
"87 386 CURVE SMOOTH",
"87 382 OFFCURVE",
"93 377 OFFCURVE",
"104 371 CURVE SMOOTH",
"115 365 OFFCURVE",
"131 360 OFFCURVE",
"153 355 CURVE SMOOTH"
);
}
);
width = 442;
}
);
unicode = 2615;
},
{
glyphname = hourglass;
layers = (
{
layerId = "772A128A-47C6-487B-8519-986DC341ECA7";
name = Regular;
paths = (
{
closed = 1;
nodes = (
"330 386 LINE SMOOTH",
"330 357 OFFCURVE",
"290 320 OFFCURVE",
"258 289 CURVE SMOOTH",
"241 273 OFFCURVE",
"233 260 OFFCURVE",
"233 250 CURVE SMOOTH",
"233 240 OFFCURVE",
"241 227 OFFCURVE",
"258 212 CURVE",
"290 181 OFFCURVE",
"330 146 OFFCURVE",
"330 115 CURVE SMOOTH",
"330 56 LINE SMOOTH",
"330 45 OFFCURVE",
"316 33 OFFCURVE",
"287 20 CURVE SMOOTH",
"258 7 OFFCURVE",
"226 0 OFFCURVE",
"190 0 CURVE SMOOTH",
"154 0 OFFCURVE",
"122 7 OFFCURVE",
"93 20 CURVE SMOOTH",
"64 33 OFFCURVE",
"50 45 OFFCURVE",
"50 56 CURVE SMOOTH",
"50 115 LINE SMOOTH",
"50 146 OFFCURVE",
"90 181 OFFCURVE",
"123 212 CURVE SMOOTH",
"139 227 OFFCURVE",
"147 240 OFFCURVE",
"147 250 CURVE SMOOTH",
"147 260 OFFCURVE",
"139 273 OFFCURVE",
"123 289 CURVE SMOOTH",
"90 320 OFFCURVE",
"50 357 OFFCURVE",
"50 386 CURVE SMOOTH",
"50 445 LINE SMOOTH",
"50 456 OFFCURVE",
"65 468 OFFCURVE",
"94 481 CURVE SMOOTH",
"123 494 OFFCURVE",
"155 500 OFFCURVE",
"190 500 CURVE SMOOTH",
"225 500 OFFCURVE",
"258 494 OFFCURVE",
"287 481 CURVE SMOOTH",
"316 468 OFFCURVE",
"330 456 OFFCURVE",
"330 445 CURVE SMOOTH"
);
},
{
closed = 1;
nodes = (
"89 442 OFFCURVE",
"86 440 OFFCURVE",
"80 435 CURVE",
"79 432 OFFCURVE",
"79 430 OFFCURVE",
"82 428 CURVE",
"113 411 OFFCURVE",
"149 402 OFFCURVE",
"190 402 CURVE SMOOTH",
"234 402 OFFCURVE",
"271 410 OFFCURVE",
"300 427 CURVE SMOOTH",
"305 430 OFFCURVE",
"302 435 OFFCURVE",
"292 442 CURVE",
"260 460 OFFCURVE",
"226 469 OFFCURVE",
"191 469 CURVE SMOOTH",
"151 469 OFFCURVE",
"117 460 OFFCURVE",
"89 442 CURVE"
);
},
{
closed = 1;
nodes = (
"203 262 OFFCURVE",
"205 271 OFFCURVE",
"214 283 CURVE SMOOTH",
"223 295 OFFCURVE",
"223 295 OFFCURVE",
"240 311 CURVE SMOOTH",
"248 319 OFFCURVE",
"253 324 OFFCURVE",
"254 325 CURVE SMOOTH",
"285 356 OFFCURVE",
"300 376 OFFCURVE",
"300 386 CURVE",
"301 411 LINE",
"268 393 OFFCURVE",
"231 384 OFFCURVE",
"190 384 CURVE SMOOTH",
"149 384 OFFCURVE",
"112 393 OFFCURVE",
"79 411 CURVE",
"81 386 LINE",
"81 375 OFFCURVE",
"96 355 OFFCURVE",
"126 325 CURVE SMOOTH",
"128 323 OFFCURVE",
"132 320 OFFCURVE",
"137 315 CURVE",
"148 305 OFFCURVE",
"150 302 OFFCURVE",
"158 294 CURVE SMOOTH",
"166 286 OFFCURVE",
"168 281 OFFCURVE",
"172 274 CURVE",
"176 266 OFFCURVE",
"178 258 OFFCURVE",
"178 250 CURVE SMOOTH",
"178 243 OFFCURVE",
"178 238 OFFCURVE",
"175 232 CURVE",
"173 229 OFFCURVE",
"172 226 OFFCURVE",
"171 224 CURVE",
"169 219 OFFCURVE",
"162 211 OFFCURVE",
"159 208 CURVE",
"156 204 OFFCURVE",
"147 195 OFFCURVE",
"144 192 CURVE",
"140 189 OFFCURVE",
"129 179 OFFCURVE",
"126 176 CURVE SMOOTH",
"96 146 OFFCURVE",
"81 126 OFFCURVE",
"81 115 CURVE SMOOTH",
"81 82 LINE",
"84 83 OFFCURVE",
"95 87 OFFCURVE",
"114 94 CURVE",
"153 106 OFFCURVE",
"177 121 OFFCURVE",
"177 144 CURVE SMOOTH",
"177 154 OFFCURVE",
"181 159 OFFCURVE",
"190 159 CURVE SMOOTH",
"199 159 OFFCURVE",
"203 154 OFFCURVE",
"203 144 CURVE SMOOTH",
"203 121 OFFCURVE",
"226 106 OFFCURVE",
"267 94 CURVE",
"287 87 OFFCURVE",
"298 83 OFFCURVE",
"300 82 CURVE",
"300 115 LINE SMOOTH",
"300 125 OFFCURVE",
"285 145 OFFCURVE",
"254 176 CURVE SMOOTH",
"253 177 OFFCURVE",
"249 181 OFFCURVE",
"244 186 CURVE",
"232 197 OFFCURVE",
"232 197 OFFCURVE",
"224 206 CURVE",
"215 215 OFFCURVE",
"213 219 OFFCURVE",
"209 227 CURVE",
"204 235 OFFCURVE",
"203 242 OFFCURVE",
"203 250 CURVE SMOOTH"
);
}
);
width = 380;
}
);
unicode = 231B;
},
{
glyphname = house;
layers = (
{
layerId = "772A128A-47C6-487B-8519-986DC341ECA7";
name = Regular;
paths = (
{
closed = 1;
nodes = (
"494 243 LINE SMOOTH",
"505 232 OFFCURVE",
"501 224 OFFCURVE",
"486 224 CURVE SMOOTH",
"444 224 LINE",
"444 69 LINE SMOOTH",
"444 60 OFFCURVE",
"444 56 OFFCURVE",
"440 52 CURVE",
"437 50 OFFCURVE",
"433 49 OFFCURVE",
"428 49 CURVE SMOOTH",
"326 49 LINE",
"326 204 LINE",
"224 204 LINE",
"224 49 LINE",
"127 49 LINE SMOOTH",
"108 49 OFFCURVE",
"106 56 OFFCURVE",
"106 69 CURVE SMOOTH",
"106 224 LINE",
"64 224 LINE SMOOTH",
"49 224 OFFCURVE",
"45 232 OFFCURVE",
"56 243 CURVE SMOOTH",
"256 444 LINE SMOOTH",
"261 449 OFFCURVE",
"268 452 OFFCURVE",
"275 452 CURVE SMOOTH",
"282 452 OFFCURVE",
"289 449 OFFCURVE",
"294 444 CURVE SMOOTH"
);
}
);
width = 551;
}
);
unicode = 2302;
},
{
glyphname = inboxTray;
layers = (
{
layerId = "772A128A-47C6-487B-8519-986DC341ECA7";
name = Regular;
paths = (
{
closed = 1;
nodes = (
"534 174 LINE",
"546 167 OFFCURVE",
"553 150 OFFCURVE",
"549 138 CURVE",
"535 61 LINE",
"532 48 OFFCURVE",
"519 38 OFFCURVE",
"504 38 CURVE SMOOTH",
"96 38 LINE SMOOTH",
"81 38 OFFCURVE",
"68 48 OFFCURVE",
"65 61 CURVE",
"51 138 LINE SMOOTH",
"48 154 OFFCURVE",
"53 166 OFFCURVE",
"67 174 CURVE",
"146 228 LINE",
"195 228 LINE",
"110 163 LINE",
"199 163 LINE SMOOTH",
"202 163 OFFCURVE",
"204 162 OFFCURVE",
"205 159 CURVE SMOOTH",
"225 104 LINE",
"375 104 LINE",
"395 159 LINE",
"398 162 OFFCURVE",
"400 163 OFFCURVE",
"401 163 CURVE SMOOTH",
"490 163 LINE",
"405 228 LINE",
"454 228 LINE"
);
},
{
closed = 1;
nodes = (
"430 335 LINE",
"300 213 LINE",
"170 335 LINE",
"253 335 LINE",
"253 463 LINE",
"348 463 LINE",
"348 335 LINE"
);
}
);
width = 601;
}
);
unicode = 1F4E5;
},
{
glyphname = key;
layers = (
{
layerId = "772A128A-47C6-487B-8519-986DC341ECA7";
name = Regular;
paths = (
{
closed = 1;
nodes = (
"450 304 OFFCURVE",
"416 227 OFFCURVE",
"348 215 CURVE SMOOTH",
"326 211 OFFCURVE",
"304 211 OFFCURVE",
"283 214 CURVE",
"224 117 LINE",
"189 111 LINE",
"137 28 LINE",
"132 19 OFFCURVE",
"125 13 OFFCURVE",
"114 12 CURVE",
"76 5 LINE",
"68 2 OFFCURVE",
"60 9 OFFCURVE",
"59 18 CURVE",
"51 67 LINE",
"48 77 OFFCURVE",
"50 86 OFFCURVE",
"57 95 CURVE",
"186 288 LINE",
"170 321 OFFCURVE",
"146 388 OFFCURVE",
"194 442 CURVE SMOOTH",
"241 496 OFFCURVE",
"324 513 OFFCURVE",
"384 470 CURVE SMOOTH",
"413 448 OFFCURVE",
"431 418 OFFCURVE",
"437 381 CURVE SMOOTH"
);
},
{
closed = 1;
nodes = (
"394 372 OFFCURVE",
"387 413 OFFCURVE",
"359 433 CURVE SMOOTH",
"331 454 OFFCURVE",
"293 446 OFFCURVE",
"273 417 CURVE",
"268 409 OFFCURVE",
"265 402 OFFCURVE",
"267 396 CURVE SMOOTH",
"268 393 OFFCURVE",
"268 390 OFFCURVE",
"269 388 CURVE",
"270 383 OFFCURVE",
"280 375 OFFCURVE",
"285 372 CURVE",
"289 368 OFFCURVE",
"302 359 OFFCURVE",
"307 355 CURVE",
"309 354 OFFCURVE",
"313 351 OFFCURVE",
"318 347 CURVE SMOOTH",
"323 343 OFFCURVE",
"327 340 OFFCURVE",
"330 339 CURVE",
"332 338 OFFCURVE",
"335 336 OFFCURVE",
"339 333 CURVE SMOOTH",
"343 330 OFFCURVE",
"346 329 OFFCURVE",
"349 329 CURVE SMOOTH",
"353 329 OFFCURVE",
"361 329 OFFCURVE",
"366 334 CURVE",
"369 336 OFFCURVE",
"371 339 OFFCURVE",
"374 343 CURVE"
);
}
);
width = 490;
}
);
unicode = 1F511;
},
{
glyphname = keyboard;
layers = (
{
layerId = "772A128A-47C6-487B-8519-986DC341ECA7";
name = Regular;
paths = (
{
closed = 1;
nodes = (
"515 400 LINE SMOOTH",
"534 400 OFFCURVE",
"550 384 OFFCURVE",
"550 365 CURVE SMOOTH",
"550 135 LINE SMOOTH",
"550 115 OFFCURVE",
"534 100 OFFCURVE",
"515 100 CURVE SMOOTH",
"85 100 LINE SMOOTH",
"66 100 OFFCURVE",
"50 115 OFFCURVE",
"50 135 CURVE SMOOTH",
"50 365 LINE SMOOTH",
"50 384 OFFCURVE",
"66 400 OFFCURVE",
"85 400 CURVE SMOOTH"
);
},
{
closed = 1;
nodes = (
"325 350 LINE",
"325 300 LINE",
"375 300 LINE",
"375 350 LINE"
);
},
{
closed = 1;
nodes = (
"400 275 LINE",
"350 275 LINE",
"350 225 LINE",
"400 225 LINE"
);
},
{
closed = 1;
nodes = (
"250 350 LINE",
"250 300 LINE",
"300 300 LINE",
"300 350 LINE"
);
},
{
closed = 1;
nodes = (
"325 275 LINE",
"275 275 LINE",
"275 225 LINE",
"325 225 LINE"
);
},
{
closed = 1;
nodes = (
"175 350 LINE",
"175 300 LINE",
"225 300 LINE",
"225 350 LINE"
);
},
{
closed = 1;
nodes = (
"250 275 LINE",
"200 275 LINE",
"200 225 LINE",
"250 225 LINE"
);
},
{
closed = 1;
nodes = (
"100 350 LINE",
"100 300 LINE",
"150 300 LINE",
"150 350 LINE"
);
},
{
closed = 1;
nodes = (
"175 275 LINE",
"125 275 LINE",
"125 225 LINE",
"175 225 LINE"
);
},
{
closed = 1;
nodes = (
"150 150 LINE",
"150 200 LINE",
"100 200 LINE",
"100 150 LINE"
);
},
{
closed = 1;
nodes = (
"425 150 LINE",
"425 200 LINE",
"175 200 LINE",
"175 150 LINE"
);
},
{
closed = 1;
nodes = (
"500 150 LINE",
"500 200 LINE",
"450 200 LINE",
"450 150 LINE"
);
},
{
closed = 1;
nodes = (
"425 225 LINE",
"475 225 LINE",
"475 275 LINE",
"425 275 LINE"
);
},
{
closed = 1;
nodes = (
"500 300 LINE",
"500 350 LINE",
"400 350 LINE",
"400 300 LINE"
);
}
);
width = 600;
}
);
unicode = 2328;
},
{
glyphname = leftBlackArrow;
layers = (
{
layerId = "772A128A-47C6-487B-8519-986DC341ECA7";
name = Regular;
paths = (
{
closed = 1;
nodes = (
"239 85 LINE",
"50 250 LINE",
"239 415 LINE",
"239 320 LINE",
"415 320 LINE",
"415 181 LINE",
"239 181 LINE"
);
}
);
width = 465;
}
);
unicode = 2B05;
},
{
glyphname = leftPointingMagnifyingGlass;
layers = (
{
layerId = "772A128A-47C6-487B-8519-986DC341ECA7";
name = Regular;
paths = (
{
closed = 1;
nodes = (
"436 114 LINE",
"446 103 OFFCURVE",
"447 92 OFFCURVE",
"439 83 CURVE",
"416 60 LINE",
"404 49 OFFCURVE",
"393 49 OFFCURVE",
"382 60 CURVE SMOOTH",
"287 155 LINE",
"262 141 OFFCURVE",
"236 134 OFFCURVE",
"209 134 CURVE SMOOTH",
"124 134 OFFCURVE",
"50 208 OFFCURVE",
"50 293 CURVE SMOOTH",
"50 378 OFFCURVE",
"119 448 OFFCURVE",
"204 448 CURVE SMOOTH",
"289 448 OFFCURVE",
"364 374 OFFCURVE",
"364 289 CURVE SMOOTH",
"364 260 OFFCURVE",
"356 233 OFFCURVE",
"341 208 CURVE"
);
},
{
closed = 1;
nodes = (
"108 348 OFFCURVE",
"97 322 OFFCURVE",
"97 293 CURVE SMOOTH",
"97 234 OFFCURVE",
"150 181 OFFCURVE",
"209 181 CURVE SMOOTH",
"268 181 OFFCURVE",
"316 229 OFFCURVE",
"316 289 CURVE SMOOTH",
"316 348 OFFCURVE",
"263 400 OFFCURVE",
"204 400 CURVE SMOOTH",
"175 400 OFFCURVE",
"150 390 OFFCURVE",
"129 369 CURVE SMOOTH"
);
}
);
width = 495;
}
);
unicode = 1F50D;
},
{
glyphname = linkSymbol;
layers = (
{
layerId = "772A128A-47C6-487B-8519-986DC341ECA7";
name = Regular;
paths = (
{
closed = 1;
nodes = (
"197 133 LINE SMOOTH",
"202 138 OFFCURVE",
"207 140 OFFCURVE",
"214 140 CURVE SMOOTH",
"221 140 OFFCURVE",
"227 138 OFFCURVE",
"232 133 CURVE SMOOTH",
"243 122 OFFCURVE",
"243 110 OFFCURVE",
"232 98 CURVE",
"211 78 LINE SMOOTH",
"192 59 OFFCURVE",
"170 50 OFFCURVE",
"145 50 CURVE SMOOTH",
"93 50 OFFCURVE",
"50 93 OFFCURVE",
"50 144 CURVE SMOOTH",
"50 170 OFFCURVE",
"59 192 OFFCURVE",
"78 211 CURVE SMOOTH",
"152 285 LINE SMOOTH",
"199 330 OFFCURVE",
"252 337 OFFCURVE",
"288 302 CURVE SMOOTH",
"293 297 OFFCURVE",
"296 291 OFFCURVE",
"296 284 CURVE SMOOTH",
"296 277 OFFCURVE",
"293 271 OFFCURVE",
"288 266 CURVE",
"276 255 OFFCURVE",
"264 255 OFFCURVE",
"253 266 CURVE SMOOTH",
"236 282 OFFCURVE",
"214 276 OFFCURVE",
"187 249 CURVE SMOOTH",
"113 176 LINE SMOOTH",
"104 167 OFFCURVE",
"100 157 OFFCURVE",
"100 144 CURVE SMOOTH",
"100 119 OFFCURVE",
"120 100 OFFCURVE",
"145 100 CURVE SMOOTH",
"157 100 OFFCURVE",
"167 104 OFFCURVE",
"176 113 CURVE SMOOTH"
);
},
{
closed = 1;
nodes = (
"441 401 OFFCURVE",
"450 379 OFFCURVE",
"450 354 CURVE SMOOTH",
"450 328 OFFCURVE",
"441 306 OFFCURVE",
"422 287 CURVE SMOOTH",
"343 208 LINE SMOOTH",
"318 184 OFFCURVE",
"293 172 OFFCURVE",
"268 172 CURVE SMOOTH",
"247 172 OFFCURVE",
"229 180 OFFCURVE",
"212 197 CURVE SMOOTH",
"207 202 OFFCURVE",
"205 207 OFFCURVE",
"205 214 CURVE SMOOTH",
"205 227 OFFCURVE",
"216 239 OFFCURVE",
"230 239 CURVE SMOOTH",
"237 239 OFFCURVE",
"242 237 OFFCURVE",
"247 232 CURVE SMOOTH",
"264 216 OFFCURVE",
"284 220 OFFCURVE",
"308 244 CURVE SMOOTH",
"387 322 LINE SMOOTH",
"396 331 OFFCURVE",
"401 342 OFFCURVE",
"401 354 CURVE SMOOTH",
"401 367 OFFCURVE",
"396 377 OFFCURVE",
"387 385 CURVE",
"371 402 OFFCURVE",
"348 407 OFFCURVE",
"329 390 CURVE",
"304 365 LINE SMOOTH",
"299 360 OFFCURVE",
"293 358 OFFCURVE",
"286 358 CURVE SMOOTH",
"279 358 OFFCURVE",
"274 360 OFFCURVE",
"269 365 CURVE SMOOTH",
"258 376 OFFCURVE",
"258 388 OFFCURVE",
"269 400 CURVE",
"294 425 LINE SMOOTH",
"330 461 OFFCURVE",
"385 459 OFFCURVE",
"422 420 CURVE SMOOTH"
);
}
);
width = 500;
}
);
unicode = 1F517;
},
{
glyphname = lock;
layers = (
{
layerId = "772A128A-47C6-487B-8519-986DC341ECA7";
name = Regular;
paths = (
{
closed = 1;
nodes = (
"370 313 LINE SMOOTH",
"383 313 OFFCURVE",
"400 298 OFFCURVE",
"400 283 CURVE SMOOTH",
"400 88 LINE SMOOTH",
"400 72 OFFCURVE",
"392 61 OFFCURVE",
"376 55 CURVE",
"346 46 LINE",
"332 41 OFFCURVE",
"316 38 OFFCURVE",
"298 38 CURVE SMOOTH",
"153 38 LINE SMOOTH",
"134 38 OFFCURVE",
"118 41 OFFCURVE",
"104 46 CURVE",
"74 55 LINE",
"58 61 OFFCURVE",
"50 72 OFFCURVE",
"50 88 CURVE SMOOTH",
"50 283 LINE SMOOTH",
"50 298 OFFCURVE",
"62 313 OFFCURVE",
"75 313 CURVE SMOOTH",
"125 313 LINE",
"125 348 LINE SMOOTH",
"125 421 OFFCURVE",
"160 463 OFFCURVE",
"225 463 CURVE SMOOTH",
"290 463 OFFCURVE",
"325 421 OFFCURVE",
"325 348 CURVE SMOOTH",
"325 313 LINE"
);
},
{
closed = 1;
nodes = (
"175 313 LINE",
"275 313 LINE",
"275 358 LINE SMOOTH",
"275 393 OFFCURVE",
"256 413 OFFCURVE",
"225 413 CURVE SMOOTH",
"194 413 OFFCURVE",
"175 393 OFFCURVE",
"175 358 CURVE SMOOTH"
);
}
);
width = 450;
}
);
unicode = 1F512;
},
{
glyphname = lowBrightnessSymbol;
layers = (
{
layerId = "772A128A-47C6-487B-8519-986DC341ECA7";
name = Regular;
paths = (
{
closed = 1;
nodes = (
"270 330 OFFCURVE",
"305 294 OFFCURVE",
"305 250 CURVE SMOOTH",
"305 205 OFFCURVE",
"270 170 OFFCURVE",
"225 170 CURVE SMOOTH",
"181 170 OFFCURVE",
"145 205 OFFCURVE",
"145 250 CURVE SMOOTH",
"145 294 OFFCURVE",
"181 330 OFFCURVE",
"225 330 CURVE SMOOTH"
);
},
{
closed = 1;
nodes = (
"254 198 OFFCURVE",
"276 221 OFFCURVE",
"276 250 CURVE SMOOTH",
"276 278 OFFCURVE",
"254 301 OFFCURVE",
"225 301 CURVE SMOOTH",
"197 301 OFFCURVE",
"174 278 OFFCURVE",
"174 250 CURVE SMOOTH",
"174 221 OFFCURVE",
"197 198 OFFCURVE",
"225 198 CURVE SMOOTH"
);
},
{
closed = 1;
nodes = (
"63 268 OFFCURVE",
"68 270 OFFCURVE",
"75 270 CURVE SMOOTH",
"88 270 OFFCURVE",
"100 261 OFFCURVE",
"100 250 CURVE SMOOTH",
"100 237 OFFCURVE",
"92 230 OFFCURVE",
"75 230 CURVE SMOOTH",
"58 230 OFFCURVE",
"50 237 OFFCURVE",
"50 250 CURVE SMOOTH",
"50 255 OFFCURVE",
"53 260 OFFCURVE",
"58 264 CURVE SMOOTH"
);
},
{
closed = 1;
nodes = (
"340 392 OFFCURVE",
"368 364 OFFCURVE",
"344 340 CURVE SMOOTH",
"335 331 OFFCURVE",
"320 329 OFFCURVE",
"313 337 CURVE",
"305 345 OFFCURVE",
"307 360 OFFCURVE",
"316 369 CURVE SMOOTH"
);
},
{
closed = 1;
nodes = (
"363 268 OFFCURVE",
"368 270 OFFCURVE",
"375 270 CURVE SMOOTH",
"388 270 OFFCURVE",
"400 261 OFFCURVE",
"400 250 CURVE SMOOTH",
"400 237 OFFCURVE",
"392 230 OFFCURVE",
"375 230 CURVE SMOOTH",
"359 230 OFFCURVE",
"351 237 OFFCURVE",
"351 250 CURVE SMOOTH",
"351 255 OFFCURVE",
"353 260 OFFCURVE",
"358 264 CURVE SMOOTH"
);
},
{
closed = 1;
nodes = (
"215 123 OFFCURVE",
"220 125 OFFCURVE",
"225 125 CURVE SMOOTH",
"236 125 OFFCURVE",
"245 113 OFFCURVE",
"245 100 CURVE SMOOTH",
"245 87 OFFCURVE",
"236 75 OFFCURVE",
"225 75 CURVE SMOOTH",
"214 75 OFFCURVE",
"205 87 OFFCURVE",
"205 100 CURVE SMOOTH",
"205 107 OFFCURVE",
"207 113 OFFCURVE",
"211 118 CURVE SMOOTH"
);
},
{
closed = 1;
nodes = (
"83 143 OFFCURVE",
"119 179 OFFCURVE",
"138 160 CURVE SMOOTH",
"147 151 OFFCURVE",
"146 140 OFFCURVE",
"134 128 CURVE SMOOTH",
"125 119 OFFCURVE",
"110 117 OFFCURVE",
"103 124 CURVE SMOOTH"
);
},
{
closed = 1;
nodes = (
"81 363 OFFCURVE",
"109 391 OFFCURVE",
"133 367 CURVE SMOOTH",
"142 358 OFFCURVE",
"144 343 OFFCURVE",
"137 336 CURVE",
"127 327 OFFCURVE",
"116 328 OFFCURVE",
"105 339 CURVE SMOOTH"
);
},
{
closed = 1;
nodes = (
"294 153 OFFCURVE",
"322 181 OFFCURVE",
"346 157 CURVE SMOOTH",
"355 148 OFFCURVE",
"357 133 OFFCURVE",
"349 126 CURVE SMOOTH",
"339 117 OFFCURVE",
"328 118 OFFCURVE",
"317 129 CURVE SMOOTH"
);
},
{
closed = 1;
nodes = (
"235 378 OFFCURVE",
"230 375 OFFCURVE",
"225 375 CURVE SMOOTH",
"214 375 OFFCURVE",
"205 387 OFFCURVE",
"205 400 CURVE SMOOTH",
"205 413 OFFCURVE",
"214 425 OFFCURVE",
"225 425 CURVE SMOOTH",
"236 425 OFFCURVE",
"245 413 OFFCURVE",
"245 400 CURVE SMOOTH",
"245 393 OFFCURVE",
"243 388 OFFCURVE",
"239 383 CURVE SMOOTH"
);
}
);
width = 450;
}
);
unicode = 1F505;
},
{
glyphname = microphone;
layers = (
{
layerId = "772A128A-47C6-487B-8519-986DC341ECA7";
name = Regular;
paths = (
{
closed = 1;
nodes = (
"360 319 LINE SMOOTH",
"367 319 OFFCURVE",
"370 316 OFFCURVE",
"370 309 CURVE SMOOTH",
"370 240 LINE SMOOTH",
"370 179 OFFCURVE",
"323 124 OFFCURVE",
"235 116 CURVE",
"235 50 LINE",
"300 50 LINE SMOOTH",
"307 50 OFFCURVE",
"310 47 OFFCURVE",
"310 40 CURVE SMOOTH",
"310 10 LINE SMOOTH",
"310 3 OFFCURVE",
"307 0 OFFCURVE",
"300 0 CURVE SMOOTH",
"120 0 LINE SMOOTH",
"113 0 OFFCURVE",
"110 3 OFFCURVE",
"110 10 CURVE SMOOTH",
"110 40 LINE SMOOTH",
"110 47 OFFCURVE",
"113 50 OFFCURVE",
"120 50 CURVE SMOOTH",
"185 50 LINE",
"185 116 LINE",
"97 124 OFFCURVE",
"50 179 OFFCURVE",
"50 240 CURVE SMOOTH",
"50 309 LINE SMOOTH",
"50 316 OFFCURVE",
"53 319 OFFCURVE",
"60 319 CURVE SMOOTH",
"75 319 LINE SMOOTH",
"82 319 OFFCURVE",
"85 316 OFFCURVE",
"85 309 CURVE SMOOTH",
"85 240 LINE SMOOTH",
"85 196 OFFCURVE",
"122 150 OFFCURVE",
"210 150 CURVE SMOOTH",
"298 150 OFFCURVE",
"335 196 OFFCURVE",
"335 240 CURVE SMOOTH",
"335 309 LINE SMOOTH",
"335 316 OFFCURVE",
"338 319 OFFCURVE",
"345 319 CURVE SMOOTH"
);
},
{
closed = 1;
nodes = (
"256 204 OFFCURVE",
"237 200 OFFCURVE",
"210 200 CURVE SMOOTH",
"183 200 OFFCURVE",
"164 204 OFFCURVE",
"153 213 CURVE",
"141 221 OFFCURVE",
"135 230 OFFCURVE",
"135 240 CURVE SMOOTH",
"135 319 LINE",
"285 319 LINE",
"285 240 LINE SMOOTH",
"285 230 OFFCURVE",
"279 221 OFFCURVE",
"268 213 CURVE SMOOTH"
);
},
{
closed = 1;
nodes = (
"285 354 LINE",
"135 354 LINE",
"135 460 LINE SMOOTH",
"135 470 OFFCURVE",
"141 479 OFFCURVE",
"153 488 CURVE SMOOTH",
"164 496 OFFCURVE",
"183 500 OFFCURVE",
"210 500 CURVE SMOOTH",
"237 500 OFFCURVE",
"256 496 OFFCURVE",
"268 488 CURVE",
"279 479 OFFCURVE",
"285 470 OFFCURVE",
"285 460 CURVE SMOOTH"
);
}
);
width = 420;
}
);
unicode = 1F3A4;
},
{
glyphname = mobilePhone;
layers = (
{
layerId = "772A128A-47C6-487B-8519-986DC341ECA7";
name = Regular;
paths = (
{
closed = 1;
nodes = (
"290 495 LINE SMOOTH",
"318 495 OFFCURVE",
"340 473 OFFCURVE",
"340 445 CURVE SMOOTH",
"340 55 LINE SMOOTH",
"340 28 OFFCURVE",
"318 5 OFFCURVE",
"290 5 CURVE SMOOTH",
"100 5 LINE SMOOTH",
"73 5 OFFCURVE",
"50 28 OFFCURVE",
"50 55 CURVE SMOOTH",
"50 445 LINE SMOOTH",
"50 473 OFFCURVE",
"73 495 OFFCURVE",
"100 495 CURVE SMOOTH"
);
},
{
closed = 1;
nodes = (
"215 25 OFFCURVE",
"230 37 OFFCURVE",
"230 50 CURVE SMOOTH",
"230 65 OFFCURVE",
"215 75 OFFCURVE",
"195 75 CURVE SMOOTH",
"176 75 OFFCURVE",
"160 63 OFFCURVE",
"160 50 CURVE SMOOTH",
"160 37 OFFCURVE",
"176 25 OFFCURVE",
"195 25 CURVE SMOOTH"
);
},
{
closed = 1;
nodes = (
"300 100 LINE",
"300 430 LINE",
"90 430 LINE",
"90 100 LINE"
);
}
);
width = 390;
}
);
unicode = 1F4F1;
},
{
glyphname = mouse;
layers = (
{
layerId = "772A128A-47C6-487B-8519-986DC341ECA7";
name = Regular;
paths = (
{
closed = 1;
nodes = (
"325 140 LINE SMOOTH",
"344 87 OFFCURVE",
"310 29 OFFCURVE",
"247 6 CURVE",
"184 -13 OFFCURVE",
"123 16 OFFCURVE",
"108 69 CURVE SMOOTH",
"55 261 LINE SMOOTH",
"42 306 OFFCURVE",
"61 354 OFFCURVE",
"100 381 CURVE",
"52 474 LINE",
"43 497 OFFCURVE",
"71 512 OFFCURVE",
"83 491 CURVE",
"132 395 LINE",
"185 410 OFFCURVE",
"241 381 OFFCURVE",
"260 329 CURVE SMOOTH"
);
},
{
closed = 1;
nodes = (
"182 284 OFFCURVE",
"190 303 OFFCURVE",
"185 322 CURVE",
"178 341 OFFCURVE",
"160 350 OFFCURVE",
"141 345 CURVE",
"122 338 OFFCURVE",
"114 319 OFFCURVE",
"119 300 CURVE",
"126 281 OFFCURVE",
"144 272 OFFCURVE",
"163 277 CURVE"
);
}
);
width = 381;
}
);
unicode = 1F401;
},
{
glyphname = musicalNote;
layers = (
{
layerId = "772A128A-47C6-487B-8519-986DC341ECA7";
name = Regular;
paths = (
{
closed = 1;
nodes = (
"350 475 LINE SMOOTH",
"378 475 OFFCURVE",
"400 453 OFFCURVE",
"400 425 CURVE SMOOTH",
"400 75 LINE SMOOTH",
"400 48 OFFCURVE",
"378 25 OFFCURVE",
"350 25 CURVE SMOOTH",
"100 25 LINE SMOOTH",
"73 25 OFFCURVE",
"50 48 OFFCURVE",
"50 75 CURVE SMOOTH",
"50 425 LINE SMOOTH",
"50 453 OFFCURVE",
"73 475 OFFCURVE",
"100 475 CURVE SMOOTH"
);
},
{
closed = 1;
nodes = (
"316 266 OFFCURVE",
"306 302 OFFCURVE",
"290 323 CURVE SMOOTH",
"274 344 OFFCURVE",
"253 370 OFFCURVE",
"253 383 CURVE",
"223 383 LINE",
"223 199 LINE",
"195 210 OFFCURVE",
"161 197 OFFCURVE",
"146 174 CURVE SMOOTH",
"131 151 OFFCURVE",
"139 128 OFFCURVE",
"167 120 CURVE",
"194 111 OFFCURVE",
"253 124 OFFCURVE",
"253 169 CURVE SMOOTH",
"253 300 LINE",
"277 296 OFFCURVE",
"290 275 OFFCURVE",
"290 258 CURVE",
"289 249 OFFCURVE",
"289 242 OFFCURVE",
"288 237 CURVE",
"287 234 OFFCURVE",
"287 232 OFFCURVE",
"289 232 CURVE SMOOTH",
"290 232 OFFCURVE",
"292 234 OFFCURVE",
"295 237 CURVE"
);
}
);
width = 450;
}
);
unicode = 1F3B5;
},
{
glyphname = musicalnote;
layers = (
{
layerId = "772A128A-47C6-487B-8519-986DC341ECA7";
name = Regular;
paths = (
{
closed = 1;
nodes = (
"241 485 LINE",
"241 457 OFFCURVE",
"280 417 OFFCURVE",
"309 387 CURVE SMOOTH",
"338 357 OFFCURVE",
"357 303 OFFCURVE",
"320 250 CURVE",
"313 239 OFFCURVE",
"309 236 OFFCURVE",
"307 242 CURVE",
"306 244 OFFCURVE",
"306 247 OFFCURVE",
"307 250 CURVE",
"314 262 OFFCURVE",
"310 290 OFFCURVE",
"304 317 CURVE SMOOTH",
"298 344 OFFCURVE",
"273 369 OFFCURVE",
"241 374 CURVE",
"241 106 LINE SMOOTH",
"242 74 OFFCURVE",
"214 39 OFFCURVE",
"170 23 CURVE SMOOTH",
"121 4 OFFCURVE",
"67 20 OFFCURVE",
"54 57 CURVE SMOOTH",
"41 94 OFFCURVE",
"71 140 OFFCURVE",
"122 157 CURVE SMOOTH",
"151 167 OFFCURVE",
"177 168 OFFCURVE",
"201 159 CURVE",
"201 485 LINE"
);
}
);
width = 391;
}
);
unicode = 266A;
},
{
glyphname = musicalnotedbl;
layers = (
{
layerId = "772A128A-47C6-487B-8519-986DC341ECA7";
name = Regular;
paths = (
{
closed = 1;
nodes = (
"153 432 LINE",
"420 490 LINE",
"420 138 LINE",
"421 110 OFFCURVE",
"398 81 OFFCURVE",
"362 68 CURVE SMOOTH",
"319 52 OFFCURVE",
"287 64 OFFCURVE",
"276 96 CURVE SMOOTH",
"264 128 OFFCURVE",
"282 165 OFFCURVE",
"322 181 CURVE SMOOTH",
"339 188 OFFCURVE",
"357 189 OFFCURVE",
"375 186 CURVE",
"375 374 LINE",
"198 333 LINE",
"198 88 LINE SMOOTH",
"198 60 OFFCURVE",
"175 31 OFFCURVE",
"139 18 CURVE SMOOTH",
"96 3 OFFCURVE",
"65 14 OFFCURVE",
"54 46 CURVE SMOOTH",
"42 78 OFFCURVE",
"59 115 OFFCURVE",
"99 131 CURVE SMOOTH",
"117 138 OFFCURVE",
"135 139 OFFCURVE",
"153 136 CURVE"
);
}
);
width = 471;
}
);
unicode = 266B;
},
{
glyphname = negativeSquaredCrossMark;
layers = (
{
layerId = "772A128A-47C6-487B-8519-986DC341ECA7";
name = Regular;
paths = (
{
closed = 1;
nodes = (
"400 450 LINE SMOOTH",
"428 450 OFFCURVE",
"450 428 OFFCURVE",
"450 400 CURVE SMOOTH",
"450 100 LINE SMOOTH",
"450 73 OFFCURVE",
"428 50 OFFCURVE",
"400 50 CURVE SMOOTH",
"100 50 LINE SMOOTH",
"73 50 OFFCURVE",
"50 73 OFFCURVE",
"50 100 CURVE SMOOTH",
"50 400 LINE SMOOTH",
"50 428 OFFCURVE",
"73 450 OFFCURVE",
"100 450 CURVE SMOOTH"
);
},
{
closed = 1;
nodes = (
"327 131 LINE",
"370 174 LINE",
"293 250 LINE",
"370 327 LINE",
"327 370 LINE",
"250 294 LINE",
"174 370 LINE",
"130 327 LINE",
"207 250 LINE",
"130 174 LINE",
"174 131 LINE",
"250 207 LINE"
);
}
);
width = 500;
}
);
unicode = 274E;
},
{
glyphname = newspaper;
layers = (
{
layerId = "772A128A-47C6-487B-8519-986DC341ECA7";
name = Regular;
paths = (
{
closed = 1;
nodes = (
"400 475 LINE SMOOTH",
"428 475 OFFCURVE",
"450 453 OFFCURVE",
"450 425 CURVE SMOOTH",
"450 75 LINE SMOOTH",
"450 48 OFFCURVE",
"428 25 OFFCURVE",
"400 25 CURVE SMOOTH",
"100 25 LINE SMOOTH",
"73 25 OFFCURVE",
"50 48 OFFCURVE",
"50 75 CURVE SMOOTH",
"50 425 LINE SMOOTH",
"50 453 OFFCURVE",
"73 475 OFFCURVE",
"100 475 CURVE SMOOTH"
);
},
{
closed = 1;
nodes = (
"400 75 LINE",
"400 425 LINE",
"100 425 LINE",
"100 75 LINE"
);
},
{
closed = 1;
nodes = (
"275 200 LINE",
"275 175 LINE",
"150 175 LINE",
"150 200 LINE"
);
},
{
closed = 1;
nodes = (
"350 300 LINE",
"350 275 LINE",
"250 275 LINE",
"250 300 LINE"
);
},
{
closed = 1;
nodes = (
"250 325 LINE",
"250 375 LINE",
"350 375 LINE",
"350 325 LINE"
);
},
{
closed = 1;
nodes = (
"225 375 LINE",
"225 275 LINE",
"150 275 LINE",
"150 375 LINE"
);
},
{
closed = 1;
nodes = (
"200 250 LINE",
"200 225 LINE",
"150 225 LINE",
"150 250 LINE"
);
},
{
closed = 1;
nodes = (
"225 225 LINE",
"225 250 LINE",
"350 250 LINE",
"350 225 LINE"
);
},
{
closed = 1;
nodes = (
"350 150 LINE",
"350 125 LINE",
"150 125 LINE",
"150 150 LINE"
);
},
{
closed = 1;
nodes = (
"300 175 LINE",
"300 200 LINE",
"350 200 LINE",
"350 175 LINE"
);
}
);
width = 500;
}
);
unicode = 1F4F0;
},
{
glyphname = openBook;
layers = (
{
layerId = "772A128A-47C6-487B-8519-986DC341ECA7";
name = Regular;
paths = (
{
closed = 1;
nodes = (
"220 194 LINE",
"220 160 LINE",
"120 200 LINE",
"120 234 LINE"
);
},
{
closed = 1;
nodes = (
"220 298 LINE",
"220 264 LINE",
"120 304 LINE",
"120 338 LINE"
);
},
{
closed = 1;
nodes = (
"496 467 OFFCURVE",
"500 460 OFFCURVE",
"500 450 CURVE SMOOTH",
"500 130 LINE SMOOTH",
"500 119 OFFCURVE",
"495 111 OFFCURVE",
"484 107 CURVE SMOOTH",
"285 27 LINE",
"282 26 OFFCURVE",
"281 26 OFFCURVE",
"280 26 CURVE SMOOTH",
"279 26 OFFCURVE",
"279 26 OFFCURVE",
"278 26 CURVE",
"277 25 OFFCURVE",
"276 25 OFFCURVE",
"275 25 CURVE SMOOTH",
"274 25 OFFCURVE",
"274 25 OFFCURVE",
"273 26 CURVE",
"272 26 OFFCURVE",
"271 26 OFFCURVE",
"270 26 CURVE",
"265 27 LINE",
"66 107 LINE SMOOTH",
"55 111 OFFCURVE",
"50 119 OFFCURVE",
"50 130 CURVE SMOOTH",
"50 450 LINE SMOOTH",
"50 470 OFFCURVE",
"68 481 OFFCURVE",
"84 474 CURVE SMOOTH",
"275 397 LINE",
"466 474 LINE SMOOTH",
"474 477 OFFCURVE",
"482 476 OFFCURVE",
"489 471 CURVE"
);
},
{
closed = 1;
nodes = (
"250 77 LINE",
"250 357 LINE",
"90 421 LINE",
"90 141 LINE"
);
},
{
closed = 1;
nodes = (
"460 141 LINE",
"460 421 LINE",
"300 357 LINE",
"300 77 LINE"
);
},
{
closed = 1;
nodes = (
"430 234 LINE",
"430 200 LINE",
"330 160 LINE",
"330 194 LINE"
);
},
{
closed = 1;
nodes = (
"430 338 LINE",
"430 304 LINE",
"330 264 LINE",
"330 298 LINE"
);
}
);
width = 550;
}
);
unicode = 1F4D6;
},
{
glyphname = openLock;
layers = (
{
layerId = "772A128A-47C6-487B-8519-986DC341ECA7";
name = Regular;
paths = (
{
closed = 1;
nodes = (
"370 300 LINE SMOOTH",
"383 300 OFFCURVE",
"400 283 OFFCURVE",
"400 270 CURVE SMOOTH",
"400 75 LINE SMOOTH",
"400 62 OFFCURVE",
"389 47 OFFCURVE",
"376 43 CURVE SMOOTH",
"346 33 LINE",
"329 28 OFFCURVE",
"313 25 OFFCURVE",
"298 25 CURVE SMOOTH",
"153 25 LINE SMOOTH",
"138 25 OFFCURVE",
"121 28 OFFCURVE",
"104 33 CURVE",
"74 43 LINE SMOOTH",
"61 47 OFFCURVE",
"50 62 OFFCURVE",
"50 75 CURVE SMOOTH",
"50 270 LINE SMOOTH",
"50 285 OFFCURVE",
"62 300 OFFCURVE",
"75 300 CURVE SMOOTH",
"275 300 LINE",
"275 370 LINE SMOOTH",
"275 407 OFFCURVE",
"258 425 OFFCURVE",
"225 425 CURVE SMOOTH",
"192 425 OFFCURVE",
"175 407 OFFCURVE",
"175 370 CURVE SMOOTH",
"175 350 LINE",
"125 350 LINE",
"125 360 LINE SMOOTH",
"125 433 OFFCURVE",
"160 475 OFFCURVE",
"225 475 CURVE SMOOTH",
"292 475 OFFCURVE",
"325 437 OFFCURVE",
"325 360 CURVE SMOOTH",
"325 300 LINE"
);
}
);
width = 450;
}
);
unicode = 1F513;
},
{
glyphname = opticalDisc;
layers = (
{
layerId = "772A128A-47C6-487B-8519-986DC341ECA7";
name = Regular;
paths = (
{
closed = 1;
nodes = (
"163 458 OFFCURVE",
"217 480 OFFCURVE",
"280 480 CURVE SMOOTH",
"407 480 OFFCURVE",
"510 377 OFFCURVE",
"510 250 CURVE SMOOTH",
"510 123 OFFCURVE",
"407 20 OFFCURVE",
"280 20 CURVE SMOOTH",
"153 20 OFFCURVE",
"50 123 OFFCURVE",
"50 250 CURVE SMOOTH",
"50 313 OFFCURVE",
"73 368 OFFCURVE",
"118 413 CURVE SMOOTH"
);
},
{
closed = 1;
nodes = (
"242 182 OFFCURVE",
"259 175 OFFCURVE",
"280 175 CURVE SMOOTH",
"321 175 OFFCURVE",
"355 209 OFFCURVE",
"355 250 CURVE SMOOTH",
"355 293 OFFCURVE",
"323 325 OFFCURVE",
"280 325 CURVE SMOOTH",
"239 325 OFFCURVE",
"205 291 OFFCURVE",
"205 250 CURVE SMOOTH",
"205 229 OFFCURVE",
"212 212 OFFCURVE",
"227 197 CURVE SMOOTH"
);
}
);
width = 560;
}
);
unicode = 1F4BF;
},
{
glyphname = outboxTray;
layers = (
{
layerId = "772A128A-47C6-487B-8519-986DC341ECA7";
name = Regular;
paths = (
{
closed = 1;
nodes = (
"300 463 LINE",
"430 341 LINE",
"348 341 LINE",
"348 213 LINE",
"253 213 LINE",
"253 341 LINE",
"170 341 LINE"
);
},
{
closed = 1;
nodes = (
"534 174 LINE",
"546 167 OFFCURVE",
"553 150 OFFCURVE",
"549 138 CURVE",
"535 61 LINE",
"532 48 OFFCURVE",
"519 38 OFFCURVE",
"504 38 CURVE SMOOTH",
"96 38 LINE SMOOTH",
"81 38 OFFCURVE",
"68 48 OFFCURVE",
"65 61 CURVE",
"51 138 LINE SMOOTH",
"48 154 OFFCURVE",
"53 166 OFFCURVE",
"67 174 CURVE",
"146 228 LINE",
"195 228 LINE",
"110 163 LINE",
"199 163 LINE SMOOTH",
"202 163 OFFCURVE",
"204 162 OFFCURVE",
"205 159 CURVE SMOOTH",
"225 104 LINE",
"375 104 LINE",
"395 159 LINE",
"398 162 OFFCURVE",
"400 163 OFFCURVE",
"401 163 CURVE SMOOTH",
"490 163 LINE",
"405 228 LINE",
"454 228 LINE"
);
}
);
width = 601;
}
);
unicode = 1F4E4;
},
{
glyphname = package;
layers = (
{
layerId = "772A128A-47C6-487B-8519-986DC341ECA7";
name = Regular;
paths = (
{
closed = 1;
nodes = (
"485 450 LINE SMOOTH",
"493 450 OFFCURVE",
"500 443 OFFCURVE",
"500 435 CURVE SMOOTH",
"500 375 LINE",
"50 375 LINE",
"50 435 LINE SMOOTH",
"50 443 OFFCURVE",
"57 450 OFFCURVE",
"65 450 CURVE SMOOTH"
);
},
{
closed = 1;
nodes = (
"75 350 LINE",
"475 350 LINE",
"475 85 LINE SMOOTH",
"475 65 OFFCURVE",
"459 50 OFFCURVE",
"440 50 CURVE SMOOTH",
"110 50 LINE SMOOTH",
"91 50 OFFCURVE",
"75 65 OFFCURVE",
"75 85 CURVE SMOOTH"
);
},
{
closed = 1;
nodes = (
"200 300 LINE",
"200 250 LINE",
"350 250 LINE",
"350 300 LINE"
);
}
);
width = 550;
}
);
unicode = 1F4E6;
},
{
glyphname = pageFacingUp;
layers = (
{
layerId = "772A128A-47C6-487B-8519-986DC341ECA7";
name = Regular;
paths = (
{
closed = 1;
nodes = (
"156 229 LINE",
"156 274 LINE",
"296 274 LINE",
"296 229 LINE"
);
},
{
closed = 1;
nodes = (
"350 475 LINE SMOOTH",
"378 475 OFFCURVE",
"400 453 OFFCURVE",
"400 425 CURVE SMOOTH",
"400 75 LINE SMOOTH",
"400 48 OFFCURVE",
"378 25 OFFCURVE",
"350 25 CURVE SMOOTH",
"100 25 LINE SMOOTH",
"73 25 OFFCURVE",
"50 48 OFFCURVE",
"50 75 CURVE SMOOTH",
"50 425 LINE SMOOTH",
"50 453 OFFCURVE",
"73 475 OFFCURVE",
"100 475 CURVE SMOOTH"
);
},
{
closed = 1;
nodes = (
"350 75 LINE",
"350 425 LINE",
"100 425 LINE",
"100 75 LINE"
);
},
{
closed = 1;
nodes = (
"295 371 LINE",
"295 327 LINE",
"155 327 LINE",
"155 371 LINE"
);
},
{
closed = 1;
nodes = (
"295 175 LINE",
"295 131 LINE",
"155 131 LINE",
"155 175 LINE"
);
}
);
width = 450;
}
);
unicode = 1F4C4;
},
{
glyphname = paperclip;
layers = (
{
layerId = "772A128A-47C6-487B-8519-986DC341ECA7";
name = Regular;
paths = (
{
closed = 1;
nodes = (
"138 5 OFFCURVE",
"110 17 OFFCURVE",
"87 41 CURVE SMOOTH",
"39 88 OFFCURVE",
"35 156 OFFCURVE",
"92 219 CURVE",
"340 467 LINE SMOOTH",
"367 494 OFFCURVE",
"396 503 OFFCURVE",
"427 494 CURVE SMOOTH",
"456 486 OFFCURVE",
"482 460 OFFCURVE",
"490 431 CURVE SMOOTH",
"499 399 OFFCURVE",
"490 370 OFFCURVE",
"463 343 CURVE SMOOTH",
"226 106 LINE SMOOTH",
"199 79 OFFCURVE",
"163 76 OFFCURVE",
"142 97 CURVE",
"122 113 OFFCURVE",
"123 152 OFFCURVE",
"152 180 CURVE SMOOTH",
"318 347 LINE SMOOTH",
"334 364 OFFCURVE",
"360 338 OFFCURVE",
"343 322 CURVE SMOOTH",
"177 156 LINE SMOOTH",
"162 141 OFFCURVE",
"159 130 OFFCURVE",
"167 121 CURVE",
"171 118 OFFCURVE",
"175 117 OFFCURVE",
"179 118 CURVE",
"187 119 OFFCURVE",
"195 124 OFFCURVE",
"202 131 CURVE SMOOTH",
"439 368 LINE SMOOTH",
"472 401 OFFCURVE",
"458 449 OFFCURVE",
"418 460 CURVE SMOOTH",
"400 465 OFFCURVE",
"382 459 OFFCURVE",
"364 442 CURVE SMOOTH",
"117 195 LINE",
"73 144 OFFCURVE",
"78 98 OFFCURVE",
"111 65 CURVE SMOOTH",
"144 33 OFFCURVE",
"191 28 OFFCURVE",
"240 71 CURVE",
"488 318 LINE SMOOTH",
"504 334 OFFCURVE",
"530 311 OFFCURVE",
"513 294 CURVE SMOOTH",
"265 46 LINE SMOOTH",
"238 19 OFFCURVE",
"207 5 OFFCURVE",
"172 5 CURVE SMOOTH"
);
}
);
width = 569;
}
);
unicode = 1F4CE;
},
{
glyphname = pencil;
layers = (
{
layerId = "772A128A-47C6-487B-8519-986DC341ECA7";
name = Regular;
paths = (
{
closed = 1;
nodes = (
"430 394 OFFCURVE",
"440 370 OFFCURVE",
"440 359 CURVE SMOOTH",
"440 351 LINE",
"314 225 LINE",
"169 81 LINE",
"50 55 LINE",
"75 175 LINE",
"220 319 LINE",
"346 445 LINE",
"364 449 OFFCURVE",
"385 439 OFFCURVE",
"409 415 CURVE SMOOTH"
);
},
{
closed = 1;
nodes = (
"162 95 LINE",
"174 107 LINE",
"173 122 OFFCURVE",
"165 137 OFFCURVE",
"148 154 CURVE SMOOTH",
"133 169 OFFCURVE",
"116 178 OFFCURVE",
"108 178 CURVE",
"101 179 LINE",
"90 167 LINE",
"81 127 LINE",
"100 116 OFFCURVE",
"114 102 OFFCURVE",
"122 86 CURVE"
);
}
);
width = 491;
}
);
unicode = 270F;
},
{
glyphname = personalComputer;
layers = (
{
layerId = "772A128A-47C6-487B-8519-986DC341ECA7";
name = Regular;
paths = (
{
closed = 1;
nodes = (
"500 470 LINE SMOOTH",
"528 470 OFFCURVE",
"550 447 OFFCURVE",
"550 420 CURVE SMOOTH",
"550 145 LINE SMOOTH",
"550 117 OFFCURVE",
"528 90 OFFCURVE",
"501 85 CURVE SMOOTH",
"392 63 LINE",
"392 63 OFFCURVE",
"406 57 OFFCURVE",
"435 44 CURVE",
"452 35 OFFCURVE",
"448 30 OFFCURVE",
"425 30 CURVE SMOOTH",
"175 30 LINE SMOOTH",
"110 30 OFFCURVE",
"209 63 OFFCURVE",
"209 63 CURVE",
"99 85 LINE SMOOTH",
"72 90 OFFCURVE",
"50 117 OFFCURVE",
"50 145 CURVE SMOOTH",
"50 420 LINE SMOOTH",
"50 447 OFFCURVE",
"73 470 OFFCURVE",
"100 470 CURVE SMOOTH"
);
},
{
closed = 1;
nodes = (
"500 147 LINE",
"500 425 LINE",
"100 425 LINE",
"100 147 LINE"
);
}
);
width = 600;
}
);
unicode = 1F4BB;
},
{
glyphname = rocket;
layers = (
{
layerId = "772A128A-47C6-487B-8519-986DC341ECA7";
name = Regular;
paths = (
{
closed = 1;
nodes = (
"322 193 LINE",
"326 160 OFFCURVE",
"329 142 OFFCURVE",
"322 123 CURVE SMOOTH",
"319 114 OFFCURVE",
"317 107 OFFCURVE",
"316 103 CURVE SMOOTH",
"314 95 OFFCURVE",
"284 78 OFFCURVE",
"276 74 CURVE",
"267 70 OFFCURVE",
"217 48 OFFCURVE",
"198 40 CURVE SMOOTH",
"177 32 OFFCURVE",
"167 45 OFFCURVE",
"174 64 CURVE SMOOTH",
"194 119 LINE",
"129 185 LINE",
"76 165 LINE",
"57 157 OFFCURVE",
"45 168 OFFCURVE",
"53 189 CURVE SMOOTH",
"57 199 OFFCURVE",
"62 212 OFFCURVE",
"69 229 CURVE SMOOTH",
"75 245 OFFCURVE",
"79 256 OFFCURVE",
"82 261 CURVE SMOOTH",
"85 266 OFFCURVE",
"88 274 OFFCURVE",
"93 284 CURVE",
"98 293 OFFCURVE",
"102 299 OFFCURVE",
"106 302 CURVE",
"109 304 OFFCURVE",
"114 307 OFFCURVE",
"120 312 CURVE",
"126 316 OFFCURVE",
"133 318 OFFCURVE",
"141 318 CURVE SMOOTH",
"148 318 OFFCURVE",
"157 318 OFFCURVE",
"167 318 CURVE SMOOTH",
"176 318 OFFCURVE",
"188 317 OFFCURVE",
"202 315 CURVE",
"205 320 OFFCURVE",
"210 326 OFFCURVE",
"217 335 CURVE SMOOTH",
"229 351 OFFCURVE",
"274 400 OFFCURVE",
"314 429 CURVE SMOOTH",
"354 458 OFFCURVE",
"416 484 OFFCURVE",
"469 476 CURVE",
"474 476 OFFCURVE",
"478 473 OFFCURVE",
"479 466 CURVE SMOOTH",
"486 411 OFFCURVE",
"464 350 OFFCURVE",
"432 307 CURVE SMOOTH",
"400 263 OFFCURVE",
"364 226 OFFCURVE",
"340 207 CURVE SMOOTH"
);
},
{
closed = 1;
nodes = (
"354 334 OFFCURVE",
"363 330 OFFCURVE",
"374 330 CURVE SMOOTH",
"395 330 OFFCURVE",
"412 348 OFFCURVE",
"412 369 CURVE SMOOTH",
"412 390 OFFCURVE",
"395 408 OFFCURVE",
"374 408 CURVE SMOOTH",
"353 408 OFFCURVE",
"336 390 OFFCURVE",
"336 369 CURVE SMOOTH",
"336 358 OFFCURVE",
"340 349 OFFCURVE",
"347 341 CURVE"
);
}
);
width = 531;
}
);
unicode = 1F680;
},
{
glyphname = speakerWithCancellationStroke;
layers = (
{
layerId = "772A128A-47C6-487B-8519-986DC341ECA7";
name = Regular;
paths = (
{
closed = 1;
nodes = (
"489 459 OFFCURVE",
"492 453 OFFCURVE",
"492 446 CURVE SMOOTH",
"492 439 OFFCURVE",
"489 433 OFFCURVE",
"484 428 CURVE SMOOTH",
"93 37 LINE",
"87 32 OFFCURVE",
"81 30 OFFCURVE",
"76 30 CURVE SMOOTH",
"64 30 OFFCURVE",
"50 40 OFFCURVE",
"50 55 CURVE SMOOTH",
"50 62 OFFCURVE",
"53 68 OFFCURVE",
"58 73 CURVE SMOOTH",
"449 464 LINE SMOOTH",
"460 475 OFFCURVE",
"472 475 OFFCURVE",
"484 464 CURVE"
);
},
{
closed = 1;
nodes = (
"401 296 LINE",
"450 235 OFFCURVE",
"471 176 OFFCURVE",
"448 152 CURVE SMOOTH",
"432 136 OFFCURVE",
"398 113 OFFCURVE",
"345 88 CURVE SMOOTH",
"292 63 OFFCURVE",
"238 57 OFFCURVE",
"182 77 CURVE",
"321 215 LINE",
"350 194 OFFCURVE",
"383 178 OFFCURVE",
"399 176 CURVE SMOOTH",
"406 175 OFFCURVE",
"412 175 OFFCURVE",
"415 176 CURVE",
"417 179 OFFCURVE",
"417 185 OFFCURVE",
"416 193 CURVE",
"413 209 OFFCURVE",
"397 242 OFFCURVE",
"376 271 CURVE"
);
},
{
closed = 1;
nodes = (
"103 167 LINE",
"76 255 OFFCURVE",
"140 373 OFFCURVE",
"183 416 CURVE",
"206 437 OFFCURVE",
"256 422 OFFCURVE",
"315 379 CURVE",
"289 354 LINE",
"270 367 OFFCURVE",
"252 376 OFFCURVE",
"237 381 CURVE SMOOTH",
"221 386 OFFCURVE",
"211 386 OFFCURVE",
"208 383 CURVE",
"207 380 OFFCURVE",
"206 376 OFFCURVE",
"207 369 CURVE",
"208 356 OFFCURVE",
"221 327 OFFCURVE",
"238 302 CURVE"
);
}
);
width = 542;
}
);
unicode = 1F507;
},
{
glyphname = speakerWithThreeSoundWaves;
layers = (
{
layerId = "772A128A-47C6-487B-8519-986DC341ECA7";
name = Regular;
paths = (
{
closed = 1;
nodes = (
"152 383 OFFCURVE",
"177 382 OFFCURVE",
"213 367 CURVE SMOOTH",
"284 335 OFFCURVE",
"368 251 OFFCURVE",
"400 180 CURVE SMOOTH",
"431 108 OFFCURVE",
"399 98 OFFCURVE",
"356 72 CURVE SMOOTH",
"313 46 OFFCURVE",
"249 11 OFFCURVE",
"181 18 CURVE SMOOTH",
"113 25 OFFCURVE",
"58 80 OFFCURVE",
"51 148 CURVE SMOOTH",
"44 216 OFFCURVE",
"79 280 OFFCURVE",
"105 323 CURVE SMOOTH",
"118 344 OFFCURVE",
"129 360 OFFCURVE",
"138 369 CURVE SMOOTH"
);
},
{
closed = 1;
nodes = (
"373 132 OFFCURVE",
"372 141 OFFCURVE",
"369 154 CURVE",
"361 180 OFFCURVE",
"335 226 OFFCURVE",
"296 263 CURVE",
"259 302 OFFCURVE",
"213 328 OFFCURVE",
"187 336 CURVE",
"161 343 OFFCURVE",
"156 339 OFFCURVE",
"164 313 CURVE",
"171 287 OFFCURVE",
"198 241 OFFCURVE",
"235 202 CURVE",
"274 165 OFFCURVE",
"320 138 OFFCURVE",
"346 131 CURVE",
"359 127 OFFCURVE",
"367 126 OFFCURVE",
"370 129 CURVE SMOOTH"
);
},
{
closed = 1;
nodes = (
"361 326 OFFCURVE",
"348 338 OFFCURVE",
"348 352 CURVE SMOOTH",
"348 359 OFFCURVE",
"351 364 OFFCURVE",
"356 369 CURVE SMOOTH",
"403 417 LINE",
"415 428 OFFCURVE",
"427 428 OFFCURVE",
"439 417 CURVE",
"450 405 OFFCURVE",
"450 393 OFFCURVE",
"439 381 CURVE",
"391 334 LINE SMOOTH",
"386 329 OFFCURVE",
"380 326 OFFCURVE",
"373 326 CURVE SMOOTH"
);
},
{
closed = 1;
nodes = (
"271 395 OFFCURVE",
"267 410 OFFCURVE",
"274 422 CURVE SMOOTH",
"301 470 LINE SMOOTH",
"310 485 OFFCURVE",
"321 488 OFFCURVE",
"335 480 CURVE SMOOTH",
"347 473 OFFCURVE",
"351 458 OFFCURVE",
"344 446 CURVE SMOOTH",
"317 398 LINE SMOOTH",
"312 389 OFFCURVE",
"305 385 OFFCURVE",
"296 385 CURVE SMOOTH",
"291 385 OFFCURVE",
"287 386 OFFCURVE",
"283 388 CURVE"
);
},
{
closed = 1;
nodes = (
"500 321 OFFCURVE",
"508 307 OFFCURVE",
"504 294 CURVE SMOOTH",
"502 287 OFFCURVE",
"498 282 OFFCURVE",
"492 279 CURVE",
"444 252 LINE SMOOTH",
"439 249 OFFCURVE",
"435 248 OFFCURVE",
"432 248 CURVE SMOOTH",
"413 248 OFFCURVE",
"404 267 OFFCURVE",
"408 280 CURVE SMOOTH",
"410 287 OFFCURVE",
"414 292 OFFCURVE",
"420 295 CURVE",
"468 322 LINE",
"474 325 OFFCURVE",
"480 326 OFFCURVE",
"487 325 CURVE"
);
}
);
width = 556;
}
);
unicode = 1F50A;
},
{
glyphname = splashingSweatSymbol;
layers = (
{
layerId = "772A128A-47C6-487B-8519-986DC341ECA7";
name = Regular;
paths = (
{
closed = 1;
nodes = (
"141 440 OFFCURVE",
"174 394 OFFCURVE",
"196 358 CURVE SMOOTH",
"207 340 OFFCURVE",
"212 321 OFFCURVE",
"212 302 CURVE SMOOTH",
"212 258 OFFCURVE",
"175 222 OFFCURVE",
"131 222 CURVE SMOOTH",
"87 222 OFFCURVE",
"50 258 OFFCURVE",
"50 302 CURVE SMOOTH",
"50 321 OFFCURVE",
"56 340 OFFCURVE",
"67 358 CURVE SMOOTH",
"89 394 OFFCURVE",
"121 440 OFFCURVE",
"128 497 CURVE",
"129 498 OFFCURVE",
"130 499 OFFCURVE",
"132 499 CURVE SMOOTH",
"133 499 OFFCURVE",
"134 498 OFFCURVE",
"134 497 CURVE"
);
},
{
closed = 1;
nodes = (
"449 440 OFFCURVE",
"482 394 OFFCURVE",
"504 358 CURVE SMOOTH",
"515 340 OFFCURVE",
"520 321 OFFCURVE",
"520 302 CURVE SMOOTH",
"520 258 OFFCURVE",
"483 222 OFFCURVE",
"439 222 CURVE SMOOTH",
"395 222 OFFCURVE",
"358 258 OFFCURVE",
"358 302 CURVE SMOOTH",
"358 334 OFFCURVE",
"375 366 OFFCURVE",
"393 388 CURVE SMOOTH",
"411 410 OFFCURVE",
"431 452 OFFCURVE",
"436 497 CURVE",
"437 498 OFFCURVE",
"438 499 OFFCURVE",
"440 499 CURVE SMOOTH",
"441 499 OFFCURVE",
"442 498 OFFCURVE",
"442 497 CURVE"
);
},
{
closed = 1;
nodes = (
"283 276 OFFCURVE",
"284 277 OFFCURVE",
"286 277 CURVE SMOOTH",
"287 277 OFFCURVE",
"288 276 OFFCURVE",
"288 275 CURVE",
"295 218 OFFCURVE",
"328 172 OFFCURVE",
"350 136 CURVE SMOOTH",
"361 118 OFFCURVE",
"366 99 OFFCURVE",
"366 80 CURVE SMOOTH",
"366 36 OFFCURVE",
"329 0 OFFCURVE",
"285 0 CURVE SMOOTH",
"241 0 OFFCURVE",
"204 36 OFFCURVE",
"204 80 CURVE SMOOTH",
"204 99 OFFCURVE",
"210 118 OFFCURVE",
"221 136 CURVE SMOOTH",
"243 172 OFFCURVE",
"275 218 OFFCURVE",
"282 275 CURVE"
);
}
);
width = 570;
}
);
unicode = 1F4A6;
},
{
glyphname = sunriseOverMountains;
layers = (
{
layerId = "772A128A-47C6-487B-8519-986DC341ECA7";
name = Regular;
paths = (
{
closed = 1;
nodes = (
"478 334 LINE",
"428 334 LINE",
"366 409 LINE",
"259 334 LINE",
"169 334 LINE SMOOTH",
"134 334 OFFCURVE",
"105 304 OFFCURVE",
"105 269 CURVE SMOOTH",
"105 189 LINE",
"51 337 LINE",
"48 350 OFFCURVE",
"51 358 OFFCURVE",
"62 363 CURVE",
"402 487 LINE",
"414 490 OFFCURVE",
"422 486 OFFCURVE",
"427 475 CURVE"
);
},
{
closed = 1;
nodes = (
"531 289 LINE SMOOTH",
"542 289 OFFCURVE",
"550 280 OFFCURVE",
"550 269 CURVE SMOOTH",
"550 33 LINE SMOOTH",
"550 22 OFFCURVE",
"542 13 OFFCURVE",
"531 13 CURVE SMOOTH",
"169 13 LINE SMOOTH",
"158 13 OFFCURVE",
"150 22 OFFCURVE",
"150 33 CURVE SMOOTH",
"150 269 LINE SMOOTH",
"150 280 OFFCURVE",
"158 289 OFFCURVE",
"169 289 CURVE SMOOTH"
);
},
{
closed = 1;
nodes = (
"503 63 LINE",
"503 144 LINE",
"467 224 LINE",
"384 194 LINE",
"319 128 LINE",
"250 213 LINE",
"204 106 LINE",
"204 63 LINE"
);
}
);
width = 600;
}
);
unicode = 1F304;
},
{
glyphname = tapeDrive;
layers = (
{
layerId = "772A128A-47C6-487B-8519-986DC341ECA7";
name = Regular;
paths = (
{
closed = 1;
nodes = (
"499 365 OFFCURVE",
"550 314 OFFCURVE",
"550 250 CURVE SMOOTH",
"550 187 OFFCURVE",
"499 135 OFFCURVE",
"435 135 CURVE SMOOTH",
"165 135 LINE SMOOTH",
"102 135 OFFCURVE",
"50 187 OFFCURVE",
"50 250 CURVE SMOOTH",
"50 314 OFFCURVE",
"102 365 OFFCURVE",
"165 365 CURVE SMOOTH",
"229 365 OFFCURVE",
"280 314 OFFCURVE",
"280 250 CURVE SMOOTH",
"280 226 OFFCURVE",
"273 204 OFFCURVE",
"260 185 CURVE",
"340 185 LINE",
"327 206 OFFCURVE",
"320 228 OFFCURVE",
"320 250 CURVE SMOOTH",
"320 314 OFFCURVE",
"372 365 OFFCURVE",
"435 365 CURVE SMOOTH"
);
},
{
closed = 1;
nodes = (
"100 215 OFFCURVE",
"129 185 OFFCURVE",
"165 185 CURVE SMOOTH",
"201 185 OFFCURVE",
"230 215 OFFCURVE",
"230 250 CURVE SMOOTH",
"230 286 OFFCURVE",
"201 315 OFFCURVE",
"165 315 CURVE SMOOTH",
"129 315 OFFCURVE",
"100 286 OFFCURVE",
"100 250 CURVE SMOOTH"
);
},
{
closed = 1;
nodes = (
"402 192 OFFCURVE",
"417 185 OFFCURVE",
"435 185 CURVE SMOOTH",
"471 185 OFFCURVE",
"500 215 OFFCURVE",
"500 250 CURVE SMOOTH",
"500 286 OFFCURVE",
"471 315 OFFCURVE",
"435 315 CURVE SMOOTH",
"399 315 OFFCURVE",
"370 286 OFFCURVE",
"370 250 CURVE SMOOTH",
"370 233 OFFCURVE",
"376 218 OFFCURVE",
"389 205 CURVE SMOOTH"
);
}
);
width = 600;
}
);
unicode = 2707;
},
{
glyphname = telephoneReceiver;
layers = (
{
layerId = "772A128A-47C6-487B-8519-986DC341ECA7";
name = Regular;
paths = (
{
closed = 1;
nodes = (
"335 274 OFFCURVE",
"355 308 OFFCURVE",
"340 323 CURVE SMOOTH",
"339 324 OFFCURVE",
"338 325 OFFCURVE",
"336 327 CURVE SMOOTH",
"316 347 OFFCURVE",
"309 354 OFFCURVE",
"314 378 CURVE",
"316 390 OFFCURVE",
"324 405 OFFCURVE",
"338 422 CURVE SMOOTH",
"351 438 OFFCURVE",
"362 449 OFFCURVE",
"374 450 CURVE",
"380 450 OFFCURVE",
"385 450 OFFCURVE",
"389 450 CURVE SMOOTH",
"393 450 OFFCURVE",
"398 448 OFFCURVE",
"404 444 CURVE",
"409 439 OFFCURVE",
"413 436 OFFCURVE",
"416 435 CURVE",
"418 433 OFFCURVE",
"422 429 OFFCURVE",
"429 422 CURVE",
"435 415 OFFCURVE",
"438 412 OFFCURVE",
"439 411 CURVE SMOOTH",
"455 395 OFFCURVE",
"454 363 OFFCURVE",
"436 314 CURVE SMOOTH",
"400 217 OFFCURVE",
"283 101 OFFCURVE",
"187 65 CURVE SMOOTH",
"138 46 OFFCURVE",
"106 45 OFFCURVE",
"90 61 CURVE SMOOTH",
"89 62 OFFCURVE",
"86 65 OFFCURVE",
"79 72 CURVE",
"65 85 OFFCURVE",
"66 84 OFFCURVE",
"57 97 CURVE",
"52 103 OFFCURVE",
"50 108 OFFCURVE",
"51 112 CURVE",
"51 116 OFFCURVE",
"51 121 OFFCURVE",
"52 127 CURVE",
"52 139 OFFCURVE",
"62 150 OFFCURVE",
"78 163 CURVE SMOOTH",
"106 186 OFFCURVE",
"123 195 OFFCURVE",
"140 188 CURVE",
"157 180 OFFCURVE",
"157 180 OFFCURVE",
"177 160 CURVE SMOOTH",
"192 145 OFFCURVE",
"226 165 OFFCURVE",
"281 220 CURVE SMOOTH"
);
}
);
width = 500;
}
);
unicode = 1F4DE;
},
{
glyphname = threeDTopLightedRightwardsArrowhead;
layers = (
{
layerId = "772A128A-47C6-487B-8519-986DC341ECA7";
name = Regular;
paths = (
{
closed = 1;
nodes = (
"472 463 OFFCURVE",
"478 456 OFFCURVE",
"480 451 CURVE SMOOTH",
"482 446 OFFCURVE",
"477 435 OFFCURVE",
"474 427 CURVE",
"472 423 OFFCURVE",
"469 417 OFFCURVE",
"464 408 CURVE SMOOTH",
"459 399 OFFCURVE",
"455 390 OFFCURVE",
"452 383 CURVE",
"416 308 OFFCURVE",
"343 173 OFFCURVE",
"300 94 CURVE SMOOTH",
"267 35 LINE",
"240 225 LINE",
"50 253 LINE",
"197 335 OFFCURVE",
"313 396 OFFCURVE",
"398 437 CURVE",
"405 440 OFFCURVE",
"413 445 OFFCURVE",
"422 450 CURVE SMOOTH",
"441 460 OFFCURVE",
"445 461 OFFCURVE",
"454 464 CURVE",
"459 465 OFFCURVE",
"463 466 OFFCURVE",
"466 465 CURVE SMOOTH"
);
},
{
closed = 1;
nodes = (
"428 411 LINE",
"276 271 LINE",
"290 154 LINE"
);
}
);
width = 530;
}
);
unicode = 27A2;
},
{
glyphname = thumbsDownSign;
layers = (
{
layerId = "772A128A-47C6-487B-8519-986DC341ECA7";
name = Regular;
paths = (
{
closed = 1;
nodes = (
"158 186 OFFCURVE",
"149 188 OFFCURVE",
"131 191 CURVE",
"94 195 OFFCURVE",
"50 206 OFFCURVE",
"50 226 CURVE SMOOTH",
"50 274 OFFCURVE",
"105 475 OFFCURVE",
"134 475 CURVE SMOOTH",
"230 475 OFFCURVE",
"350 440 OFFCURVE",
"350 409 CURVE SMOOTH",
"350 238 LINE SMOOTH",
"350 231 OFFCURVE",
"345 222 OFFCURVE",
"334 211 CURVE",
"322 200 OFFCURVE",
"315 193 OFFCURVE",
"297 181 CURVE",
"288 174 OFFCURVE",
"281 169 OFFCURVE",
"276 166 CURVE",
"267 159 OFFCURVE",
"243 144 OFFCURVE",
"239 141 CURVE SMOOTH",
"206 118 OFFCURVE",
"165 64 OFFCURVE",
"145 39 CURVE SMOOTH",
"134 26 OFFCURVE",
"127 22 OFFCURVE",
"124 26 CURVE",
"92 77 OFFCURVE",
"112 115 OFFCURVE",
"139 154 CURVE SMOOTH",
"152 173 OFFCURVE",
"159 183 OFFCURVE",
"159 184 CURVE"
);
},
{
closed = 1;
nodes = (
"371 186 OFFCURVE",
"371 188 OFFCURVE",
"376 193 CURVE SMOOTH",
"392 210 OFFCURVE",
"400 227 OFFCURVE",
"400 245 CURVE SMOOTH",
"400 404 LINE SMOOTH",
"400 421 OFFCURVE",
"391 438 OFFCURVE",
"374 456 CURVE SMOOTH",
"371 459 OFFCURVE",
"371 461 OFFCURVE",
"375 461 CURVE SMOOTH",
"392 461 OFFCURVE",
"412 459 OFFCURVE",
"434 435 CURVE",
"445 422 OFFCURVE",
"450 406 OFFCURVE",
"450 385 CURVE SMOOTH",
"450 264 LINE SMOOTH",
"450 232 OFFCURVE",
"437 210 OFFCURVE",
"419 200 CURVE SMOOTH",
"401 190 OFFCURVE",
"387 186 OFFCURVE",
"375 186 CURVE SMOOTH"
);
}
);
width = 500;
}
);
unicode = 1F44E;
},
{
glyphname = thumbsUpSign;
layers = (
{
layerId = "772A128A-47C6-487B-8519-986DC341ECA7";
name = Regular;
paths = (
{
closed = 1;
nodes = (
"342 313 OFFCURVE",
"351 311 OFFCURVE",
"370 309 CURVE SMOOTH",
"407 304 OFFCURVE",
"450 293 OFFCURVE",
"450 273 CURVE SMOOTH",
"450 225 OFFCURVE",
"397 25 OFFCURVE",
"366 25 CURVE SMOOTH",
"270 25 OFFCURVE",
"150 59 OFFCURVE",
"150 90 CURVE SMOOTH",
"150 261 LINE SMOOTH",
"150 270 OFFCURVE",
"160 284 OFFCURVE",
"181 301 CURVE SMOOTH",
"201 317 OFFCURVE",
"211 325 OFFCURVE",
"238 343 CURVE SMOOTH",
"251 352 OFFCURVE",
"259 357 OFFCURVE",
"261 358 CURVE",
"294 381 OFFCURVE",
"335 435 OFFCURVE",
"356 460 CURVE",
"366 473 OFFCURVE",
"373 477 OFFCURVE",
"376 473 CURVE",
"408 422 OFFCURVE",
"388 384 OFFCURVE",
"361 345 CURVE SMOOTH",
"348 326 OFFCURVE",
"341 316 OFFCURVE",
"341 315 CURVE"
);
},
{
closed = 1;
nodes = (
"130 313 OFFCURVE",
"130 311 OFFCURVE",
"125 306 CURVE SMOOTH",
"108 289 OFFCURVE",
"100 272 OFFCURVE",
"100 254 CURVE SMOOTH",
"100 95 LINE SMOOTH",
"100 78 OFFCURVE",
"109 61 OFFCURVE",
"126 43 CURVE SMOOTH",
"129 40 OFFCURVE",
"129 38 OFFCURVE",
"125 38 CURVE SMOOTH",
"108 38 OFFCURVE",
"89 40 OFFCURVE",
"67 65 CURVE SMOOTH",
"56 77 OFFCURVE",
"50 93 OFFCURVE",
"50 114 CURVE SMOOTH",
"50 235 LINE SMOOTH",
"50 276 OFFCURVE",
"78 303 OFFCURVE",
"98 309 CURVE SMOOTH",
"108 312 OFFCURVE",
"117 313 OFFCURVE",
"125 313 CURVE SMOOTH"
);
}
);
width = 500;
}
);
unicode = 1F44D;
},
{
glyphname = thunderCloudAndRain;
layers = (
{
layerId = "772A128A-47C6-487B-8519-986DC341ECA7";
name = Regular;
paths = (
{
closed = 1;
nodes = (
"497 322 OFFCURVE",
"550 270 OFFCURVE",
"550 205 CURVE SMOOTH",
"550 140 OFFCURVE",
"497 88 OFFCURVE",
"430 88 CURVE SMOOTH",
"141 88 LINE SMOOTH",
"92 88 OFFCURVE",
"50 128 OFFCURVE",
"50 176 CURVE SMOOTH",
"50 225 OFFCURVE",
"90 265 OFFCURVE",
"141 265 CURVE SMOOTH",
"142 265 OFFCURVE",
"143 265 OFFCURVE",
"146 265 CURVE",
"149 264 OFFCURVE",
"150 264 OFFCURVE",
"151 264 CURVE",
"150 268 OFFCURVE",
"150 274 OFFCURVE",
"150 283 CURVE SMOOTH",
"150 355 OFFCURVE",
"210 413 OFFCURVE",
"283 413 CURVE SMOOTH",
"343 413 OFFCURVE",
"394 375 OFFCURVE",
"410 320 CURVE",
"419 321 OFFCURVE",
"426 322 OFFCURVE",
"430 322 CURVE SMOOTH"
);
},
{
closed = 1;
nodes = (
"339 219 OFFCURVE",
"341 224 OFFCURVE",
"341 229 CURVE SMOOTH",
"341 236 OFFCURVE",
"336 241 OFFCURVE",
"326 245 CURVE",
"324 245 LINE",
"315 250 OFFCURVE",
"309 252 OFFCURVE",
"305 253 CURVE",
"330 311 LINE",
"332 311 OFFCURVE",
"333 314 OFFCURVE",
"333 321 CURVE SMOOTH",
"333 326 OFFCURVE",
"332 329 OFFCURVE",
"329 330 CURVE",
"318 337 OFFCURVE",
"316 330 OFFCURVE",
"297 310 CURVE SMOOTH",
"278 290 OFFCURVE",
"252 262 OFFCURVE",
"244 251 CURVE",
"240 245 OFFCURVE",
"238 240 OFFCURVE",
"238 236 CURVE SMOOTH",
"238 229 OFFCURVE",
"243 224 OFFCURVE",
"253 221 CURVE",
"255 220 LINE",
"258 219 OFFCURVE",
"264 216 OFFCURVE",
"274 212 CURVE",
"248 155 LINE",
"247 151 LINE",
"246 148 OFFCURVE",
"246 146 OFFCURVE",
"246 144 CURVE SMOOTH",
"246 141 OFFCURVE",
"247 138 OFFCURVE",
"250 135 CURVE",
"256 132 OFFCURVE",
"262 133 OFFCURVE",
"267 140 CURVE",
"300 173 OFFCURVE",
"323 198 OFFCURVE",
"334 214 CURVE"
);
}
);
width = 600;
}
);
unicode = 26C8;
},
{
glyphname = ticket;
layers = (
{
layerId = "772A128A-47C6-487B-8519-986DC341ECA7";
name = Regular;
paths = (
{
closed = 1;
nodes = (
"158 211 LINE",
"321 374 LINE",
"410 285 LINE",
"247 122 LINE"
);
},
{
closed = 1;
nodes = (
"513 333 LINE SMOOTH",
"518 328 OFFCURVE",
"520 322 OFFCURVE",
"520 315 CURVE SMOOTH",
"520 308 OFFCURVE",
"518 302 OFFCURVE",
"513 297 CURVE SMOOTH",
"238 22 LINE SMOOTH",
"233 17 OFFCURVE",
"227 14 OFFCURVE",
"220 14 CURVE SMOOTH",
"213 14 OFFCURVE",
"207 17 OFFCURVE",
"202 22 CURVE SMOOTH",
"164 60 LINE",
"168 67 OFFCURVE",
"170 75 OFFCURVE",
"170 84 CURVE SMOOTH",
"170 112 OFFCURVE",
"148 135 OFFCURVE",
"120 135 CURVE SMOOTH",
"113 135 OFFCURVE",
"104 133 OFFCURVE",
"95 128 CURVE",
"58 166 LINE SMOOTH",
"53 171 OFFCURVE",
"50 177 OFFCURVE",
"50 184 CURVE SMOOTH",
"50 191 OFFCURVE",
"53 197 OFFCURVE",
"58 202 CURVE SMOOTH",
"333 477 LINE SMOOTH",
"338 482 OFFCURVE",
"344 484 OFFCURVE",
"351 484 CURVE SMOOTH",
"358 484 OFFCURVE",
"364 482 OFFCURVE",
"369 477 CURVE SMOOTH",
"406 439 LINE",
"402 432 OFFCURVE",
"400 424 OFFCURVE",
"400 415 CURVE SMOOTH",
"400 387 OFFCURVE",
"423 365 OFFCURVE",
"451 365 CURVE SMOOTH",
"460 365 OFFCURVE",
"468 367 OFFCURVE",
"475 371 CURVE"
);
},
{
closed = 1;
nodes = (
"247 82 LINE",
"450 285 LINE",
"321 414 LINE",
"117 211 LINE"
);
}
);
width = 571;
}
);
unicode = 1F3AB;
},
{
glyphname = trigramForHeaven;
layers = (
{
layerId = "772A128A-47C6-487B-8519-986DC341ECA7";
name = Regular;
paths = (
{
closed = 1;
nodes = (
"375 275 LINE SMOOTH",
"390 275 OFFCURVE",
"400 263 OFFCURVE",
"400 250 CURVE SMOOTH",
"400 237 OFFCURVE",
"388 225 OFFCURVE",
"375 225 CURVE SMOOTH",
"75 225 LINE SMOOTH",
"62 225 OFFCURVE",
"50 237 OFFCURVE",
"50 250 CURVE SMOOTH",
"50 263 OFFCURVE",
"60 275 OFFCURVE",
"75 275 CURVE SMOOTH"
);
},
{
closed = 1;
nodes = (
"75 325 LINE SMOOTH",
"62 325 OFFCURVE",
"50 337 OFFCURVE",
"50 350 CURVE SMOOTH",
"50 363 OFFCURVE",
"60 375 OFFCURVE",
"75 375 CURVE SMOOTH",
"375 375 LINE SMOOTH",
"390 375 OFFCURVE",
"400 363 OFFCURVE",
"400 350 CURVE SMOOTH",
"400 337 OFFCURVE",
"388 325 OFFCURVE",
"375 325 CURVE SMOOTH"
);
},
{
closed = 1;
nodes = (
"375 175 LINE SMOOTH",
"390 175 OFFCURVE",
"400 163 OFFCURVE",
"400 150 CURVE SMOOTH",
"400 137 OFFCURVE",
"388 125 OFFCURVE",
"375 125 CURVE SMOOTH",
"75 125 LINE SMOOTH",
"62 125 OFFCURVE",
"50 137 OFFCURVE",
"50 150 CURVE SMOOTH",
"50 163 OFFCURVE",
"60 175 OFFCURVE",
"75 175 CURVE SMOOTH"
);
}
);
width = 450;
}
);
unicode = 2630;
},
{
glyphname = trophy;
layers = (
{
layerId = "772A128A-47C6-487B-8519-986DC341ECA7";
name = Regular;
paths = (
{
closed = 1;
nodes = (
"305 109 LINE",
"352 104 OFFCURVE",
"386 86 OFFCURVE",
"386 65 CURVE SMOOTH",
"386 53 OFFCURVE",
"375 43 OFFCURVE",
"354 34 CURVE SMOOTH",
"332 25 OFFCURVE",
"306 20 OFFCURVE",
"275 20 CURVE SMOOTH",
"245 20 OFFCURVE",
"219 25 OFFCURVE",
"197 34 CURVE SMOOTH",
"175 43 OFFCURVE",
"164 53 OFFCURVE",
"164 65 CURVE SMOOTH",
"164 86 OFFCURVE",
"198 104 OFFCURVE",
"246 109 CURVE",
"246 142 LINE SMOOTH",
"246 175 OFFCURVE",
"226 192 OFFCURVE",
"173 228 CURVE SMOOTH",
"136 252 OFFCURVE",
"121 263 OFFCURVE",
"92 295 CURVE SMOOTH",
"63 326 OFFCURVE",
"50 366 OFFCURVE",
"50 417 CURVE SMOOTH",
"50 426 OFFCURVE",
"59 434 OFFCURVE",
"68 434 CURVE SMOOTH",
"154 434 LINE",
"170 465 OFFCURVE",
"210 480 OFFCURVE",
"275 480 CURVE SMOOTH",
"340 480 OFFCURVE",
"381 465 OFFCURVE",
"397 434 CURVE",
"482 434 LINE SMOOTH",
"491 434 OFFCURVE",
"500 426 OFFCURVE",
"500 417 CURVE SMOOTH",
"500 366 OFFCURVE",
"487 326 OFFCURVE",
"458 295 CURVE SMOOTH",
"429 263 OFFCURVE",
"414 252 OFFCURVE",
"377 228 CURVE SMOOTH",
"325 193 OFFCURVE",
"305 175 OFFCURVE",
"305 142 CURVE SMOOTH"
);
},
{
closed = 1;
nodes = (
"427 305 OFFCURVE",
"459 339 OFFCURVE",
"464 399 CURVE",
"401 399 LINE",
"399 346 OFFCURVE",
"390 303 OFFCURVE",
"374 268 CURVE"
);
},
{
closed = 1;
nodes = (
"314 448 OFFCURVE",
"296 450 OFFCURVE",
"275 450 CURVE SMOOTH",
"234 450 OFFCURVE",
"201 438 OFFCURVE",
"189 427 CURVE",
"183 421 OFFCURVE",
"180 416 OFFCURVE",
"180 412 CURVE SMOOTH",
"180 407 OFFCURVE",
"183 402 OFFCURVE",
"189 397 CURVE",
"201 385 OFFCURVE",
"234 373 OFFCURVE",
"275 373 CURVE SMOOTH",
"316 373 OFFCURVE",
"349 385 OFFCURVE",
"361 397 CURVE",
"367 402 OFFCURVE",
"370 407 OFFCURVE",
"370 412 CURVE SMOOTH",
"370 416 OFFCURVE",
"367 421 OFFCURVE",
"361 427 CURVE",
"355 432 OFFCURVE",
"344 438 OFFCURVE",
"329 443 CURVE SMOOTH"
);
},
{
closed = 1;
nodes = (
"86 399 LINE",
"91 339 OFFCURVE",
"123 305 OFFCURVE",
"176 268 CURVE",
"160 303 OFFCURVE",
"151 346 OFFCURVE",
"149 399 CURVE"
);
}
);
width = 550;
}
);
unicode = 1F3C6;
},
{
glyphname = twistedRightwardsArrows;
layers = (
{
layerId = "772A128A-47C6-487B-8519-986DC341ECA7";
name = Regular;
paths = (
{
closed = 1;
nodes = (
"427 333 LINE SMOOTH",
"391 333 OFFCURVE",
"354 307 OFFCURVE",
"335 284 CURVE",
"325 273 OFFCURVE",
"311 255 OFFCURVE",
"293 232 CURVE SMOOTH",
"261 191 OFFCURVE",
"251 177 OFFCURVE",
"217 147 CURVE SMOOTH",
"183 117 OFFCURVE",
"146 103 OFFCURVE",
"102 103 CURVE SMOOTH",
"50 103 LINE",
"50 173 LINE",
"102 173 LINE SMOOTH",
"138 173 OFFCURVE",
"176 199 OFFCURVE",
"196 222 CURVE SMOOTH",
"205 233 OFFCURVE",
"219 251 OFFCURVE",
"237 274 CURVE SMOOTH",
"278 329 OFFCURVE",
"294 352 OFFCURVE",
"346 381 CURVE SMOOTH",
"371 396 OFFCURVE",
"398 403 OFFCURVE",
"427 403 CURVE SMOOTH",
"445 403 LINE",
"445 463 LINE",
"550 373 LINE",
"445 283 LINE",
"445 333 LINE"
);
},
{
closed = 1;
nodes = (
"160 315 OFFCURVE",
"133 328 OFFCURVE",
"102 328 CURVE SMOOTH",
"50 328 LINE",
"50 398 LINE",
"102 398 LINE SMOOTH",
"149 398 OFFCURVE",
"191 380 OFFCURVE",
"229 344 CURVE",
"224 339 OFFCURVE",
"218 331 OFFCURVE",
"211 322 CURVE SMOOTH",
"203 312 OFFCURVE",
"198 306 OFFCURVE",
"197 305 CURVE",
"194 301 OFFCURVE",
"190 296 OFFCURVE",
"185 289 CURVE"
);
},
{
closed = 1;
nodes = (
"445 168 LINE",
"445 218 LINE",
"550 128 LINE",
"445 38 LINE",
"445 98 LINE",
"427 98 LINE SMOOTH",
"380 98 OFFCURVE",
"337 117 OFFCURVE",
"297 156 CURVE",
"312 175 OFFCURVE",
"324 191 OFFCURVE",
"333 202 CURVE",
"333 203 OFFCURVE",
"334 204 OFFCURVE",
"336 207 CURVE",
"338 209 OFFCURVE",
"339 211 OFFCURVE",
"340 212 CURVE",
"368 183 OFFCURVE",
"397 168 OFFCURVE",
"427 168 CURVE SMOOTH"
);
}
);
width = 600;
}
);
unicode = 1F500;
},
{
glyphname = upBlackArrow;
layers = (
{
layerId = "772A128A-47C6-487B-8519-986DC341ECA7";
name = Regular;
paths = (
{
closed = 1;
nodes = (
"380 243 LINE",
"284 243 LINE",
"284 68 LINE",
"146 68 LINE",
"146 243 LINE",
"50 243 LINE",
"215 433 LINE"
);
}
);
width = 430;
}
);
unicode = 2B06;
},
{
glyphname = warningSign;
layers = (
{
layerId = "772A128A-47C6-487B-8519-986DC341ECA7";
name = Regular;
paths = (
{
closed = 1;
nodes = (
"529 63 LINE",
"536 52 OFFCURVE",
"527 38 OFFCURVE",
"514 38 CURVE SMOOTH",
"68 38 LINE SMOOTH",
"56 38 OFFCURVE",
"46 52 OFFCURVE",
"53 63 CURVE",
"276 454 LINE",
"279 460 OFFCURVE",
"284 463 OFFCURVE",
"291 463 CURVE SMOOTH",
"298 463 OFFCURVE",
"303 460 OFFCURVE",
"306 454 CURVE"
);
},
{
closed = 1;
nodes = (
"319 88 LINE",
"319 138 LINE",
"264 138 LINE",
"264 88 LINE"
);
},
{
closed = 1;
nodes = (
"319 175 LINE",
"319 325 LINE",
"264 325 LINE",
"264 175 LINE"
);
}
);
width = 582;
}
);
unicode = 26A0;
},
{
glyphname = whitestar;
layers = (
{
layerId = "772A128A-47C6-487B-8519-986DC341ECA7";
name = Regular;
paths = (
{
closed = 1;
nodes = (
"490 302 LINE",
"359 204 LINE",
"406 30 LINE",
"270 134 LINE",
"134 30 LINE",
"181 204 LINE",
"50 302 LINE",
"210 302 LINE",
"270 470 LINE",
"330 302 LINE"
);
},
{
closed = 1;
nodes = (
"270 183 LINE",
"345 121 LINE",
"314 210 LINE",
"386 267 LINE",
"298 265 LINE",
"270 366 LINE",
"243 265 LINE",
"155 267 LINE",
"226 210 LINE",
"195 121 LINE"
);
}
);
width = 540;
}
);
unicode = 2B52;
},
{
glyphname = "add-to-list";
layers = (
{
layerId = "772A128A-47C6-487B-8519-986DC341ECA7";
name = Regular;
paths = (
{
closed = 1;
nodes = (
"225 275 LINE SMOOTH",
"240 275 OFFCURVE",
"250 263 OFFCURVE",
"250 250 CURVE SMOOTH",
"250 237 OFFCURVE",
"238 225 OFFCURVE",
"225 225 CURVE SMOOTH",
"75 225 LINE SMOOTH",
"62 225 OFFCURVE",
"50 237 OFFCURVE",
"50 250 CURVE SMOOTH",
"50 263 OFFCURVE",
"60 275 OFFCURVE",
"75 275 CURVE SMOOTH"
);
},
{
closed = 1;
nodes = (
"225 175 LINE SMOOTH",
"240 175 OFFCURVE",
"250 163 OFFCURVE",
"250 150 CURVE SMOOTH",
"250 137 OFFCURVE",
"238 125 OFFCURVE",
"225 125 CURVE SMOOTH",
"75 125 LINE SMOOTH",
"62 125 OFFCURVE",
"50 137 OFFCURVE",
"50 150 CURVE SMOOTH",
"50 163 OFFCURVE",
"60 175 OFFCURVE",
"75 175 CURVE SMOOTH"
);
},
{
closed = 1;
nodes = (
"535 275 LINE SMOOTH",
"545 275 OFFCURVE",
"550 267 OFFCURVE",
"550 250 CURVE SMOOTH",
"550 233 OFFCURVE",
"545 225 OFFCURVE",
"535 225 CURVE SMOOTH",
"450 225 LINE",
"450 140 LINE SMOOTH",
"450 130 OFFCURVE",
"442 125 OFFCURVE",
"425 125 CURVE SMOOTH",
"408 125 OFFCURVE",
"400 130 OFFCURVE",
"400 140 CURVE SMOOTH",
"400 225 LINE",
"318 225 LINE SMOOTH",
"308 225 OFFCURVE",
"303 233 OFFCURVE",
"303 250 CURVE SMOOTH",
"303 267 OFFCURVE",
"308 275 OFFCURVE",
"318 275 CURVE SMOOTH",
"400 275 LINE",
"400 360 LINE SMOOTH",
"400 370 OFFCURVE",
"408 375 OFFCURVE",
"425 375 CURVE SMOOTH",
"442 375 OFFCURVE",
"450 370 OFFCURVE",
"450 360 CURVE SMOOTH",
"450 275 LINE"
);
},
{
closed = 1;
nodes = (
"225 375 LINE SMOOTH",
"240 375 OFFCURVE",
"250 363 OFFCURVE",
"250 350 CURVE SMOOTH",
"250 337 OFFCURVE",
"238 325 OFFCURVE",
"225 325 CURVE SMOOTH",
"75 325 LINE SMOOTH",
"62 325 OFFCURVE",
"50 337 OFFCURVE",
"50 350 CURVE SMOOTH",
"50 363 OFFCURVE",
"60 375 OFFCURVE",
"75 375 CURVE SMOOTH"
);
}
);
width = 600;
}
);
unicode = E003;
},
{
glyphname = "add-user";
layers = (
{
layerId = "772A128A-47C6-487B-8519-986DC341ECA7";
name = Regular;
paths = (
{
closed = 1;
nodes = (
"420 118 OFFCURVE",
"450 97 OFFCURVE",
"450 78 CURVE SMOOTH",
"450 25 LINE",
"50 25 LINE",
"50 126 LINE",
"62 131 OFFCURVE",
"76 135 OFFCURVE",
"91 139 CURVE",
"154 162 OFFCURVE",
"173 181 OFFCURVE",
"173 221 CURVE SMOOTH",
"173 228 OFFCURVE",
"169 236 OFFCURVE",
"162 245 CURVE",
"154 254 OFFCURVE",
"149 266 OFFCURVE",
"146 282 CURVE",
"145 286 OFFCURVE",
"142 290 OFFCURVE",
"135 295 CURVE",
"128 299 OFFCURVE",
"123 309 OFFCURVE",
"122 325 CURVE",
"122 330 OFFCURVE",
"123 335 OFFCURVE",
"125 338 CURVE",
"126 341 OFFCURVE",
"128 343 OFFCURVE",
"129 344 CURVE SMOOTH",
"131 346 LINE",
"126 379 OFFCURVE",
"114 407 OFFCURVE",
"145 446 CURVE SMOOTH",
"160 465 OFFCURVE",
"187 475 OFFCURVE",
"225 475 CURVE SMOOTH",
"301 475 OFFCURVE",
"329 426 OFFCURVE",
"326 390 CURVE",
"319 346 LINE",
"331 341 OFFCURVE",
"328 314 OFFCURVE",
"324 304 CURVE",
"321 299 OFFCURVE",
"319 296 OFFCURVE",
"317 295 CURVE",
"312 294 OFFCURVE",
"306 290 OFFCURVE",
"305 282 CURVE",
"302 267 OFFCURVE",
"296 255 OFFCURVE",
"289 246 CURVE",
"281 237 OFFCURVE",
"277 228 OFFCURVE",
"277 221 CURVE SMOOTH",
"277 181 OFFCURVE",
"297 162 OFFCURVE",
"360 139 CURVE SMOOTH"
);
},
{
closed = 1;
nodes = (
"475 275 LINE",
"550 275 LINE",
"550 225 LINE",
"475 225 LINE",
"475 150 LINE",
"425 150 LINE",
"425 225 LINE",
"350 225 LINE",
"350 275 LINE",
"425 275 LINE",
"425 350 LINE",
"475 350 LINE"
);
}
);
width = 600;
}
);
unicode = E700;
},
{
glyphname = address;
layers = (
{
layerId = "772A128A-47C6-487B-8519-986DC341ECA7";
name = Regular;
paths = (
{
closed = 1;
nodes = (
"263 475 LINE SMOOTH",
"270 475 OFFCURVE",
"273 472 OFFCURVE",
"273 465 CURVE SMOOTH",
"273 35 LINE SMOOTH",
"273 28 OFFCURVE",
"270 25 OFFCURVE",
"263 25 CURVE SMOOTH",
"240 25 LINE SMOOTH",
"233 25 OFFCURVE",
"230 28 OFFCURVE",
"230 35 CURVE SMOOTH",
"230 255 LINE",
"142 255 LINE SMOOTH",
"131 255 OFFCURVE",
"124 257 OFFCURVE",
"115 264 CURVE",
"55 305 LINE SMOOTH",
"52 307 OFFCURVE",
"50 310 OFFCURVE",
"50 313 CURVE SMOOTH",
"50 316 OFFCURVE",
"52 319 OFFCURVE",
"55 321 CURVE SMOOTH",
"115 362 LINE",
"124 369 OFFCURVE",
"129 370 OFFCURVE",
"142 370 CURVE SMOOTH",
"230 370 LINE",
"230 465 LINE SMOOTH",
"230 472 OFFCURVE",
"233 475 OFFCURVE",
"240 475 CURVE SMOOTH"
);
},
{
closed = 1;
nodes = (
"545 371 LINE SMOOTH",
"548 369 OFFCURVE",
"550 366 OFFCURVE",
"550 363 CURVE SMOOTH",
"550 360 OFFCURVE",
"548 357 OFFCURVE",
"545 355 CURVE SMOOTH",
"486 314 LINE",
"471 306 OFFCURVE",
"468 305 OFFCURVE",
"459 305 CURVE SMOOTH",
"308 305 LINE",
"288 420 LINE",
"459 420 LINE SMOOTH",
"471 420 OFFCURVE",
"475 417 OFFCURVE",
"486 412 CURVE"
);
}
);
width = 600;
}
);
unicode = E723;
},
{
glyphname = archive;
layers = (
{
layerId = "772A128A-47C6-487B-8519-986DC341ECA7";
name = Regular;
paths = (
{
closed = 1;
nodes = (
"469 350 LINE",
"121 350 LINE",
"121 375 LINE SMOOTH",
"121 390 OFFCURVE",
"132 399 OFFCURVE",
"140 400 CURVE",
"146 400 LINE",
"444 400 LINE SMOOTH",
"446 400 OFFCURVE",
"448 400 OFFCURVE",
"451 400 CURVE",
"456 399 OFFCURVE",
"469 390 OFFCURVE",
"469 375 CURVE SMOOTH"
);
},
{
closed = 1;
nodes = (
"395 450 LINE SMOOTH",
"397 450 OFFCURVE",
"399 450 OFFCURVE",
"402 450 CURVE",
"407 449 OFFCURVE",
"420 440 OFFCURVE",
"420 425 CURVE",
"171 425 LINE",
"171 440 OFFCURVE",
"182 449 OFFCURVE",
"190 450 CURVE",
"196 450 LINE"
);
},
{
closed = 1;
nodes = (
"519 350 LINE",
"542 329 OFFCURVE",
"542 324 OFFCURVE",
"538 300 CURVE SMOOTH",
"500 75 LINE SMOOTH",
"497 60 OFFCURVE",
"484 51 OFFCURVE",
"476 50 CURVE",
"469 50 LINE",
"121 50 LINE SMOOTH",
"104 50 OFFCURVE",
"94 58 OFFCURVE",
"91 75 CURVE",
"89 84 OFFCURVE",
"83 121 OFFCURVE",
"72 187 CURVE SMOOTH",
"61 252 OFFCURVE",
"54 290 OFFCURVE",
"52 300 CURVE",
"45 315 OFFCURVE",
"54 332 OFFCURVE",
"56 335 CURVE",
"57 336 OFFCURVE",
"60 340 OFFCURVE",
"66 345 CURVE",
"68 347 OFFCURVE",
"70 349 OFFCURVE",
"71 350 CURVE SMOOTH",
"86 365 LINE",
"86 325 LINE",
"504 325 LINE",
"504 365 LINE"
);
},
{
closed = 1;
nodes = (
"395 215 LINE",
"395 265 LINE",
"360 265 LINE",
"360 225 LINE",
"230 225 LINE",
"230 265 LINE",
"196 265 LINE",
"196 215 LINE SMOOTH",
"196 198 OFFCURVE",
"204 190 OFFCURVE",
"220 190 CURVE SMOOTH",
"370 190 LINE SMOOTH",
"385 190 OFFCURVE",
"394 200 OFFCURVE",
"394 208 CURVE"
);
}
);
width = 590;
}
);
unicode = E800;
},
{
glyphname = "area-graph";
layers = (
{
layerId = "772A128A-47C6-487B-8519-986DC341ECA7";
name = Regular;
paths = (
{
closed = 1;
nodes = (
"532 441 LINE",
"537 448 OFFCURVE",
"540 448 OFFCURVE",
"540 439 CURVE SMOOTH",
"540 55 LINE",
"58 55 LINE SMOOTH",
"50 55 OFFCURVE",
"48 60 OFFCURVE",
"53 67 CURVE",
"168 211 LINE",
"175 218 OFFCURVE",
"181 219 OFFCURVE",
"188 212 CURVE",
"225 179 LINE",
"232 174 OFFCURVE",
"240 174 OFFCURVE",
"244 181 CURVE",
"323 300 LINE",
"328 309 OFFCURVE",
"335 309 OFFCURVE",
"342 302 CURVE",
"398 250 LINE",
"405 243 OFFCURVE",
"411 244 OFFCURVE",
"417 252 CURVE"
);
}
);
width = 590;
}
);
unicode = 1F53E;
},
{
glyphname = "arrow-combo";
layers = (
{
layerId = "772A128A-47C6-487B-8519-986DC341ECA7";
name = Regular;
paths = (
{
closed = 1;
nodes = (
"165 500 LINE",
"280 318 LINE",
"50 318 LINE"
);
},
{
closed = 1;
nodes = (
"165 0 LINE",
"50 183 LINE",
"280 183 LINE"
);
}
);
width = 330;
}
);
unicode = E74F;
},
{
glyphname = "back-in-time";
layers = (
{
layerId = "772A128A-47C6-487B-8519-986DC341ECA7";
name = Regular;
paths = (
{
closed = 1;
nodes = (
"429 455 OFFCURVE",
"520 363 OFFCURVE",
"520 250 CURVE SMOOTH",
"520 137 OFFCURVE",
"429 45 OFFCURVE",
"316 45 CURVE SMOOTH",
"270 45 OFFCURVE",
"228 60 OFFCURVE",
"190 89 CURVE",
"225 127 LINE",
"252 107 OFFCURVE",
"283 97 OFFCURVE",
"316 97 CURVE SMOOTH",
"400 97 OFFCURVE",
"469 166 OFFCURVE",
"469 250 CURVE SMOOTH",
"469 335 OFFCURVE",
"400 404 OFFCURVE",
"316 404 CURVE SMOOTH",
"233 404 OFFCURVE",
"166 339 OFFCURVE",
"163 256 CURVE",
"234 256 LINE",
"142 153 LINE",
"50 256 LINE",
"112 256 LINE",
"115 367 OFFCURVE",
"205 455 OFFCURVE",
"316 455 CURVE SMOOTH"
);
},
{
closed = 1;
nodes = (
"298 360 LINE",
"333 360 LINE",
"333 258 LINE",
"398 193 LINE",
"373 168 LINE",
"298 243 LINE"
);
}
);
width = 570;
}
);
unicode = E771;
},
{
glyphname = browser;
layers = (
{
layerId = "772A128A-47C6-487B-8519-986DC341ECA7";
name = Regular;
paths = (
{
closed = 1;
nodes = (
"500 450 LINE SMOOTH",
"528 450 OFFCURVE",
"550 427 OFFCURVE",
"550 400 CURVE SMOOTH",
"550 100 LINE SMOOTH",
"550 72 OFFCURVE",
"528 50 OFFCURVE",
"500 50 CURVE SMOOTH",
"100 50 LINE SMOOTH",
"73 50 OFFCURVE",
"50 72 OFFCURVE",
"50 100 CURVE SMOOTH",
"50 400 LINE SMOOTH",
"50 427 OFFCURVE",
"73 450 OFFCURVE",
"100 450 CURVE SMOOTH"
);
},
{
closed = 1;
nodes = (
"175 401 OFFCURVE",
"170 403 OFFCURVE",
"165 403 CURVE SMOOTH",
"154 403 OFFCURVE",
"146 394 OFFCURVE",
"146 385 CURVE SMOOTH",
"146 374 OFFCURVE",
"154 366 OFFCURVE",
"165 366 CURVE SMOOTH",
"178 366 OFFCURVE",
"184 372 OFFCURVE",
"184 385 CURVE SMOOTH",
"184 390 OFFCURVE",
"182 395 OFFCURVE",
"179 398 CURVE"
);
},
{
closed = 1;
nodes = (
"96 374 OFFCURVE",
"104 366 OFFCURVE",
"115 366 CURVE SMOOTH",
"128 366 OFFCURVE",
"134 372 OFFCURVE",
"134 385 CURVE SMOOTH",
"134 396 OFFCURVE",
"126 403 OFFCURVE",
"115 403 CURVE SMOOTH",
"104 403 OFFCURVE",
"96 394 OFFCURVE",
"96 385 CURVE SMOOTH"
);
},
{
closed = 1;
nodes = (
"501 100 LINE",
"501 330 LINE",
"100 330 LINE",
"100 100 LINE"
);
},
{
closed = 1;
nodes = (
"501 370 LINE",
"501 400 LINE",
"200 400 LINE",
"200 370 LINE"
);
}
);
width = 600;
}
);
unicode = E74E;
},
{
glyphname = brush;
layers = (
{
layerId = "772A128A-47C6-487B-8519-986DC341ECA7";
name = Regular;
paths = (
{
closed = 1;
nodes = (
"134 183 OFFCURVE",
"168 179 OFFCURVE",
"195 152 CURVE SMOOTH",
"223 125 OFFCURVE",
"228 91 OFFCURVE",
"204 67 CURVE SMOOTH",
"175 39 OFFCURVE",
"137 22 OFFCURVE",
"90 16 CURVE SMOOTH",
"62 12 OFFCURVE",
"49 14 OFFCURVE",
"50 23 CURVE",
"50 24 OFFCURVE",
"51 26 OFFCURVE",
"53 28 CURVE",
"70 48 OFFCURVE",
"81 72 OFFCURVE",
"85 101 CURVE SMOOTH",
"89 129 OFFCURVE",
"97 149 OFFCURVE",
"109 160 CURVE SMOOTH"
);
},
{
closed = 1;
nodes = (
"546 466 OFFCURVE",
"388 267 OFFCURVE",
"309 190 CURVE SMOOTH",
"296 177 OFFCURVE",
"276 160 OFFCURVE",
"247 138 CURVE",
"244 136 OFFCURVE",
"242 137 OFFCURVE",
"239 142 CURVE",
"227 165 OFFCURVE",
"205 187 OFFCURVE",
"182 198 CURVE",
"177 200 OFFCURVE",
"175 203 OFFCURVE",
"178 206 CURVE",
"199 234 OFFCURVE",
"217 254 OFFCURVE",
"230 267 CURVE SMOOTH",
"309 344 OFFCURVE",
"510 500 OFFCURVE",
"529 483 CURVE"
);
}
);
width = 581;
}
);
unicode = E79A;
},
{
glyphname = bucket;
layers = (
{
layerId = "772A128A-47C6-487B-8519-986DC341ECA7";
name = Regular;
paths = (
{
closed = 1;
nodes = (
"370 465 OFFCURVE",
"418 457 OFFCURVE",
"455 441 CURVE SMOOTH",
"492 424 OFFCURVE",
"510 407 OFFCURVE",
"507 388 CURVE SMOOTH",
"505 375 OFFCURVE",
"497 324 OFFCURVE",
"483 235 CURVE SMOOTH",
"469 145 OFFCURVE",
"462 98 OFFCURVE",
"461 94 CURVE",
"460 88 OFFCURVE",
"454 81 OFFCURVE",
"443 72 CURVE",
"419 55 OFFCURVE",
"367 35 OFFCURVE",
"312 35 CURVE SMOOTH",
"257 35 OFFCURVE",
"206 55 OFFCURVE",
"183 72 CURVE SMOOTH",
"171 81 OFFCURVE",
"165 88 OFFCURVE",
"164 94 CURVE",
"164 95 OFFCURVE",
"163 100 OFFCURVE",
"162 109 CURVE",
"217 105 OFFCURVE",
"274 134 OFFCURVE",
"313 185 CURVE",
"332 185 OFFCURVE",
"347 200 OFFCURVE",
"347 220 CURVE SMOOTH",
"347 239 OFFCURVE",
"332 255 OFFCURVE",
"312 255 CURVE SMOOTH",
"293 255 OFFCURVE",
"277 239 OFFCURVE",
"277 220 CURVE SMOOTH",
"277 213 OFFCURVE",
"279 207 OFFCURVE",
"282 202 CURVE",
"250 163 OFFCURVE",
"202 141 OFFCURVE",
"159 144 CURVE SMOOTH",
"91 151 OFFCURVE",
"54 186 OFFCURVE",
"51 227 CURVE SMOOTH",
"48 268 OFFCURVE",
"74 298 OFFCURVE",
"129 319 CURVE",
"117 382 OFFCURVE",
"95 408 OFFCURVE",
"170 441 CURVE SMOOTH",
"207 457 OFFCURVE",
"255 465 OFFCURVE",
"312 465 CURVE SMOOTH"
);
},
{
closed = 1;
nodes = (
"89 209 OFFCURVE",
"111 189 OFFCURVE",
"150 181 CURVE",
"134 283 LINE",
"101 268 OFFCURVE",
"85 251 OFFCURVE",
"86 230 CURVE"
);
},
{
closed = 1;
nodes = (
"259 339 OFFCURVE",
"285 336 OFFCURVE",
"312 336 CURVE SMOOTH",
"367 336 OFFCURVE",
"422 351 OFFCURVE",
"447 365 CURVE SMOOTH",
"460 372 OFFCURVE",
"466 377 OFFCURVE",
"466 382 CURVE SMOOTH",
"466 387 OFFCURVE",
"460 393 OFFCURVE",
"447 400 CURVE SMOOTH",
"422 414 OFFCURVE",
"368 428 OFFCURVE",
"312 428 CURVE SMOOTH",
"257 428 OFFCURVE",
"203 414 OFFCURVE",
"178 400 CURVE SMOOTH",
"165 393 OFFCURVE",
"159 387 OFFCURVE",
"159 382 CURVE SMOOTH",
"159 377 OFFCURVE",
"165 372 OFFCURVE",
"178 365 CURVE SMOOTH",
"191 358 OFFCURVE",
"209 351 OFFCURVE",
"234 345 CURVE SMOOTH"
);
}
);
width = 558;
}
);
unicode = 1F4FE;
},
{
glyphname = cart;
layers = (
{
layerId = "772A128A-47C6-487B-8519-986DC341ECA7";
name = Regular;
paths = (
{
closed = 1;
nodes = (
"125 102 OFFCURVE",
"148 125 OFFCURVE",
"175 125 CURVE SMOOTH",
"203 125 OFFCURVE",
"225 102 OFFCURVE",
"225 75 CURVE SMOOTH",
"225 47 OFFCURVE",
"203 25 OFFCURVE",
"175 25 CURVE SMOOTH",
"148 25 OFFCURVE",
"125 47 OFFCURVE",
"125 75 CURVE SMOOTH"
);
},
{
closed = 1;
nodes = (
"375 102 OFFCURVE",
"398 125 OFFCURVE",
"425 125 CURVE SMOOTH",
"453 125 OFFCURVE",
"475 102 OFFCURVE",
"475 75 CURVE SMOOTH",
"475 47 OFFCURVE",
"453 25 OFFCURVE",
"425 25 CURVE SMOOTH",
"398 25 OFFCURVE",
"375 47 OFFCURVE",
"375 75 CURVE SMOOTH"
);
},
{
closed = 1;
nodes = (
"214 193 LINE SMOOTH",
"190 186 OFFCURVE",
"191 175 OFFCURVE",
"219 175 CURVE SMOOTH",
"500 175 LINE",
"500 137 LINE SMOOTH",
"500 130 OFFCURVE",
"497 127 OFFCURVE",
"490 127 CURVE SMOOTH",
"425 127 LINE",
"175 127 LINE",
"163 127 LINE SMOOTH",
"156 127 OFFCURVE",
"153 130 OFFCURVE",
"153 137 CURVE SMOOTH",
"153 175 LINE",
"148 198 LINE",
"99 425 LINE",
"50 425 LINE",
"50 465 LINE SMOOTH",
"50 472 OFFCURVE",
"53 475 OFFCURVE",
"60 475 CURVE SMOOTH",
"138 475 LINE SMOOTH",
"145 475 OFFCURVE",
"148 472 OFFCURVE",
"148 465 CURVE SMOOTH",
"148 422 LINE",
"500 422 LINE",
"500 285 LINE SMOOTH",
"500 278 OFFCURVE",
"497 273 OFFCURVE",
"491 272 CURVE"
);
}
);
width = 550;
}
);
unicode = E73D;
},
{
glyphname = cc;
layers = (
{
layerId = "772A128A-47C6-487B-8519-986DC341ECA7";
name = Regular;
paths = (
{
closed = 1;
nodes = (
"420 491 OFFCURVE",
"528 386 OFFCURVE",
"531 254 CURVE SMOOTH",
"532 121 OFFCURVE",
"427 13 OFFCURVE",
"294 10 CURVE SMOOTH",
"162 9 OFFCURVE",
"52 115 OFFCURVE",
"51 247 CURVE SMOOTH",
"48 380 OFFCURVE",
"155 489 OFFCURVE",
"288 490 CURVE SMOOTH"
);
},
{
closed = 1;
nodes = (
"398 62 OFFCURVE",
"482 148 OFFCURVE",
"481 253 CURVE SMOOTH",
"480 358 OFFCURVE",
"393 441 OFFCURVE",
"289 440 CURVE SMOOTH",
"184 439 OFFCURVE",
"101 353 OFFCURVE",
"102 248 CURVE SMOOTH",
"103 143 OFFCURVE",
"189 60 OFFCURVE",
"294 61 CURVE SMOOTH"
);
},
{
closed = 1;
nodes = (
"245 210 OFFCURVE",
"255 217 OFFCURVE",
"261 230 CURVE",
"289 215 LINE",
"276 191 OFFCURVE",
"254 179 OFFCURVE",
"229 179 CURVE SMOOTH",
"188 179 OFFCURVE",
"160 205 OFFCURVE",
"160 250 CURVE SMOOTH",
"160 295 OFFCURVE",
"188 322 OFFCURVE",
"227 322 CURVE SMOOTH",
"256 322 OFFCURVE",
"276 311 OFFCURVE",
"289 289 CURVE",
"258 273 LINE",
"251 286 OFFCURVE",
"241 291 OFFCURVE",
"232 291 CURVE SMOOTH",
"212 291 OFFCURVE",
"202 277 OFFCURVE",
"202 250 CURVE SMOOTH",
"202 225 OFFCURVE",
"213 210 OFFCURVE",
"232 210 CURVE SMOOTH"
);
},
{
closed = 1;
nodes = (
"379 210 OFFCURVE",
"388 217 OFFCURVE",
"393 230 CURVE",
"422 215 LINE",
"410 194 OFFCURVE",
"387 179 OFFCURVE",
"362 179 CURVE SMOOTH",
"319 179 OFFCURVE",
"293 205 OFFCURVE",
"293 250 CURVE SMOOTH",
"293 293 OFFCURVE",
"321 322 OFFCURVE",
"361 322 CURVE SMOOTH",
"389 322 OFFCURVE",
"409 311 OFFCURVE",
"421 289 CURVE",
"391 273 LINE",
"384 286 OFFCURVE",
"374 291 OFFCURVE",
"365 291 CURVE SMOOTH",
"344 291 OFFCURVE",
"334 277 OFFCURVE",
"334 250 CURVE SMOOTH",
"334 226 OFFCURVE",
"345 210 OFFCURVE",
"365 210 CURVE SMOOTH"
);
}
);
width = 582;
}
);
unicode = 1F545;
},
{
glyphname = "cc-by";
layers = (
{
layerId = "772A128A-47C6-487B-8519-986DC341ECA7";
name = Regular;
paths = (
{
closed = 1;
nodes = (
"268 338 OFFCURVE",
"257 349 OFFCURVE",
"257 372 CURVE SMOOTH",
"257 395 OFFCURVE",
"268 406 OFFCURVE",
"290 406 CURVE SMOOTH",
"313 406 OFFCURVE",
"324 395 OFFCURVE",
"324 372 CURVE SMOOTH",
"324 349 OFFCURVE",
"313 338 OFFCURVE",
"290 338 CURVE SMOOTH"
);
},
{
closed = 1;
nodes = (
"339 325 LINE SMOOTH",
"348 325 OFFCURVE",
"355 318 OFFCURVE",
"355 310 CURVE SMOOTH",
"355 212 LINE",
"327 212 LINE",
"327 95 LINE",
"253 95 LINE",
"253 212 LINE",
"225 212 LINE",
"225 310 LINE SMOOTH",
"225 318 OFFCURVE",
"232 325 OFFCURVE",
"241 325 CURVE SMOOTH"
);
},
{
closed = 1;
nodes = (
"423 490 OFFCURVE",
"530 383 OFFCURVE",
"530 250 CURVE SMOOTH",
"530 118 OFFCURVE",
"423 10 OFFCURVE",
"290 10 CURVE SMOOTH",
"158 10 OFFCURVE",
"50 118 OFFCURVE",
"50 250 CURVE SMOOTH",
"50 383 OFFCURVE",
"158 490 OFFCURVE",
"290 490 CURVE SMOOTH"
);
},
{
closed = 1;
nodes = (
"190 73 OFFCURVE",
"236 54 OFFCURVE",
"290 54 CURVE SMOOTH",
"398 54 OFFCURVE",
"486 142 OFFCURVE",
"486 250 CURVE SMOOTH",
"486 359 OFFCURVE",
"398 446 OFFCURVE",
"290 446 CURVE SMOOTH",
"182 446 OFFCURVE",
"94 359 OFFCURVE",
"94 250 CURVE SMOOTH",
"94 196 OFFCURVE",
"113 150 OFFCURVE",
"152 112 CURVE SMOOTH"
);
}
);
width = 580;
}
);
unicode = 1F546;
},
{
glyphname = "cc-nc";
layers = (
{
layerId = "772A128A-47C6-487B-8519-986DC341ECA7";
name = Regular;
paths = (
{
closed = 1;
nodes = (
"423 490 OFFCURVE",
"530 383 OFFCURVE",
"530 250 CURVE SMOOTH",
"530 118 OFFCURVE",
"423 10 OFFCURVE",
"290 10 CURVE SMOOTH",
"158 10 OFFCURVE",
"50 118 OFFCURVE",
"50 250 CURVE SMOOTH",
"50 383 OFFCURVE",
"158 490 OFFCURVE",
"290 490 CURVE SMOOTH"
);
},
{
closed = 1;
nodes = (
"105 315 LINE",
"98 294 OFFCURVE",
"94 273 OFFCURVE",
"94 250 CURVE SMOOTH",
"94 142 OFFCURVE",
"182 54 OFFCURVE",
"290 54 CURVE SMOOTH",
"363 54 OFFCURVE",
"429 95 OFFCURVE",
"462 156 CURVE",
"373 196 LINE",
"368 165 OFFCURVE",
"339 145 OFFCURVE",
"307 142 CURVE",
"307 105 LINE",
"279 105 LINE",
"279 142 LINE",
"253 142 OFFCURVE",
"229 152 OFFCURVE",
"206 171 CURVE",
"239 204 LINE",
"256 189 OFFCURVE",
"274 182 OFFCURVE",
"293 182 CURVE SMOOTH",
"309 182 OFFCURVE",
"323 190 OFFCURVE",
"323 206 CURVE SMOOTH",
"323 212 OFFCURVE",
"321 217 OFFCURVE",
"316 221 CURVE",
"293 231 LINE",
"265 244 LINE",
"227 260 LINE"
);
},
{
closed = 1;
nodes = (
"358 254 LINE",
"479 200 LINE",
"484 215 OFFCURVE",
"486 231 OFFCURVE",
"486 250 CURVE SMOOTH",
"486 359 OFFCURVE",
"398 446 OFFCURVE",
"290 446 CURVE SMOOTH",
"222 446 OFFCURVE",
"162 412 OFFCURVE",
"126 357 CURVE",
"217 316 LINE",
"225 340 OFFCURVE",
"248 358 OFFCURVE",
"279 359 CURVE",
"279 396 LINE",
"307 396 LINE",
"307 359 LINE",
"330 358 OFFCURVE",
"350 350 OFFCURVE",
"367 337 CURVE",
"336 305 LINE",
"321 314 OFFCURVE",
"307 319 OFFCURVE",
"294 319 CURVE SMOOTH",
"278 319 OFFCURVE",
"266 313 OFFCURVE",
"266 300 CURVE SMOOTH",
"266 297 OFFCURVE",
"267 295 OFFCURVE",
"268 294 CURVE",
"298 280 LINE",
"319 271 LINE"
);
}
);
width = 580;
}
);
unicode = 1F547;
},
{
glyphname = "cc-nc-eu";
layers = (
{
layerId = "772A128A-47C6-487B-8519-986DC341ECA7";
name = Regular;
paths = (
{
closed = 1;
nodes = (
"423 490 OFFCURVE",
"530 383 OFFCURVE",
"530 250 CURVE SMOOTH",
"530 118 OFFCURVE",
"423 10 OFFCURVE",
"290 10 CURVE SMOOTH",
"158 10 OFFCURVE",
"50 118 OFFCURVE",
"50 250 CURVE SMOOTH",
"50 383 OFFCURVE",
"158 490 OFFCURVE",
"290 490 CURVE SMOOTH"
);
},
{
closed = 1;
nodes = (
"105 314 LINE",
"98 293 OFFCURVE",
"94 272 OFFCURVE",
"94 250 CURVE SMOOTH",
"94 142 OFFCURVE",
"182 54 OFFCURVE",
"290 54 CURVE SMOOTH",
"363 54 OFFCURVE",
"427 93 OFFCURVE",
"462 156 CURVE",
"339 210 LINE",
"252 210 LINE",
"255 198 OFFCURVE",
"260 189 OFFCURVE",
"265 182 CURVE",
"278 169 OFFCURVE",
"295 162 OFFCURVE",
"317 162 CURVE SMOOTH",
"332 162 OFFCURVE",
"348 165 OFFCURVE",
"363 172 CURVE",
"372 127 LINE",
"353 117 OFFCURVE",
"333 112 OFFCURVE",
"310 112 CURVE SMOOTH",
"267 112 OFFCURVE",
"235 127 OFFCURVE",
"212 158 CURVE SMOOTH",
"201 173 OFFCURVE",
"193 190 OFFCURVE",
"189 210 CURVE",
"163 210 LINE",
"163 239 LINE",
"185 239 LINE",
"185 246 LINE SMOOTH",
"185 247 OFFCURVE",
"185 249 OFFCURVE",
"186 252 CURVE",
"186 255 OFFCURVE",
"186 257 OFFCURVE",
"186 258 CURVE",
"163 258 LINE",
"163 286 LINE",
"168 286 LINE"
);
},
{
closed = 1;
nodes = (
"349 258 LINE",
"480 200 LINE",
"484 216 OFFCURVE",
"486 233 OFFCURVE",
"486 250 CURVE SMOOTH",
"486 359 OFFCURVE",
"398 446 OFFCURVE",
"290 446 CURVE SMOOTH",
"222 446 OFFCURVE",
"161 412 OFFCURVE",
"125 357 CURVE",
"204 322 LINE",
"207 327 OFFCURVE",
"211 333 OFFCURVE",
"218 341 CURVE SMOOTH",
"242 368 OFFCURVE",
"273 382 OFFCURVE",
"310 382 CURVE SMOOTH",
"333 382 OFFCURVE",
"354 378 OFFCURVE",
"371 370 CURVE",
"359 324 LINE",
"346 331 OFFCURVE",
"331 334 OFFCURVE",
"315 334 CURVE SMOOTH",
"294 334 OFFCURVE",
"277 327 OFFCURVE",
"265 312 CURVE",
"262 309 OFFCURVE",
"259 304 OFFCURVE",
"257 298 CURVE",
"285 286 LINE",
"353 286 LINE",
"353 258 LINE"
);
}
);
width = 580;
}
);
unicode = 1F548;
},
{
glyphname = "cc-nc-jp";
layers = (
{
layerId = "772A128A-47C6-487B-8519-986DC341ECA7";
name = Regular;
paths = (
{
closed = 1;
nodes = (
"423 490 OFFCURVE",
"530 383 OFFCURVE",
"530 250 CURVE SMOOTH",
"530 118 OFFCURVE",
"423 10 OFFCURVE",
"290 10 CURVE SMOOTH",
"158 10 OFFCURVE",
"50 118 OFFCURVE",
"50 250 CURVE SMOOTH",
"50 383 OFFCURVE",
"158 490 OFFCURVE",
"290 490 CURVE SMOOTH"
);
},
{
closed = 1;
nodes = (
"103 308 LINE",
"97 290 OFFCURVE",
"94 271 OFFCURVE",
"94 250 CURVE SMOOTH",
"94 142 OFFCURVE",
"182 54 OFFCURVE",
"290 54 CURVE SMOOTH",
"361 54 OFFCURVE",
"423 91 OFFCURVE",
"458 150 CURVE",
"382 184 LINE",
"382 150 LINE",
"319 150 LINE",
"319 96 LINE",
"260 96 LINE",
"260 150 LINE",
"198 150 LINE",
"198 187 LINE",
"260 187 LINE",
"260 205 LINE",
"254 217 LINE",
"198 217 LINE",
"198 254 LINE",
"225 254 LINE"
);
},
{
closed = 1;
nodes = (
"319 187 LINE",
"375 187 LINE",
"322 211 LINE",
"319 205 LINE"
);
},
{
closed = 1;
nodes = (
"382 237 LINE",
"478 194 LINE",
"483 213 OFFCURVE",
"486 232 OFFCURVE",
"486 250 CURVE SMOOTH",
"486 359 OFFCURVE",
"398 446 OFFCURVE",
"290 446 CURVE SMOOTH",
"219 446 OFFCURVE",
"158 409 OFFCURVE",
"123 352 CURVE",
"202 317 LINE",
"175 366 LINE",
"239 366 LINE",
"277 283 LINE",
"300 273 LINE",
"341 366 LINE",
"405 366 LINE",
"344 254 LINE",
"382 254 LINE"
);
}
);
width = 580;
}
);
unicode = 1F549;
},
{
glyphname = "cc-nd";
layers = (
{
layerId = "772A128A-47C6-487B-8519-986DC341ECA7";
name = Regular;
paths = (
{
closed = 1;
nodes = (
"203 266 LINE",
"203 307 LINE",
"377 307 LINE",
"377 266 LINE"
);
},
{
closed = 1;
nodes = (
"203 189 LINE",
"203 230 LINE",
"377 230 LINE",
"377 189 LINE"
);
},
{
closed = 1;
nodes = (
"423 490 OFFCURVE",
"530 383 OFFCURVE",
"530 250 CURVE SMOOTH",
"530 118 OFFCURVE",
"423 10 OFFCURVE",
"290 10 CURVE SMOOTH",
"158 10 OFFCURVE",
"50 118 OFFCURVE",
"50 250 CURVE SMOOTH",
"50 383 OFFCURVE",
"158 490 OFFCURVE",
"290 490 CURVE SMOOTH"
);
},
{
closed = 1;
nodes = (
"190 73 OFFCURVE",
"236 54 OFFCURVE",
"290 54 CURVE SMOOTH",
"398 54 OFFCURVE",
"486 142 OFFCURVE",
"486 250 CURVE SMOOTH",
"486 359 OFFCURVE",
"398 446 OFFCURVE",
"290 446 CURVE SMOOTH",
"182 446 OFFCURVE",
"94 359 OFFCURVE",
"94 250 CURVE SMOOTH",
"94 196 OFFCURVE",
"113 150 OFFCURVE",
"152 112 CURVE SMOOTH"
);
}
);
width = 580;
}
);
unicode = 1F54B;
},
{
glyphname = "cc-pd";
layers = (
{
layerId = "772A128A-47C6-487B-8519-986DC341ECA7";
name = Regular;
paths = (
{
closed = 1;
nodes = (
"423 490 OFFCURVE",
"530 383 OFFCURVE",
"530 250 CURVE SMOOTH",
"530 118 OFFCURVE",
"423 10 OFFCURVE",
"290 10 CURVE SMOOTH",
"158 10 OFFCURVE",
"50 118 OFFCURVE",
"50 250 CURVE SMOOTH",
"50 383 OFFCURVE",
"158 490 OFFCURVE",
"290 490 CURVE SMOOTH"
);
},
{
closed = 1;
nodes = (
"105 314 LINE",
"98 293 OFFCURVE",
"94 272 OFFCURVE",
"94 250 CURVE SMOOTH",
"94 142 OFFCURVE",
"182 54 OFFCURVE",
"290 54 CURVE SMOOTH",
"363 54 OFFCURVE",
"427 93 OFFCURVE",
"462 156 CURVE",
"250 250 LINE",
"251 214 OFFCURVE",
"269 181 OFFCURVE",
"302 181 CURVE SMOOTH",
"314 181 OFFCURVE",
"325 185 OFFCURVE",
"334 194 CURVE SMOOTH",
"337 197 LINE",
"372 155 LINE",
"369 154 OFFCURVE",
"364 150 OFFCURVE",
"363 147 CURVE",
"342 133 OFFCURVE",
"320 126 OFFCURVE",
"295 126 CURVE SMOOTH",
"238 126 OFFCURVE",
"179 162 OFFCURVE",
"179 249 CURVE SMOOTH",
"179 260 OFFCURVE",
"180 270 OFFCURVE",
"182 280 CURVE"
);
},
{
closed = 1;
nodes = (
"480 200 LINE",
"484 216 OFFCURVE",
"486 233 OFFCURVE",
"486 250 CURVE SMOOTH",
"486 359 OFFCURVE",
"398 446 OFFCURVE",
"290 446 CURVE SMOOTH",
"222 446 OFFCURVE",
"161 412 OFFCURVE",
"125 357 CURVE",
"199 324 LINE",
"220 358 OFFCURVE",
"253 375 OFFCURVE",
"297 375 CURVE SMOOTH",
"326 375 OFFCURVE",
"351 366 OFFCURVE",
"372 348 CURVE",
"333 308 LINE",
"330 311 OFFCURVE",
"328 313 OFFCURVE",
"326 314 CURVE",
"319 319 OFFCURVE",
"310 322 OFFCURVE",
"300 322 CURVE SMOOTH",
"283 322 OFFCURVE",
"269 314 OFFCURVE",
"260 297 CURVE"
);
}
);
width = 580;
}
);
unicode = 1F54C;
},
{
glyphname = "cc-remix";
layers = (
{
layerId = "772A128A-47C6-487B-8519-986DC341ECA7";
name = Regular;
paths = (
{
closed = 1;
nodes = (
"447 246 LINE",
"452 244 LINE",
"452 176 LINE",
"447 174 LINE",
"389 149 LINE",
"387 148 LINE",
"384 149 LINE",
"258 201 LINE",
"254 203 LINE",
"192 177 LINE",
"130 204 LINE",
"130 265 LINE",
"188 289 LINE",
"187 290 LINE",
"187 358 LINE",
"252 386 LINE",
"399 325 LINE",
"399 266 LINE"
);
},
{
closed = 1;
nodes = (
"379 167 LINE",
"379 210 LINE",
"378 210 LINE",
"378 211 LINE",
"268 256 LINE",
"268 213 LINE",
"378 167 LINE",
"378 168 LINE"
);
},
{
closed = 1;
nodes = (
"386 223 LINE",
"425 239 LINE",
"389 254 LINE",
"351 238 LINE"
);
},
{
closed = 1;
nodes = (
"437 186 LINE",
"437 228 LINE",
"394 210 LINE",
"394 168 LINE"
);
},
{
closed = 1;
nodes = (
"423 490 OFFCURVE",
"530 383 OFFCURVE",
"530 250 CURVE SMOOTH",
"530 118 OFFCURVE",
"423 10 OFFCURVE",
"290 10 CURVE SMOOTH",
"158 10 OFFCURVE",
"50 118 OFFCURVE",
"50 250 CURVE SMOOTH",
"50 383 OFFCURVE",
"158 490 OFFCURVE",
"290 490 CURVE SMOOTH"
);
},
{
closed = 1;
nodes = (
"190 73 OFFCURVE",
"236 54 OFFCURVE",
"290 54 CURVE SMOOTH",
"398 54 OFFCURVE",
"486 142 OFFCURVE",
"486 250 CURVE SMOOTH",
"486 359 OFFCURVE",
"398 446 OFFCURVE",
"290 446 CURVE SMOOTH",
"182 446 OFFCURVE",
"94 359 OFFCURVE",
"94 250 CURVE SMOOTH",
"94 196 OFFCURVE",
"113 150 OFFCURVE",
"152 112 CURVE SMOOTH"
);
}
);
width = 580;
}
);
unicode = 1F54F;
},
{
glyphname = "cc-sa";
layers = (
{
layerId = "772A128A-47C6-487B-8519-986DC341ECA7";
name = Regular;
paths = (
{
closed = 1;
nodes = (
"365 377 OFFCURVE",
"412 323 OFFCURVE",
"412 247 CURVE SMOOTH",
"412 210 OFFCURVE",
"401 180 OFFCURVE",
"378 155 CURVE",
"353 130 OFFCURVE",
"323 118 OFFCURVE",
"288 118 CURVE SMOOTH",
"235 118 OFFCURVE",
"190 152 OFFCURVE",
"182 212 CURVE",
"242 212 LINE",
"244 183 OFFCURVE",
"262 169 OFFCURVE",
"295 169 CURVE SMOOTH",
"328 169 OFFCURVE",
"351 200 OFFCURVE",
"351 249 CURVE SMOOTH",
"351 300 OFFCURVE",
"331 327 OFFCURVE",
"296 327 CURVE SMOOTH",
"264 327 OFFCURVE",
"246 313 OFFCURVE",
"242 284 CURVE",
"260 284 LINE",
"212 237 LINE",
"165 284 LINE",
"183 284 LINE",
"192 344 OFFCURVE",
"234 377 OFFCURVE",
"289 377 CURVE SMOOTH"
);
},
{
closed = 1;
nodes = (
"423 490 OFFCURVE",
"530 383 OFFCURVE",
"530 250 CURVE SMOOTH",
"530 118 OFFCURVE",
"423 10 OFFCURVE",
"290 10 CURVE SMOOTH",
"158 10 OFFCURVE",
"50 118 OFFCURVE",
"50 250 CURVE SMOOTH",
"50 383 OFFCURVE",
"158 490 OFFCURVE",
"290 490 CURVE SMOOTH"
);
},
{
closed = 1;
nodes = (
"190 73 OFFCURVE",
"236 54 OFFCURVE",
"290 54 CURVE SMOOTH",
"398 54 OFFCURVE",
"486 142 OFFCURVE",
"486 250 CURVE SMOOTH",
"486 359 OFFCURVE",
"398 446 OFFCURVE",
"290 446 CURVE SMOOTH",
"182 446 OFFCURVE",
"94 359 OFFCURVE",
"94 250 CURVE SMOOTH",
"94 196 OFFCURVE",
"113 150 OFFCURVE",
"152 112 CURVE SMOOTH"
);
}
);
width = 580;
}
);
unicode = 1F54A;
},
{
glyphname = "cc-share";
layers = (
{
layerId = "772A128A-47C6-487B-8519-986DC341ECA7";
name = Regular;
paths = (
{
closed = 1;
nodes = (
"388 319 LINE SMOOTH",
"396 319 OFFCURVE",
"402 313 OFFCURVE",
"402 306 CURVE SMOOTH",
"402 129 LINE SMOOTH",
"402 122 OFFCURVE",
"396 116 OFFCURVE",
"388 116 CURVE SMOOTH",
"258 116 LINE SMOOTH",
"250 116 OFFCURVE",
"244 122 OFFCURVE",
"244 129 CURVE SMOOTH",
"244 181 LINE",
"192 181 LINE SMOOTH",
"185 181 OFFCURVE",
"179 187 OFFCURVE",
"179 195 CURVE SMOOTH",
"179 371 LINE SMOOTH",
"179 379 OFFCURVE",
"182 382 OFFCURVE",
"191 385 CURVE",
"323 385 LINE SMOOTH",
"330 385 OFFCURVE",
"336 379 OFFCURVE",
"336 371 CURVE SMOOTH",
"336 319 LINE"
);
},
{
closed = 1;
nodes = (
"310 319 LINE",
"310 358 LINE",
"205 358 LINE",
"205 208 LINE",
"244 208 LINE",
"244 306 LINE SMOOTH",
"244 313 OFFCURVE",
"248 316 OFFCURVE",
"256 319 CURVE"
);
},
{
closed = 1;
nodes = (
"375 142 LINE",
"375 293 LINE",
"270 293 LINE",
"270 142 LINE"
);
},
{
closed = 1;
nodes = (
"423 490 OFFCURVE",
"530 383 OFFCURVE",
"530 250 CURVE SMOOTH",
"530 118 OFFCURVE",
"423 10 OFFCURVE",
"290 10 CURVE SMOOTH",
"158 10 OFFCURVE",
"50 118 OFFCURVE",
"50 250 CURVE SMOOTH",
"50 383 OFFCURVE",
"158 490 OFFCURVE",
"290 490 CURVE SMOOTH"
);
},
{
closed = 1;
nodes = (
"190 73 OFFCURVE",
"236 54 OFFCURVE",
"290 54 CURVE SMOOTH",
"398 54 OFFCURVE",
"486 142 OFFCURVE",
"486 250 CURVE SMOOTH",
"486 359 OFFCURVE",
"398 446 OFFCURVE",
"290 446 CURVE SMOOTH",
"182 446 OFFCURVE",
"94 359 OFFCURVE",
"94 250 CURVE SMOOTH",
"94 196 OFFCURVE",
"113 150 OFFCURVE",
"152 112 CURVE SMOOTH"
);
}
);
width = 580;
}
);
unicode = 1F54E;
},
{
glyphname = "cc-zero";
layers = (
{
layerId = "772A128A-47C6-487B-8519-986DC341ECA7";
name = Regular;
paths = (
{
closed = 1;
nodes = (
"229 376 OFFCURVE",
"254 389 OFFCURVE",
"290 389 CURVE SMOOTH",
"362 389 OFFCURVE",
"389 327 OFFCURVE",
"389 250 CURVE SMOOTH",
"389 174 OFFCURVE",
"362 112 OFFCURVE",
"290 112 CURVE SMOOTH",
"218 112 OFFCURVE",
"191 174 OFFCURVE",
"191 250 CURVE SMOOTH",
"191 289 OFFCURVE",
"199 322 OFFCURVE",
"214 349 CURVE SMOOTH"
);
},
{
closed = 1;
nodes = (
"247 244 OFFCURVE",
"248 233 OFFCURVE",
"249 217 CURVE",
"302 314 LINE",
"307 322 OFFCURVE",
"306 329 OFFCURVE",
"299 335 CURVE",
"295 336 OFFCURVE",
"292 337 OFFCURVE",
"290 337 CURVE SMOOTH",
"261 337 OFFCURVE",
"247 308 OFFCURVE",
"247 250 CURVE SMOOTH"
);
},
{
closed = 1;
nodes = (
"319 164 OFFCURVE",
"333 193 OFFCURVE",
"333 250 CURVE SMOOTH",
"333 263 OFFCURVE",
"332 277 OFFCURVE",
"330 292 CURVE",
"271 190 LINE",
"264 180 OFFCURVE",
"266 172 OFFCURVE",
"277 167 CURVE",
"278 166 OFFCURVE",
"279 166 OFFCURVE",
"280 166 CURVE SMOOTH",
"281 166 OFFCURVE",
"281 166 OFFCURVE",
"281 165 CURVE",
"282 165 OFFCURVE",
"283 165 OFFCURVE",
"285 165 CURVE",
"287 164 OFFCURVE",
"289 164 OFFCURVE",
"290 164 CURVE SMOOTH"
);
},
{
closed = 1;
nodes = (
"423 490 OFFCURVE",
"530 383 OFFCURVE",
"530 250 CURVE SMOOTH",
"530 118 OFFCURVE",
"423 10 OFFCURVE",
"290 10 CURVE SMOOTH",
"158 10 OFFCURVE",
"50 118 OFFCURVE",
"50 250 CURVE SMOOTH",
"50 383 OFFCURVE",
"158 490 OFFCURVE",
"290 490 CURVE SMOOTH"
);
},
{
closed = 1;
nodes = (
"190 73 OFFCURVE",
"236 54 OFFCURVE",
"290 54 CURVE SMOOTH",
"398 54 OFFCURVE",
"486 142 OFFCURVE",
"486 250 CURVE SMOOTH",
"486 359 OFFCURVE",
"398 446 OFFCURVE",
"290 446 CURVE SMOOTH",
"182 446 OFFCURVE",
"94 359 OFFCURVE",
"94 250 CURVE SMOOTH",
"94 196 OFFCURVE",
"113 150 OFFCURVE",
"152 112 CURVE SMOOTH"
);
}
);
width = 580;
}
);
unicode = 1F54D;
},
{
glyphname = chat;
layers = (
{
layerId = "772A128A-47C6-487B-8519-986DC341ECA7";
name = Regular;
paths = (
{
closed = 1;
nodes = (
"195 195 LINE",
"370 195 LINE SMOOTH",
"371 195 OFFCURVE",
"372 195 OFFCURVE",
"373 196 CURVE",
"375 196 LINE",
"375 150 LINE SMOOTH",
"375 123 OFFCURVE",
"353 100 OFFCURVE",
"325 100 CURVE SMOOTH",
"200 100 LINE",
"125 25 LINE",
"125 100 LINE",
"100 100 LINE SMOOTH",
"73 100 OFFCURVE",
"50 123 OFFCURVE",
"50 150 CURVE SMOOTH",
"50 300 LINE SMOOTH",
"50 328 OFFCURVE",
"73 350 OFFCURVE",
"100 350 CURVE SMOOTH",
"195 350 LINE"
);
},
{
closed = 1;
nodes = (
"500 475 LINE SMOOTH",
"528 475 OFFCURVE",
"550 453 OFFCURVE",
"550 425 CURVE SMOOTH",
"550 275 LINE SMOOTH",
"550 248 OFFCURVE",
"528 225 OFFCURVE",
"500 225 CURVE SMOOTH",
"475 225 LINE",
"475 150 LINE",
"400 225 LINE",
"225 225 LINE",
"225 425 LINE SMOOTH",
"225 453 OFFCURVE",
"248 475 OFFCURVE",
"275 475 CURVE SMOOTH"
);
}
);
width = 600;
}
);
unicode = E720;
},
{
glyphname = "chevron-down";
layers = (
{
layerId = "772A128A-47C6-487B-8519-986DC341ECA7";
name = Regular;
paths = (
{
closed = 1;
nodes = (
"215 174 LINE SMOOTH",
"209 168 OFFCURVE",
"202 165 OFFCURVE",
"195 165 CURVE SMOOTH",
"188 165 OFFCURVE",
"181 168 OFFCURVE",
"175 174 CURVE SMOOTH",
"58 286 LINE SMOOTH",
"53 291 OFFCURVE",
"50 298 OFFCURVE",
"50 307 CURVE SMOOTH",
"50 315 OFFCURVE",
"53 322 OFFCURVE",
"58 327 CURVE SMOOTH",
"71 340 OFFCURVE",
"84 340 OFFCURVE",
"97 327 CURVE SMOOTH",
"195 233 LINE",
"293 327 LINE SMOOTH",
"306 340 OFFCURVE",
"319 340 OFFCURVE",
"332 327 CURVE SMOOTH",
"337 322 OFFCURVE",
"340 315 OFFCURVE",
"340 307 CURVE SMOOTH",
"340 298 OFFCURVE",
"337 291 OFFCURVE",
"332 286 CURVE SMOOTH"
);
}
);
width = 390;
}
);
unicode = E75C;
},
{
glyphname = "chevron-left";
layers = (
{
layerId = "772A128A-47C6-487B-8519-986DC341ECA7";
name = Regular;
paths = (
{
closed = 1;
nodes = (
"176 393 OFFCURVE",
"182 396 OFFCURVE",
"191 396 CURVE SMOOTH",
"199 396 OFFCURVE",
"206 393 OFFCURVE",
"211 388 CURVE",
"224 376 OFFCURVE",
"224 363 OFFCURVE",
"211 348 CURVE",
"118 250 LINE",
"211 153 LINE",
"224 138 OFFCURVE",
"224 125 OFFCURVE",
"211 113 CURVE",
"206 108 OFFCURVE",
"199 105 OFFCURVE",
"191 105 CURVE SMOOTH",
"183 105 OFFCURVE",
"176 108 OFFCURVE",
"171 113 CURVE SMOOTH",
"58 231 LINE SMOOTH",
"53 236 OFFCURVE",
"50 243 OFFCURVE",
"50 250 CURVE SMOOTH",
"50 258 OFFCURVE",
"53 265 OFFCURVE",
"58 270 CURVE SMOOTH",
"127 341 OFFCURVE",
"164 381 OFFCURVE",
"171 388 CURVE SMOOTH"
);
}
);
width = 270;
}
);
unicode = E75D;
},
{
glyphname = "chevron-right";
layers = (
{
layerId = "772A128A-47C6-487B-8519-986DC341ECA7";
name = Regular;
paths = (
{
closed = 1;
nodes = (
"212 270 LINE SMOOTH",
"217 265 OFFCURVE",
"220 258 OFFCURVE",
"220 250 CURVE SMOOTH",
"220 243 OFFCURVE",
"217 236 OFFCURVE",
"212 231 CURVE SMOOTH",
"99 113 LINE SMOOTH",
"94 108 OFFCURVE",
"87 105 OFFCURVE",
"79 105 CURVE SMOOTH",
"71 105 OFFCURVE",
"64 108 OFFCURVE",
"59 113 CURVE SMOOTH",
"47 125 OFFCURVE",
"47 138 OFFCURVE",
"59 153 CURVE",
"152 250 LINE",
"59 348 LINE",
"47 363 OFFCURVE",
"47 376 OFFCURVE",
"59 388 CURVE SMOOTH",
"64 393 OFFCURVE",
"71 396 OFFCURVE",
"80 396 CURVE SMOOTH",
"88 396 OFFCURVE",
"94 393 OFFCURVE",
"99 388 CURVE SMOOTH"
);
}
);
width = 270;
}
);
unicode = E75E;
},
{
glyphname = "chevron-small-down";
layers = (
{
layerId = "772A128A-47C6-487B-8519-986DC341ECA7";
name = Regular;
paths = (
{
closed = 1;
nodes = (
"252 310 LINE",
"267 327 OFFCURVE",
"293 303 OFFCURVE",
"276 286 CURVE SMOOTH",
"178 190 LINE SMOOTH",
"171 183 OFFCURVE",
"163 183 OFFCURVE",
"154 190 CURVE",
"56 286 LINE SMOOTH",
"39 303 OFFCURVE",
"64 326 OFFCURVE",
"81 310 CURVE SMOOTH",
"166 232 LINE"
);
}
);
width = 332;
}
);
unicode = E760;
},
{
glyphname = "chevron-small-left";
layers = (
{
layerId = "772A128A-47C6-487B-8519-986DC341ECA7";
name = Regular;
paths = (
{
closed = 1;
nodes = (
"176 165 LINE",
"193 148 OFFCURVE",
"167 124 OFFCURVE",
"152 141 CURVE",
"56 238 LINE SMOOTH",
"48 246 OFFCURVE",
"48 254 OFFCURVE",
"56 263 CURVE",
"152 360 LINE",
"167 377 OFFCURVE",
"193 353 OFFCURVE",
"176 336 CURVE",
"98 250 LINE"
);
}
);
width = 232;
}
);
unicode = E761;
},
{
glyphname = "chevron-small-right";
layers = (
{
layerId = "772A128A-47C6-487B-8519-986DC341ECA7";
name = Regular;
paths = (
{
closed = 1;
nodes = (
"135 250 LINE",
"56 336 LINE",
"39 353 OFFCURVE",
"65 377 OFFCURVE",
"80 360 CURVE",
"176 263 LINE",
"184 254 OFFCURVE",
"184 246 OFFCURVE",
"176 238 CURVE SMOOTH",
"80 141 LINE",
"65 124 OFFCURVE",
"39 148 OFFCURVE",
"56 165 CURVE"
);
}
);
width = 232;
}
);
unicode = E762;
},
{
glyphname = "chevron-small-up";
layers = (
{
layerId = "772A128A-47C6-487B-8519-986DC341ECA7";
name = Regular;
paths = (
{
closed = 1;
nodes = (
"81 190 LINE SMOOTH",
"64 175 OFFCURVE",
"40 198 OFFCURVE",
"56 215 CURVE",
"154 310 LINE SMOOTH",
"163 319 OFFCURVE",
"171 319 OFFCURVE",
"178 310 CURVE",
"276 215 LINE",
"292 198 OFFCURVE",
"268 175 OFFCURVE",
"251 190 CURVE SMOOTH",
"166 269 LINE"
);
}
);
width = 332;
}
);
unicode = E763;
},
{
glyphname = "chevron-thin-down";
layers = (
{
layerId = "772A128A-47C6-487B-8519-986DC341ECA7";
name = Regular;
paths = (
{
closed = 1;
nodes = (
"266 182 LINE",
"452 360 LINE",
"467 377 OFFCURVE",
"493 353 OFFCURVE",
"476 336 CURVE SMOOTH",
"278 140 LINE SMOOTH",
"271 133 OFFCURVE",
"263 133 OFFCURVE",
"254 140 CURVE",
"56 336 LINE SMOOTH",
"39 353 OFFCURVE",
"64 376 OFFCURVE",
"81 360 CURVE SMOOTH"
);
}
);
width = 532;
}
);
unicode = E764;
},
{
glyphname = "chevron-thin-left";
layers = (
{
layerId = "772A128A-47C6-487B-8519-986DC341ECA7";
name = Regular;
paths = (
{
closed = 1;
nodes = (
"276 65 LINE SMOOTH",
"293 48 OFFCURVE",
"267 24 OFFCURVE",
"252 41 CURVE",
"56 238 LINE SMOOTH",
"48 246 OFFCURVE",
"48 254 OFFCURVE",
"56 263 CURVE",
"252 460 LINE",
"267 477 OFFCURVE",
"293 453 OFFCURVE",
"276 436 CURVE SMOOTH",
"97 250 LINE"
);
}
);
width = 332;
}
);
unicode = E765;
},
{
glyphname = "chevron-thin-right";
layers = (
{
layerId = "772A128A-47C6-487B-8519-986DC341ECA7";
name = Regular;
paths = (
{
closed = 1;
nodes = (
"235 250 LINE",
"56 436 LINE SMOOTH",
"39 453 OFFCURVE",
"65 477 OFFCURVE",
"80 460 CURVE",
"276 263 LINE",
"284 254 OFFCURVE",
"284 246 OFFCURVE",
"276 238 CURVE SMOOTH",
"80 41 LINE",
"65 24 OFFCURVE",
"39 48 OFFCURVE",
"56 65 CURVE SMOOTH"
);
}
);
width = 332;
}
);
unicode = E766;
},
{
glyphname = "chevron-thin-up";
layers = (
{
layerId = "772A128A-47C6-487B-8519-986DC341ECA7";
name = Regular;
paths = (
{
closed = 1;
nodes = (
"266 319 LINE",
"81 140 LINE",
"64 125 OFFCURVE",
"40 148 OFFCURVE",
"56 165 CURVE",
"254 360 LINE SMOOTH",
"263 369 OFFCURVE",
"271 369 OFFCURVE",
"278 360 CURVE",
"476 165 LINE",
"492 148 OFFCURVE",
"467 125 OFFCURVE",
"452 140 CURVE SMOOTH"
);
}
);
width = 532;
}
);
unicode = E767;
},
{
glyphname = "chevron-up";
layers = (
{
layerId = "772A128A-47C6-487B-8519-986DC341ECA7";
name = Regular;
paths = (
{
closed = 1;
nodes = (
"332 215 LINE SMOOTH",
"337 210 OFFCURVE",
"340 203 OFFCURVE",
"340 195 CURVE SMOOTH",
"340 186 OFFCURVE",
"337 179 OFFCURVE",
"332 174 CURVE SMOOTH",
"319 161 OFFCURVE",
"306 161 OFFCURVE",
"293 174 CURVE SMOOTH",
"195 268 LINE",
"97 174 LINE SMOOTH",
"84 161 OFFCURVE",
"71 161 OFFCURVE",
"58 174 CURVE SMOOTH",
"53 179 OFFCURVE",
"50 186 OFFCURVE",
"50 195 CURVE SMOOTH",
"50 203 OFFCURVE",
"53 210 OFFCURVE",
"58 215 CURVE SMOOTH",
"175 327 LINE SMOOTH",
"180 332 OFFCURVE",
"187 335 OFFCURVE",
"195 335 CURVE SMOOTH",
"203 335 OFFCURVE",
"210 332 OFFCURVE",
"215 327 CURVE SMOOTH"
);
}
);
width = 390;
}
);
unicode = E75F;
},
{
glyphname = "circled-down";
layers = (
{
layerId = "772A128A-47C6-487B-8519-986DC341ECA7";
name = Regular;
paths = (
{
closed = 1;
nodes = (
"163 458 OFFCURVE",
"217 480 OFFCURVE",
"280 480 CURVE SMOOTH",
"407 480 OFFCURVE",
"510 377 OFFCURVE",
"510 250 CURVE SMOOTH",
"510 123 OFFCURVE",
"407 20 OFFCURVE",
"280 20 CURVE SMOOTH",
"153 20 OFFCURVE",
"50 123 OFFCURVE",
"50 250 CURVE SMOOTH",
"50 313 OFFCURVE",
"73 368 OFFCURVE",
"118 413 CURVE SMOOTH"
);
},
{
closed = 1;
nodes = (
"188 88 OFFCURVE",
"231 70 OFFCURVE",
"280 70 CURVE SMOOTH",
"379 70 OFFCURVE",
"460 151 OFFCURVE",
"460 250 CURVE SMOOTH",
"460 350 OFFCURVE",
"379 430 OFFCURVE",
"280 430 CURVE SMOOTH",
"181 430 OFFCURVE",
"100 350 OFFCURVE",
"100 250 CURVE SMOOTH",
"100 201 OFFCURVE",
"118 158 OFFCURVE",
"153 123 CURVE SMOOTH"
);
},
{
closed = 1;
nodes = (
"325 347 LINE",
"325 244 LINE",
"381 244 LINE",
"280 149 LINE",
"179 244 LINE",
"235 244 LINE",
"235 347 LINE"
);
}
);
width = 560;
}
);
unicode = E758;
},
{
glyphname = "circled-help";
layers = (
{
layerId = "772A128A-47C6-487B-8519-986DC341ECA7";
name = Regular;
paths = (
{
closed = 1;
nodes = (
"205 502 OFFCURVE",
"350 503 OFFCURVE",
"441 415 CURVE SMOOTH",
"532 327 OFFCURVE",
"534 182 OFFCURVE",
"446 91 CURVE SMOOTH",
"357 -1 OFFCURVE",
"212 -3 OFFCURVE",
"121 86 CURVE SMOOTH",
"29 174 OFFCURVE",
"27 319 OFFCURVE",
"116 411 CURVE SMOOTH"
);
},
{
closed = 1;
nodes = (
"277 110 LINE SMOOTH",
"297 110 OFFCURVE",
"311 124 OFFCURVE",
"311 143 CURVE",
"312 163 OFFCURVE",
"298 177 OFFCURVE",
"278 177 CURVE SMOOTH",
"277 177 LINE SMOOTH",
"258 177 OFFCURVE",
"244 164 OFFCURVE",
"243 145 CURVE",
"243 125 OFFCURVE",
"257 111 OFFCURVE",
"276 110 CURVE"
);
},
{
closed = 1;
nodes = (
"369 285 OFFCURVE",
"373 298 OFFCURVE",
"373 313 CURVE SMOOTH",
"373 365 OFFCURVE",
"334 390 OFFCURVE",
"279 390 CURVE SMOOTH",
"236 390 OFFCURVE",
"194 373 OFFCURVE",
"191 304 CURVE",
"191 302 LINE",
"246 302 LINE",
"246 304 LINE SMOOTH",
"246 321 OFFCURVE",
"256 343 OFFCURVE",
"281 343 CURVE SMOOTH",
"308 343 OFFCURVE",
"315 327 OFFCURVE",
"315 311 CURVE SMOOTH",
"315 299 OFFCURVE",
"305 286 OFFCURVE",
"297 281 CURVE SMOOTH",
"294 279 LINE",
"290 276 OFFCURVE",
"283 271 OFFCURVE",
"276 266 CURVE SMOOTH",
"269 261 OFFCURVE",
"261 254 OFFCURVE",
"257 249 CURVE",
"252 242 OFFCURVE",
"249 229 OFFCURVE",
"248 210 CURVE",
"248 206 LINE",
"302 206 LINE",
"302 208 LINE SMOOTH",
"302 216 OFFCURVE",
"303 229 OFFCURVE",
"318 240 CURVE",
"332 249 LINE",
"347 260 OFFCURVE",
"357 269 OFFCURVE",
"360 274 CURVE"
);
}
);
width = 562;
}
);
unicode = E704;
},
{
glyphname = "circled-info";
layers = (
{
layerId = "772A128A-47C6-487B-8519-986DC341ECA7";
name = Regular;
paths = (
{
closed = 1;
nodes = (
"205 502 OFFCURVE",
"350 503 OFFCURVE",
"441 415 CURVE SMOOTH",
"532 327 OFFCURVE",
"534 182 OFFCURVE",
"446 91 CURVE SMOOTH",
"357 -1 OFFCURVE",
"212 -3 OFFCURVE",
"121 86 CURVE SMOOTH",
"29 174 OFFCURVE",
"27 319 OFFCURVE",
"116 411 CURVE SMOOTH"
);
},
{
closed = 1;
nodes = (
"276 404 OFFCURVE",
"260 384 OFFCURVE",
"260 367 CURVE",
"259 348 OFFCURVE",
"271 337 OFFCURVE",
"292 337 CURVE SMOOTH",
"317 337 OFFCURVE",
"334 354 OFFCURVE",
"334 375 CURVE SMOOTH",
"334 394 OFFCURVE",
"324 404 OFFCURVE",
"304 404 CURVE SMOOTH"
);
},
{
closed = 1;
nodes = (
"264 107 OFFCURVE",
"304 124 OFFCURVE",
"339 159 CURVE",
"330 171 LINE",
"314 159 OFFCURVE",
"302 153 OFFCURVE",
"294 153 CURVE SMOOTH",
"289 153 OFFCURVE",
"289 159 OFFCURVE",
"292 172 CURVE SMOOTH",
"313 252 LINE SMOOTH",
"322 284 OFFCURVE",
"318 300 OFFCURVE",
"302 300 CURVE SMOOTH",
"282 300 OFFCURVE",
"237 279 OFFCURVE",
"200 248 CURVE",
"208 235 LINE",
"225 246 OFFCURVE",
"238 252 OFFCURVE",
"245 252 CURVE SMOOTH",
"249 252 OFFCURVE",
"249 246 OFFCURVE",
"245 235 CURVE",
"227 159 LINE SMOOTH",
"218 124 OFFCURVE",
"224 107 OFFCURVE",
"244 107 CURVE SMOOTH"
);
}
);
width = 562;
}
);
unicode = E705;
},
{
glyphname = "circled-left";
layers = (
{
layerId = "772A128A-47C6-487B-8519-986DC341ECA7";
name = Regular;
paths = (
{
closed = 1;
nodes = (
"510 123 OFFCURVE",
"407 20 OFFCURVE",
"280 20 CURVE SMOOTH",
"153 20 OFFCURVE",
"50 123 OFFCURVE",
"50 250 CURVE SMOOTH",
"50 378 OFFCURVE",
"153 480 OFFCURVE",
"280 480 CURVE SMOOTH",
"407 480 OFFCURVE",
"510 378 OFFCURVE",
"510 250 CURVE SMOOTH"
);
},
{
closed = 1;
nodes = (
"100 151 OFFCURVE",
"181 70 OFFCURVE",
"280 70 CURVE SMOOTH",
"379 70 OFFCURVE",
"460 151 OFFCURVE",
"460 250 CURVE SMOOTH",
"460 350 OFFCURVE",
"379 430 OFFCURVE",
"280 430 CURVE SMOOTH",
"181 430 OFFCURVE",
"100 350 OFFCURVE",
"100 250 CURVE SMOOTH"
);
},
{
closed = 1;
nodes = (
"376 205 LINE",
"274 205 LINE",
"274 149 LINE",
"179 250 LINE",
"274 352 LINE",
"274 295 LINE",
"376 295 LINE"
);
}
);
width = 560;
}
);
unicode = E759;
},
{
glyphname = "circled-right";
layers = (
{
layerId = "772A128A-47C6-487B-8519-986DC341ECA7";
name = Regular;
paths = (
{
closed = 1;
nodes = (
"73 133 OFFCURVE",
"50 187 OFFCURVE",
"50 250 CURVE SMOOTH",
"50 377 OFFCURVE",
"153 480 OFFCURVE",
"280 480 CURVE SMOOTH",
"407 480 OFFCURVE",
"510 377 OFFCURVE",
"510 250 CURVE SMOOTH",
"510 123 OFFCURVE",
"407 20 OFFCURVE",
"280 20 CURVE SMOOTH",
"217 20 OFFCURVE",
"163 43 OFFCURVE",
"118 88 CURVE SMOOTH"
);
},
{
closed = 1;
nodes = (
"460 350 OFFCURVE",
"380 430 OFFCURVE",
"280 430 CURVE SMOOTH",
"181 430 OFFCURVE",
"100 350 OFFCURVE",
"100 250 CURVE SMOOTH",
"100 151 OFFCURVE",
"181 70 OFFCURVE",
"280 70 CURVE SMOOTH",
"380 70 OFFCURVE",
"460 151 OFFCURVE",
"460 250 CURVE SMOOTH"
);
},
{
closed = 1;
nodes = (
"184 295 LINE",
"286 295 LINE",
"286 352 LINE",
"381 250 LINE",
"286 149 LINE",
"286 205 LINE",
"184 205 LINE"
);
}
);
width = 560;
}
);
unicode = E75A;
},
{
glyphname = "circled-up";
layers = (
{
layerId = "772A128A-47C6-487B-8519-986DC341ECA7";
name = Regular;
paths = (
{
closed = 1;
nodes = (
"398 43 OFFCURVE",
"343 20 OFFCURVE",
"280 20 CURVE SMOOTH",
"153 20 OFFCURVE",
"50 123 OFFCURVE",
"50 250 CURVE SMOOTH",
"50 378 OFFCURVE",
"153 480 OFFCURVE",
"280 480 CURVE SMOOTH",
"407 480 OFFCURVE",
"510 378 OFFCURVE",
"510 250 CURVE SMOOTH",
"510 187 OFFCURVE",
"488 133 OFFCURVE",
"443 88 CURVE SMOOTH"
);
},
{
closed = 1;
nodes = (
"181 430 OFFCURVE",
"100 350 OFFCURVE",
"100 250 CURVE SMOOTH",
"100 151 OFFCURVE",
"181 70 OFFCURVE",
"280 70 CURVE SMOOTH",
"380 70 OFFCURVE",
"460 151 OFFCURVE",
"460 250 CURVE SMOOTH",
"460 350 OFFCURVE",
"380 430 OFFCURVE",
"280 430 CURVE SMOOTH"
);
},
{
closed = 1;
nodes = (
"235 154 LINE",
"235 256 LINE",
"179 256 LINE",
"280 352 LINE",
"381 256 LINE",
"325 256 LINE",
"325 154 LINE"
);
}
);
width = 560;
}
);
unicode = E75B;
},
{
glyphname = code;
layers = (
{
layerId = "772A128A-47C6-487B-8519-986DC341ECA7";
name = Regular;
paths = (
{
closed = 1;
nodes = (
"245 388 OFFCURVE",
"248 383 OFFCURVE",
"248 377 CURVE SMOOTH",
"248 371 OFFCURVE",
"245 366 OFFCURVE",
"240 362 CURVE",
"117 250 LINE",
"240 137 LINE",
"245 133 OFFCURVE",
"248 128 OFFCURVE",
"248 122 CURVE SMOOTH",
"248 110 OFFCURVE",
"230 86 OFFCURVE",
"210 106 CURVE",
"50 250 LINE",
"210 393 LINE",
"220 403 OFFCURVE",
"230 403 OFFCURVE",
"240 393 CURVE SMOOTH"
);
},
{
closed = 1;
nodes = (
"550 250 LINE",
"391 106 LINE SMOOTH",
"370 86 OFFCURVE",
"339 117 OFFCURVE",
"360 137 CURVE SMOOTH",
"484 250 LINE",
"360 362 LINE SMOOTH",
"339 382 OFFCURVE",
"370 413 OFFCURVE",
"391 393 CURVE SMOOTH"
);
}
);
width = 600;
}
);
unicode = E714;
},
{
glyphname = comment;
layers = (
{
layerId = "772A128A-47C6-487B-8519-986DC341ECA7";
name = Regular;
paths = (
{
closed = 1;
nodes = (
"400 425 LINE SMOOTH",
"428 425 OFFCURVE",
"450 403 OFFCURVE",
"450 375 CURVE SMOOTH",
"450 200 LINE SMOOTH",
"450 173 OFFCURVE",
"428 150 OFFCURVE",
"400 150 CURVE SMOOTH",
"300 150 LINE",
"300 75 LINE",
"200 150 LINE",
"100 150 LINE SMOOTH",
"73 150 OFFCURVE",
"50 173 OFFCURVE",
"50 200 CURVE SMOOTH",
"50 375 LINE SMOOTH",
"50 403 OFFCURVE",
"73 425 OFFCURVE",
"100 425 CURVE SMOOTH"
);
}
);
width = 500;
}
);
unicode = E718;
},
{
glyphname = compass;
layers = (
{
layerId = "772A128A-47C6-487B-8519-986DC341ECA7";
name = Regular;
paths = (
{
closed = 1;
nodes = (
"420 491 OFFCURVE",
"528 386 OFFCURVE",
"531 254 CURVE SMOOTH",
"532 121 OFFCURVE",
"427 13 OFFCURVE",
"294 10 CURVE SMOOTH",
"162 9 OFFCURVE",
"52 115 OFFCURVE",
"51 247 CURVE SMOOTH",
"48 380 OFFCURVE",
"155 489 OFFCURVE",
"288 490 CURVE SMOOTH"
);
},
{
closed = 1;
nodes = (
"398 62 OFFCURVE",
"482 148 OFFCURVE",
"481 253 CURVE SMOOTH",
"480 358 OFFCURVE",
"393 441 OFFCURVE",
"289 440 CURVE SMOOTH",
"184 439 OFFCURVE",
"101 353 OFFCURVE",
"102 248 CURVE SMOOTH",
"103 143 OFFCURVE",
"189 60 OFFCURVE",
"294 61 CURVE SMOOTH"
);
},
{
closed = 1;
nodes = (
"177 138 LINE",
"178 147 OFFCURVE",
"180 158 OFFCURVE",
"183 171 CURVE",
"188 198 OFFCURVE",
"213 272 OFFCURVE",
"242 301 CURVE SMOOTH",
"271 330 OFFCURVE",
"335 353 OFFCURVE",
"375 360 CURVE SMOOTH",
"405 365 LINE",
"404 356 OFFCURVE",
"402 345 OFFCURVE",
"399 332 CURVE",
"394 305 OFFCURVE",
"369 231 OFFCURVE",
"340 202 CURVE SMOOTH",
"312 174 OFFCURVE",
"247 151 OFFCURVE",
"207 144 CURVE SMOOTH"
);
},
{
closed = 1;
nodes = (
"260 269 OFFCURVE",
"256 261 OFFCURVE",
"256 252 CURVE SMOOTH",
"256 233 OFFCURVE",
"272 216 OFFCURVE",
"292 216 CURVE SMOOTH",
"301 216 OFFCURVE",
"309 220 OFFCURVE",
"316 227 CURVE SMOOTH",
"333 244 OFFCURVE",
"348 275 OFFCURVE",
"360 320 CURVE",
"315 308 OFFCURVE",
"284 293 OFFCURVE",
"267 276 CURVE SMOOTH"
);
}
);
width = 582;
}
);
unicode = E728;
},
{
glyphname = database;
layers = (
{
layerId = "772A128A-47C6-487B-8519-986DC341ECA7";
name = Regular;
paths = (
{
closed = 1;
nodes = (
"398 186 OFFCURVE",
"400 185 OFFCURVE",
"400 178 CURVE SMOOTH",
"400 128 LINE SMOOTH",
"400 79 OFFCURVE",
"320 30 OFFCURVE",
"225 30 CURVE SMOOTH",
"132 30 OFFCURVE",
"50 79 OFFCURVE",
"50 128 CURVE SMOOTH",
"50 178 LINE SMOOTH",
"50 183 OFFCURVE",
"53 186 OFFCURVE",
"57 179 CURVE SMOOTH",
"78 144 OFFCURVE",
"146 119 OFFCURVE",
"225 119 CURVE SMOOTH",
"304 119 OFFCURVE",
"372 144 OFFCURVE",
"393 179 CURVE"
);
},
{
closed = 1;
nodes = (
"397 311 OFFCURVE",
"399 311 OFFCURVE",
"400 306 CURVE",
"400 248 LINE SMOOTH",
"400 203 OFFCURVE",
"322 168 OFFCURVE",
"225 168 CURVE SMOOTH",
"129 168 OFFCURVE",
"50 203 OFFCURVE",
"50 248 CURVE SMOOTH",
"50 306 LINE SMOOTH",
"50 313 OFFCURVE",
"52 313 OFFCURVE",
"57 306 CURVE",
"77 275 OFFCURVE",
"146 254 OFFCURVE",
"225 254 CURVE SMOOTH",
"304 254 OFFCURVE",
"373 275 OFFCURVE",
"394 306 CURVE"
);
},
{
closed = 1;
nodes = (
"136 464 OFFCURVE",
"177 470 OFFCURVE",
"225 470 CURVE SMOOTH",
"273 470 OFFCURVE",
"314 464 OFFCURVE",
"349 451 CURVE SMOOTH",
"383 438 OFFCURVE",
"400 422 OFFCURVE",
"400 404 CURVE SMOOTH",
"400 372 LINE SMOOTH",
"400 353 OFFCURVE",
"383 336 OFFCURVE",
"349 323 CURVE SMOOTH",
"314 309 OFFCURVE",
"273 302 OFFCURVE",
"225 302 CURVE SMOOTH",
"177 302 OFFCURVE",
"136 309 OFFCURVE",
"102 323 CURVE",
"67 336 OFFCURVE",
"50 353 OFFCURVE",
"50 372 CURVE SMOOTH",
"50 404 LINE SMOOTH",
"50 422 OFFCURVE",
"67 438 OFFCURVE",
"102 451 CURVE SMOOTH"
);
}
);
width = 450;
}
);
unicode = 1F4F8;
},
{
glyphname = "db-logo";
layers = (
{
layerId = "772A128A-47C6-487B-8519-986DC341ECA7";
name = Regular;
paths = (
{
closed = 1;
nodes = (
"355 135 OFFCURVE",
"312 73 OFFCURVE",
"264 61 CURVE SMOOTH",
"239 55 OFFCURVE",
"214 59 OFFCURVE",
"188 74 CURVE SMOOTH",
"156 92 LINE",
"102 0 LINE",
"74 16 LINE",
"177 195 LINE",
"154 192 OFFCURVE",
"132 196 OFFCURVE",
"110 209 CURVE SMOOTH",
"50 244 LINE",
"143 406 LINE",
"204 371 LINE SMOOTH",
"226 358 OFFCURVE",
"241 341 OFFCURVE",
"250 321 CURVE",
"353 500 LINE",
"382 483 LINE",
"328 390 LINE",
"360 372 LINE SMOOTH",
"411 343 OFFCURVE",
"427 286 OFFCURVE",
"399 241 CURVE",
"383 212 OFFCURVE",
"358 196 OFFCURVE",
"323 195 CURVE"
);
},
{
closed = 1;
nodes = (
"313 365 LINE",
"251 257 LINE",
"251 256 OFFCURVE",
"251 255 OFFCURVE",
"250 254 CURVE",
"281 236 LINE SMOOTH",
"316 216 OFFCURVE",
"350 226 OFFCURVE",
"369 258 CURVE SMOOTH",
"388 290 OFFCURVE",
"378 326 OFFCURVE",
"345 346 CURVE SMOOTH"
);
},
{
closed = 1;
nodes = (
"125 235 LINE SMOOTH",
"160 215 OFFCURVE",
"194 225 OFFCURVE",
"213 257 CURVE SMOOTH",
"232 289 OFFCURVE",
"222 326 OFFCURVE",
"189 345 CURVE SMOOTH",
"157 364 LINE",
"93 253 LINE"
);
},
{
closed = 1;
nodes = (
"203 100 LINE SMOOTH",
"238 80 OFFCURVE",
"272 90 OFFCURVE",
"291 122 CURVE SMOOTH",
"310 154 OFFCURVE",
"299 190 OFFCURVE",
"266 210 CURVE SMOOTH",
"235 228 LINE",
"233 226 LINE",
"171 118 LINE"
);
}
);
width = 463;
}
);
unicode = 1F5F9;
},
{
glyphname = "db-shape";
layers = (
{
layerId = "772A128A-47C6-487B-8519-986DC341ECA7";
name = Regular;
paths = (
{
closed = 1;
nodes = (
"459 475 OFFCURVE",
"500 433 OFFCURVE",
"500 250 CURVE SMOOTH",
"500 66 OFFCURVE",
"459 25 OFFCURVE",
"275 25 CURVE SMOOTH",
"92 25 OFFCURVE",
"50 66 OFFCURVE",
"50 250 CURVE SMOOTH",
"50 433 OFFCURVE",
"92 475 OFFCURVE",
"275 475 CURVE SMOOTH"
);
}
);
width = 550;
}
);
unicode = 1F5FA;
},
